<svg width="430" height="233" viewBox="0 0 430 233" fill="none" xmlns="http://www.w3.org/2000/svg">
<g opacity="0.4" clip-path="url(#clip0_1513_438)">
<path d="M-22.6484 11.6697C-22.6484 28.6181 -8.90902 42.3575 8.03937 42.3575C24.9878 42.3575 38.7272 28.6181 38.7272 11.6697C38.7272 -5.27868 24.9878 -19.0181 8.03938 -19.0181C-8.90901 -19.0181 -22.6484 -5.27869 -22.6484 11.6697Z" stroke="#7B70CE" stroke-width="1.32919"/>
<path d="M-13.0691 11.6702C-13.0691 23.3283 -3.61837 32.7791 8.03974 32.7791C19.6978 32.7791 29.1486 23.3283 29.1486 11.6702C29.1486 0.0121212 19.6978 -9.43864 8.03974 -9.43864C-3.61836 -9.43864 -13.0691 0.0121177 -13.0691 11.6702Z" stroke="#7B70CE" stroke-width="1.32919"/>
<path d="M-2.64039 11.6725C-2.64039 17.5723 2.14236 22.3551 8.04217 22.3551C13.942 22.3551 18.7247 17.5723 18.7247 11.6725C18.7247 5.77267 13.942 0.989925 8.04217 0.989923C2.14235 0.989921 -2.64039 5.77267 -2.64039 11.6725Z" stroke="#7B70CE" stroke-width="1.32919"/>
<path d="M-31.7054 11.6681C-31.7054 33.6176 -13.9118 51.4113 8.03777 51.4113C29.9873 51.4113 47.781 33.6177 47.781 11.6681C47.781 -10.2815 29.9874 -28.0752 8.03777 -28.0752C-13.9118 -28.0752 -31.7054 -10.2815 -31.7054 11.6681Z" stroke="#7B70CE" stroke-width="1.32919"/>
<path d="M-40.7487 11.6729C-40.7487 38.6196 -18.9041 60.4641 8.04248 60.4641C34.9891 60.4641 56.8337 38.6196 56.8337 11.673C56.8337 -15.2737 34.9891 -37.1182 8.04249 -37.1182C-18.9041 -37.1182 -40.7487 -15.2737 -40.7487 11.6729Z" stroke="#7B70CE" stroke-width="1.32919"/>
<path d="M-50.5124 11.6699C-50.5124 44.0072 -24.2978 70.2218 8.03955 70.2218C40.3769 70.2218 66.5915 44.0073 66.5915 11.6699C66.5915 -20.6674 40.3769 -46.882 8.03956 -46.882C-24.2978 -46.882 -50.5124 -20.6674 -50.5124 11.6699Z" stroke="#7B70CE" stroke-width="1.32919"/>
<path d="M-60.0963 11.6722C-60.0964 49.3039 -29.5899 79.8103 8.04176 79.8103C45.6734 79.8103 76.1798 49.3039 76.1798 11.6722C76.1798 -25.9594 45.6734 -56.4659 8.04177 -56.4659C-29.5899 -56.4659 -60.0963 -25.9594 -60.0963 11.6722Z" stroke="#7B70CE" stroke-width="1.32919"/>
<path d="M-70.1893 11.6727C-70.1894 54.8789 -35.1638 89.9044 8.04236 89.9044C51.2486 89.9044 86.2741 54.8789 86.2741 11.6727C86.2741 -31.5335 51.2486 -66.5591 8.04238 -66.5591C-35.1638 -66.5591 -70.1893 -31.5335 -70.1893 11.6727Z" stroke="#7B70CE" stroke-width="1.32919"/>
<path d="M-80.2382 11.6699C-80.2382 60.4244 -40.7149 99.9478 8.03962 99.9478C56.7941 99.9478 96.3175 60.4245 96.3175 11.6699C96.3175 -37.0846 56.7941 -76.6079 8.03962 -76.608C-40.7149 -76.608 -80.2382 -37.0846 -80.2382 11.6699Z" stroke="#7B70CE" stroke-width="1.32919"/>
</g>
<g opacity="0.5">
<path d="M401.164 202.649H413.232C413.934 202.649 414.503 202.156 414.503 201.549V191.101C414.503 190.493 413.934 190.001 413.232 190.001H401.164C400.462 190.001 399.893 190.493 399.893 191.101V201.549C399.893 202.156 400.462 202.649 401.164 202.649Z" fill="url(#paint0_linear_1513_438)"/>
<path d="M362.042 184.649H386.515C387.938 184.649 389.091 183.65 389.091 182.419V161.231C389.091 159.999 387.938 159.001 386.515 159.001H362.042C360.619 159.001 359.465 159.999 359.465 161.231V182.419C359.465 183.65 360.619 184.649 362.042 184.649Z" fill="url(#paint1_linear_1513_438)"/>
<path d="M325.642 208.352H341.245C342.152 208.352 342.888 207.715 342.888 206.93V193.422C342.888 192.637 342.152 192 341.245 192H325.642C324.735 192 324 192.637 324 193.422V206.93C324 207.715 324.735 208.352 325.642 208.352Z" fill="url(#paint2_linear_1513_438)"/>
<path d="M366.07 217.352H381.673C382.58 217.352 383.315 216.715 383.315 215.93V202.422C383.315 201.637 382.58 201 381.673 201H366.07C365.163 201 364.428 201.637 364.428 202.422V215.93C364.428 216.715 365.163 217.352 366.07 217.352Z" fill="url(#paint3_linear_1513_438)"/>
<path d="M406.498 232.352H422.101C423.008 232.352 423.743 231.715 423.743 230.93V217.422C423.743 216.637 423.008 216 422.101 216H406.498C405.591 216 404.856 216.637 404.856 217.422V230.93C404.856 231.715 405.591 232.352 406.498 232.352Z" fill="url(#paint4_linear_1513_438)"/>
<path d="M402.28 149.352H421.699C422.828 149.352 423.743 148.56 423.743 147.582V130.77C423.743 129.792 422.828 129 421.699 129H402.28C401.151 129 400.235 129.792 400.235 130.77V147.582C400.235 148.56 401.151 149.352 402.28 149.352Z" fill="url(#paint5_linear_1513_438)"/>
</g>
<path opacity="0.5" d="M230.024 164.394C230.734 164.886 231.107 165.737 230.973 166.587L226.473 195.831C226.368 196.513 225.953 197.111 225.348 197.448C224.743 197.785 224.019 197.828 223.379 197.56L214.97 194.067L210.153 199.276C209.528 199.958 208.543 200.183 207.678 199.845C206.813 199.508 206.251 198.671 206.251 197.743V191.866C206.251 191.585 206.356 191.318 206.546 191.114L218.331 178.257C218.739 177.814 218.725 177.132 218.303 176.71C217.881 176.288 217.199 176.26 216.756 176.661L202.454 189.364L196.245 186.257C195.5 185.884 195.022 185.139 195.001 184.309C194.98 183.48 195.416 182.707 196.133 182.292L227.633 164.296C228.386 163.867 229.314 163.909 230.024 164.394Z" fill="#ADADCE"/>
<g opacity="0.5">
<path fill-rule="evenodd" clip-rule="evenodd" d="M366.375 115C374.853 115 381.75 121.897 381.75 130.375C381.75 138.853 374.853 145.75 366.375 145.75C357.897 145.75 351 138.853 351 130.375C351 121.897 357.897 115 366.375 115ZM366.375 117.25C359.138 117.25 353.25 123.138 353.25 130.375C353.25 137.613 359.138 143.5 366.375 143.5C373.613 143.5 379.5 137.613 379.5 130.375C379.5 123.138 373.613 117.25 366.375 117.25ZM365.746 125.142C366.526 125.468 372 128.271 372 130.368C372 132.333 367.074 135.081 365.815 135.606C365.325 135.81 364.765 136.002 364.242 136.002C363.837 136.002 363.453 135.887 363.139 135.575C362.898 135.336 362.253 134.699 362.25 130.5C362.248 126.042 362.919 125.379 363.139 125.159C363.924 124.382 365.202 124.914 365.746 125.142ZM364.701 127.13C364.435 128.631 364.431 132.218 364.696 133.643C366.013 133.178 368.866 131.303 369.634 130.374C368.869 129.473 366.052 127.637 364.701 127.13Z" fill="#CECEF2"/>
</g>
<g opacity="0.5" clip-path="url(#clip1_1513_438)">
<path fill-rule="evenodd" clip-rule="evenodd" d="M66.6768 126.105C66.7371 126.082 66.7981 126.065 66.8593 126.053L67.0519 125.982C67.3383 125.874 67.6559 125.888 67.9329 126.019L77.8314 130.752C78.093 130.876 78.2972 131.099 78.3992 131.37L83.2415 144.238C84.5921 147.751 82.9318 151.661 79.4577 153.132L68.2005 157.369L68.0474 157.427C64.5787 158.644 60.7735 156.9 59.4078 153.526L53.6426 138.206C52.4133 134.693 54.2344 130.805 57.6922 129.504L66.5055 126.186C66.5593 126.155 66.6165 126.127 66.6768 126.105ZM66.422 128.622L58.4874 131.609C56.1612 132.484 54.9384 135.095 55.7579 137.439L61.408 152.454C62.261 154.878 64.9017 156.146 67.3027 155.303L78.6237 151.043C80.9304 150.065 82.0536 147.419 81.1388 145.039L76.7927 133.49L73.9716 134.553C71.3998 135.513 68.5226 134.204 67.5569 131.638L66.422 128.622ZM73.0753 143.904C73.6565 143.685 74.3057 143.979 74.5244 144.561C74.7431 145.142 74.4489 145.791 73.8677 146.01L66.2867 148.862C65.7055 149.081 65.0563 148.787 64.8376 148.206C64.6189 147.625 64.9131 146.975 65.4943 146.757L73.0753 143.904ZM68.2223 139.717C68.8035 139.498 69.4528 139.792 69.6715 140.373C69.8902 140.955 69.596 141.604 69.0148 141.823L64.3033 143.596C63.7221 143.814 63.0729 143.52 62.8542 142.939C62.6355 142.358 62.9297 141.708 63.5109 141.49L68.2223 139.717ZM68.9721 129.011L69.6627 130.845C70.1931 132.255 71.7723 132.972 73.182 132.446L74.8463 131.818L68.9721 129.011Z" fill="#CECEF2"/>
</g>
<g opacity="0.5" clip-path="url(#clip2_1513_438)">
<path fill-rule="evenodd" clip-rule="evenodd" d="M136.458 50.5664C138.647 49.555 140.874 49.4137 142.896 50.1602C145.009 50.9389 146.773 52.6767 147.867 55.0528L152.27 64.5792C152.289 64.6147 152.307 64.6513 152.322 64.6887L152.991 66.1442C155.212 70.9524 153.609 75.6136 149.002 77.7416L137.229 83.1802C132.626 85.3063 128.041 83.5035 125.82 78.6952L120.696 67.6025C118.475 62.7942 120.075 58.1343 124.677 56.0082L136.458 50.5664ZM143.648 65.1432C142.847 65.513 142.52 67.272 142.228 68.8261C141.829 70.9601 141.417 73.1681 139.638 73.9896C138.436 74.5451 137.12 74.591 135.96 74.6296C134.115 74.692 133.319 74.807 132.895 75.6871C132.045 77.4504 131.641 80.1337 131.486 81.4337C132.937 81.9928 134.596 81.9182 136.285 81.1376L148.059 75.699C151.497 74.1107 152.631 70.7317 150.948 67.0877L150.445 65.9997L150.399 65.9811C148.639 65.3036 145.642 64.2221 143.648 65.1432ZM137.401 52.609L125.621 58.0508C122.188 59.6366 121.056 63.0163 122.738 66.659L127.863 77.7516C128.283 78.6621 128.805 79.4279 129.405 80.0399C129.643 78.4861 130.089 76.3255 130.868 74.7097C131.925 72.5196 134.117 72.4424 135.883 72.3816C136.923 72.3459 137.905 72.3119 138.695 71.947C139.419 71.6124 139.736 69.9128 140.018 68.4128C140.406 66.3234 140.85 63.9573 142.705 63.1006C144.74 62.1603 147.161 62.5596 149.133 63.1549L145.824 55.995C144.969 54.1377 143.687 52.8497 142.118 52.271C140.668 51.7362 139.038 51.8529 137.401 52.609ZM128.955 60.9545C130.904 60.0558 133.221 60.9086 134.122 62.8553L134.123 62.8567C135.023 64.8053 134.17 67.1225 132.22 68.0233C130.27 68.9241 127.953 68.0712 127.053 66.1226C126.152 64.1726 127.005 61.8553 128.955 60.9545ZM129.897 62.9978C129.075 63.3777 128.715 64.3552 129.095 65.179C129.475 66.0015 130.453 66.3613 131.277 65.9807C132.099 65.6008 132.46 64.6227 132.081 63.8016C131.699 62.9783 130.72 62.6192 129.897 62.9978Z" fill="#CECEF2"/>
</g>
<g opacity="0.3">
<path d="M301.012 54.4399L286.335 49.3421L284.207 44.9449L276.053 42.1129C274.259 41.4898 272.281 42.449 271.657 44.2444L269.39 50.7731L302.007 62.1014L303.14 58.837C303.764 57.0416 302.806 55.0629 301.012 54.4399Z" fill="#CECEF2"/>
<path d="M300.154 58.7791L275.884 45.5419C274.216 44.6318 272.106 45.2524 271.196 46.921L262.923 62.0896C262.012 63.7582 262.633 65.868 264.302 66.778L288.571 80.0152C290.24 80.9253 292.35 80.3047 293.26 78.6361L301.533 63.4675C302.443 61.7989 301.823 59.6892 300.154 58.7791Z" fill="url(#paint6_linear_1513_438)"/>
</g>
<path d="M160.97 129.636C159.574 128.897 157.807 128.528 155.67 128.528C153.96 128.528 152.378 128.94 150.925 129.764C149.5 130.588 148.346 131.739 147.462 133.217C146.579 134.666 146.137 136.371 146.137 138.332C146.137 140.123 146.522 141.742 147.291 143.192C148.061 144.613 149.172 145.749 150.626 146.602C152.107 147.426 153.874 147.838 155.926 147.838C156.952 147.838 157.907 147.739 158.79 147.54C159.702 147.341 160.514 147.057 161.226 146.687C161.369 146.602 161.526 146.559 161.697 146.559C162.01 146.559 162.267 146.659 162.466 146.858C162.666 147.057 162.765 147.312 162.765 147.625C162.765 148.08 162.566 148.392 162.167 148.563C161.312 149.017 160.357 149.358 159.303 149.586C158.249 149.842 157.123 149.969 155.926 149.969C153.418 149.969 151.267 149.458 149.471 148.435C147.705 147.412 146.351 146.019 145.411 144.257C144.47 142.495 144 140.52 144 138.332C144 135.945 144.541 133.856 145.624 132.066C146.707 130.276 148.132 128.883 149.899 127.889C151.666 126.894 153.589 126.397 155.67 126.397C158.234 126.397 160.343 126.851 161.996 127.761C162.366 127.988 162.552 128.301 162.552 128.699C162.552 128.954 162.452 129.196 162.252 129.423C162.053 129.651 161.796 129.764 161.483 129.764C161.312 129.764 161.141 129.722 160.97 129.636Z" fill="#FEFBFF"/>
<path d="M233.067 149.671C232.811 149.671 232.583 149.586 232.384 149.415C232.184 149.245 232.056 149.017 231.999 148.733C231.799 147.113 231.543 145.28 231.229 143.234C230.916 141.188 230.574 139.071 230.203 136.883C229.833 134.695 229.448 132.578 229.049 130.531C228.109 132.435 227.14 134.425 226.143 136.499C225.174 138.545 224.248 140.563 223.364 142.552C222.481 144.542 221.683 146.403 220.97 148.136C220.771 148.62 220.457 148.861 220.03 148.861C219.517 148.861 219.175 148.662 219.004 148.264C218.178 146.502 217.266 144.598 216.268 142.552C215.271 140.478 214.274 138.403 213.276 136.329C212.307 134.254 211.395 132.336 210.541 130.574C210.313 132.08 210.07 133.672 209.814 135.348C209.586 137.025 209.358 138.687 209.13 140.336C208.93 141.984 208.731 143.533 208.531 144.982C208.36 146.431 208.218 147.682 208.104 148.733C208.076 148.989 207.947 149.216 207.719 149.415C207.52 149.586 207.278 149.671 206.993 149.671C206.708 149.671 206.465 149.572 206.266 149.373C206.066 149.145 205.967 148.875 205.967 148.563C205.967 148.506 206.009 148.094 206.095 147.327C206.209 146.389 206.366 145.11 206.565 143.49C206.765 141.87 206.993 140.108 207.249 138.204C207.506 136.272 207.776 134.354 208.061 132.45C208.346 130.546 208.617 128.826 208.873 127.292C208.93 127.036 209.059 126.823 209.258 126.652C209.486 126.482 209.728 126.397 209.985 126.397C210.327 126.397 210.583 126.51 210.754 126.738C211.039 127.022 211.267 127.363 211.438 127.761C212.236 129.352 213.105 131.142 214.046 133.132C215.015 135.093 216.012 137.11 217.038 139.185C218.064 141.259 219.033 143.249 219.945 145.153C220.771 143.277 221.654 141.288 222.595 139.185C223.564 137.053 224.547 134.936 225.544 132.833C226.57 130.702 227.568 128.727 228.536 126.908C228.764 126.539 229.092 126.354 229.52 126.354C229.776 126.354 230.018 126.439 230.246 126.61C230.474 126.752 230.602 126.951 230.631 127.207C230.973 128.883 231.301 130.674 231.614 132.578C231.956 134.453 232.27 136.258 232.554 137.991C232.839 139.725 233.067 141.245 233.238 142.552C233.438 143.831 233.58 144.712 233.666 145.195C233.894 146.588 234.022 147.483 234.051 147.881C234.108 148.279 234.136 148.52 234.136 148.605C234.136 148.89 234.036 149.145 233.837 149.373C233.637 149.572 233.381 149.671 233.067 149.671Z" fill="#FEFBFF"/>
<path d="M242.87 149.586C242.585 149.586 242.328 149.486 242.1 149.287C241.901 149.06 241.801 148.804 241.801 148.52V127.846C241.801 127.533 241.901 127.278 242.1 127.079C242.328 126.88 242.585 126.78 242.87 126.78H248.811C250.065 126.78 251.119 126.965 251.974 127.334C252.829 127.704 253.527 128.144 254.069 128.656C254.553 129.139 254.938 129.75 255.223 130.489C255.508 131.199 255.65 131.896 255.65 132.578C255.65 133.345 255.508 134.084 255.223 134.794C254.938 135.476 254.553 136.059 254.069 136.542C253.983 136.627 253.884 136.727 253.77 136.84C253.684 136.926 253.57 137.011 253.428 137.096C254.397 137.494 255.195 138.005 255.821 138.631C257.075 139.881 257.702 141.373 257.702 143.106C257.702 143.874 257.56 144.641 257.275 145.408C256.99 146.147 256.548 146.815 255.95 147.412C255.323 148.037 254.496 148.563 253.47 148.989C252.445 149.387 251.119 149.586 249.495 149.586H242.87ZM249.196 136.371C249.937 136.315 250.592 136.158 251.162 135.902C251.761 135.618 252.217 135.32 252.53 135.007C253.185 134.411 253.513 133.601 253.513 132.578C253.513 131.64 253.185 130.844 252.53 130.19C252.16 129.793 251.661 129.48 251.034 129.253C250.436 129.025 249.695 128.912 248.811 128.912H243.938V136.371H249.196ZM243.938 138.503V147.454H249.495C250.749 147.454 251.761 147.312 252.53 147.028C253.328 146.744 253.955 146.36 254.411 145.877C255.18 145.11 255.565 144.186 255.565 143.106C255.565 141.998 255.138 141.018 254.283 140.165C253.171 139.057 251.618 138.503 249.623 138.503H243.938Z" fill="#FEFBFF"/>
<path d="M273.959 126.397C275.983 126.397 277.821 126.894 279.473 127.889C281.155 128.883 282.48 130.276 283.449 132.066C284.446 133.828 284.945 135.874 284.945 138.204C284.945 140.421 284.503 142.424 283.62 144.215C282.765 145.977 281.511 147.383 279.858 148.435C278.234 149.458 276.268 149.969 273.959 149.969C271.793 149.969 269.87 149.458 268.189 148.435C266.507 147.383 265.182 145.977 264.213 144.215C263.273 142.453 262.803 140.492 262.803 138.332C262.803 135.945 263.273 133.856 264.213 132.066C265.154 130.276 266.45 128.883 268.103 127.889C269.784 126.894 271.736 126.397 273.959 126.397ZM273.959 128.528C272.164 128.528 270.582 128.954 269.215 129.807C267.875 130.631 266.821 131.782 266.051 133.26C265.31 134.709 264.94 136.4 264.94 138.332C264.94 140.066 265.31 141.657 266.051 143.106C266.821 144.556 267.889 145.707 269.257 146.559C270.625 147.412 272.192 147.838 273.959 147.838C275.84 147.838 277.436 147.412 278.747 146.559C280.086 145.707 281.098 144.556 281.782 143.106C282.466 141.629 282.808 139.995 282.808 138.204C282.808 136.329 282.409 134.666 281.611 133.217C280.841 131.768 279.787 130.631 278.448 129.807C277.108 128.954 275.612 128.528 273.959 128.528Z" fill="#FEFBFF"/>
<path d="M167.809 97.2397C166.413 96.5008 164.646 96.1314 162.509 96.1314C160.799 96.1314 159.217 96.5434 157.764 97.3675C156.339 98.1917 155.185 99.3426 154.302 100.82C153.418 102.27 152.977 103.975 152.977 105.936C152.977 107.726 153.361 109.346 154.131 110.795C154.9 112.216 156.012 113.353 157.465 114.205C158.947 115.029 160.714 115.441 162.765 115.441C163.791 115.441 164.746 115.342 165.629 115.143C166.541 114.944 167.353 114.66 168.066 114.291C168.208 114.205 168.365 114.163 168.536 114.163C168.849 114.163 169.106 114.262 169.305 114.461C169.505 114.66 169.605 114.916 169.605 115.228C169.605 115.683 169.405 115.996 169.006 116.166C168.151 116.621 167.197 116.962 166.142 117.189C165.088 117.445 163.962 117.573 162.765 117.573C160.258 117.573 158.106 117.061 156.311 116.038C154.544 115.015 153.19 113.623 152.25 111.861C151.309 110.099 150.839 108.124 150.839 105.936C150.839 103.548 151.381 101.46 152.464 99.6694C153.547 97.8791 154.971 96.4866 156.738 95.492C158.505 94.4973 160.429 94 162.509 94C165.074 94 167.182 94.4547 168.835 95.3641C169.206 95.5914 169.391 95.904 169.391 96.3019C169.391 96.5576 169.291 96.7992 169.092 97.0265C168.892 97.2539 168.636 97.3675 168.322 97.3675C168.151 97.3675 167.98 97.3249 167.809 97.2397Z" fill="#FEFBFF"/>
<path d="M177.701 117.189C177.416 117.189 177.159 117.09 176.931 116.891C176.732 116.663 176.632 116.408 176.632 116.123V95.4493C176.632 95.1367 176.732 94.881 176.931 94.682C177.159 94.4831 177.416 94.3836 177.701 94.3836C178.014 94.3836 178.271 94.4831 178.47 94.682C178.67 94.881 178.77 95.1367 178.77 95.4493V115.058H189.285C189.598 115.058 189.855 115.157 190.054 115.356C190.254 115.555 190.354 115.811 190.354 116.123C190.354 116.408 190.254 116.663 190.054 116.891C189.855 117.09 189.598 117.189 189.285 117.189H177.701Z" fill="#FEFBFF"/>
<path d="M205.409 94C207.433 94 209.271 94.4973 210.924 95.492C212.605 96.4866 213.93 97.8791 214.899 99.6694C215.896 101.431 216.395 103.477 216.395 105.808C216.395 108.024 215.953 110.028 215.07 111.818C214.215 113.58 212.961 114.987 211.308 116.038C209.684 117.061 207.718 117.573 205.409 117.573C203.244 117.573 201.32 117.061 199.639 116.038C197.957 114.987 196.632 113.58 195.663 111.818C194.723 110.056 194.253 108.095 194.253 105.936C194.253 103.548 194.723 101.46 195.663 99.6694C196.604 97.8791 197.9 96.4866 199.553 95.492C201.235 94.4973 203.187 94 205.409 94ZM205.409 96.1314C203.614 96.1314 202.032 96.5576 200.665 97.4102C199.325 98.2343 198.271 99.3852 197.501 100.863C196.761 102.312 196.39 104.003 196.39 105.936C196.39 107.669 196.761 109.261 197.501 110.71C198.271 112.159 199.34 113.31 200.707 114.163C202.075 115.015 203.643 115.441 205.409 115.441C207.29 115.441 208.886 115.015 210.197 114.163C211.536 113.31 212.548 112.159 213.232 110.71C213.916 109.232 214.258 107.598 214.258 105.808C214.258 103.932 213.859 102.27 213.061 100.82C212.291 99.371 211.237 98.2343 209.898 97.4102C208.558 96.5576 207.062 96.1314 205.409 96.1314Z" fill="#FEFBFF"/>
<path d="M224.801 108.067C224.801 110.426 225.471 112.244 226.81 113.523C228.178 114.802 229.93 115.441 232.068 115.441C234.433 115.441 236.257 114.802 237.539 113.523C238.85 112.216 239.505 110.355 239.505 107.939V95.4493C239.505 95.1367 239.605 94.881 239.805 94.682C240.033 94.4831 240.289 94.3836 240.574 94.3836C240.887 94.3836 241.144 94.4831 241.343 94.682C241.543 94.881 241.643 95.1367 241.643 95.4493V107.939C241.643 111.037 240.802 113.424 239.121 115.1C237.468 116.749 235.117 117.573 232.068 117.573C229.303 117.573 227.038 116.749 225.271 115.1C223.533 113.452 222.664 111.108 222.664 108.067V95.4493C222.664 95.1367 222.763 94.881 222.963 94.682C223.191 94.4831 223.447 94.3836 223.732 94.3836C224.046 94.3836 224.302 94.4831 224.502 94.682C224.701 94.881 224.801 95.1367 224.801 95.4493V108.067Z" fill="#FEFBFF"/>
<path d="M250.585 117.189C250.3 117.189 250.044 117.09 249.816 116.891C249.617 116.663 249.517 116.408 249.517 116.123V95.4493C249.517 95.1367 249.617 94.881 249.816 94.682C250.044 94.4831 250.3 94.3836 250.585 94.3836H258.109C259.989 94.3836 261.742 94.8668 263.366 95.833C265.019 96.7992 266.344 98.1348 267.342 99.8399C268.368 101.545 268.881 103.52 268.881 105.765C268.881 107.896 268.425 109.829 267.513 111.562C266.629 113.267 265.375 114.632 263.751 115.655C262.155 116.678 260.274 117.189 258.109 117.189H250.585ZM251.654 96.515V115.058H258.109C259.875 115.058 261.4 114.646 262.682 113.822C263.993 112.969 264.991 111.847 265.675 110.454C266.387 109.033 266.743 107.47 266.743 105.765C266.743 103.975 266.344 102.383 265.546 100.991C264.748 99.5984 263.694 98.5043 262.383 97.7086C261.072 96.9129 259.648 96.515 258.109 96.515H251.654Z" fill="#FEFBFF"/>
<path d="M172.932 138.503H171.314C171.315 136.025 172.088 133.608 173.528 131.588C174.967 129.568 177.002 128.045 179.348 127.231C181.695 126.416 184.238 126.35 186.624 127.042C189.01 127.733 191.121 129.148 192.664 131.091V129.308H194.282V134.954H188.621V133.341H192.247C191.338 131.772 190.031 130.47 188.458 129.564C186.884 128.658 185.1 128.18 183.283 128.179C177.575 128.179 172.932 132.81 172.932 138.503ZM193.635 138.503C193.635 144.195 188.991 148.826 183.283 148.826C181.466 148.825 179.682 148.348 178.109 147.442C176.535 146.536 175.228 145.233 174.319 143.665H177.946V142.051H172.285V147.697H173.902V145.915C175.445 147.857 177.556 149.272 179.943 149.964C182.329 150.656 184.871 150.59 187.218 149.775C189.565 148.96 191.599 147.437 193.039 145.417C194.478 143.398 195.252 140.981 195.252 138.503H193.635Z" fill="#FEFBFF"/>
<defs>
<linearGradient id="paint0_linear_1513_438" x1="405.88" y1="187.915" x2="407.355" y2="195.713" gradientUnits="userSpaceOnUse">
<stop stop-color="#9C9CFF"/>
<stop offset="1" stop-color="#7979FB"/>
</linearGradient>
<linearGradient id="paint1_linear_1513_438" x1="371.605" y1="154.771" x2="374.597" y2="170.583" gradientUnits="userSpaceOnUse">
<stop stop-color="#9C9CFF"/>
<stop offset="1" stop-color="#7979FB"/>
</linearGradient>
<linearGradient id="paint2_linear_1513_438" x1="331.74" y1="189.303" x2="333.647" y2="199.384" gradientUnits="userSpaceOnUse">
<stop stop-color="#9C9CFF"/>
<stop offset="1" stop-color="#7979FB"/>
</linearGradient>
<linearGradient id="paint3_linear_1513_438" x1="372.168" y1="198.303" x2="374.075" y2="208.384" gradientUnits="userSpaceOnUse">
<stop stop-color="#9C9CFF"/>
<stop offset="1" stop-color="#7979FB"/>
</linearGradient>
<linearGradient id="paint4_linear_1513_438" x1="412.596" y1="213.303" x2="414.503" y2="223.384" gradientUnits="userSpaceOnUse">
<stop stop-color="#9C9CFF"/>
<stop offset="1" stop-color="#7979FB"/>
</linearGradient>
<linearGradient id="paint5_linear_1513_438" x1="409.869" y1="125.643" x2="412.242" y2="138.191" gradientUnits="userSpaceOnUse">
<stop stop-color="#9C9CFF"/>
<stop offset="1" stop-color="#7979FB"/>
</linearGradient>
<linearGradient id="paint6_linear_1513_438" x1="288.019" y1="52.1605" x2="276.437" y2="73.3966" gradientUnits="userSpaceOnUse">
<stop stop-color="#D7DCF4"/>
<stop offset="1" stop-color="#D0D2DA"/>
</linearGradient>
<clipPath id="clip0_1513_438">
<rect width="132.679" height="94.1443" fill="white" transform="translate(123.388 29.5701) rotate(135)"/>
</clipPath>
<clipPath id="clip1_1513_438">
<rect width="36" height="36" fill="white" transform="translate(46 130.68) rotate(-20.6214)"/>
</clipPath>
<clipPath id="clip2_1513_438">
<rect width="36" height="36" fill="white" transform="translate(113 58.0977) rotate(-24.7937)"/>
</clipPath>
</defs>
</svg>
