<svg width="58" height="38" viewBox="0 0 58 38" fill="none" xmlns="http://www.w3.org/2000/svg">
<g clip-path="url(#clip0_2_125)">
<path d="M58 30.5782C57.7593 31.3859 57.6177 32.2492 57.2495 33.0011C55.6777 36.2594 53.0015 37.9582 49.3482 37.9722C39.8325 38 30.3169 38 20.8013 37.9722C16.6523 37.9582 13.3672 35.4379 12.3901 31.6643C11.2715 27.3617 13.8345 22.9058 18.1958 21.6526C18.6631 21.5134 18.8047 21.3324 18.8189 20.8728C19.0029 14.3979 24.6245 9.3155 31.209 9.62183C34.1401 9.76108 36.6607 10.8054 38.7988 12.7688C39.0537 13.0055 39.2803 13.089 39.6484 13.0333C44.8311 12.2536 49.9854 15.8461 50.9766 20.9007C51.0332 21.1931 51.0899 21.4298 51.4722 21.5273C55.1113 22.502 57.2495 24.8274 57.9151 28.4896C57.9292 28.5592 57.9717 28.6149 58 28.6845C58 29.3111 58 29.9377 58 30.5782Z" fill="#2937B4"/>
<path d="M44.5761 9.98388C44.3213 9.95603 44.1797 9.9421 44.0381 9.92818C43.0469 9.81678 42.0556 9.64969 41.0644 9.60791C40.5263 9.59399 40.1015 9.45474 39.6767 9.13448C32.5259 3.88494 21.9624 6.04324 17.5019 13.646C16.5815 15.2056 15.9585 16.8487 15.6186 18.6171C15.5762 18.8538 15.3354 19.1323 15.1089 19.2576C11.7104 21.0956 9.6289 23.8945 8.90673 27.6402C8.60937 29.1997 8.72265 30.7453 9.0625 32.3327C8.07128 32.3606 7.16504 32.1239 6.28711 31.8036C2.26562 30.3276 -0.240723 26.5123 0.02832 22.321C0.283203 18.255 3.31347 14.76 7.44824 13.827C7.85888 13.7296 8.01464 13.5764 8.0996 13.1587C9.2041 7.7281 13.6929 4.02418 19.3286 3.88494C19.9516 3.87101 20.5747 4.01026 21.1836 4.01026C21.4526 4.01026 21.7925 3.94064 21.9765 3.77354C28.8584 -2.64566 39.7617 -0.612682 43.7549 7.8395C44.0664 8.50788 44.2788 9.21803 44.5761 9.98388Z" fill="#2937B4"/>
</g>
<defs>
<clipPath id="clip0_2_125">
<rect width="58" height="38" fill="white"/>
</clipPath>
</defs>
</svg>
