<svg width="50" height="50" viewBox="0 0 50 50" fill="none" xmlns="http://www.w3.org/2000/svg">
<path d="M17.1875 28.125L19.3906 30.3281L23.4375 26.2969V45.3125H26.5625V26.2969L30.6094 30.3281L32.8125 28.125L25 20.3125L17.1875 28.125Z" fill="#737791"/>
<path d="M36.7189 34.3749H35.9376V31.2499H36.7189C38.5837 31.3245 40.4018 30.6552 41.7731 29.3893C43.1445 28.1235 43.9568 26.3647 44.0314 24.4999C44.106 22.6351 43.4367 20.817 42.1709 19.4457C40.905 18.0743 39.1462 17.262 37.2814 17.1874H35.9376L35.7814 15.9061C35.4347 13.2756 34.1437 10.8607 32.1487 9.11141C30.1538 7.3621 27.5909 6.39761 24.9376 6.39761C22.2844 6.39761 19.7215 7.3621 17.7266 9.11141C15.7316 10.8607 14.4405 13.2756 14.0939 15.9061L14.0626 17.1874H12.7189C10.8541 17.262 9.0953 18.0743 7.82943 19.4457C6.56356 20.817 5.8943 22.6351 5.96889 24.4999C6.04349 26.3647 6.85581 28.1235 8.22717 29.3893C9.59853 30.6552 11.4166 31.3245 13.2814 31.2499H14.0626V34.3749H13.2814C10.7758 34.359 8.36447 33.4175 6.51106 31.7313C4.65765 30.0451 3.49298 27.7333 3.24097 25.2403C2.98896 22.7473 3.6674 20.2492 5.14585 18.2262C6.6243 16.2032 8.7984 14.7981 11.2501 14.2811C11.9247 11.1351 13.6577 8.31546 16.16 6.2928C18.6623 4.27013 21.7826 3.16675 25.0001 3.16675C28.2177 3.16675 31.338 4.27013 33.8403 6.2928C36.3426 8.31546 38.0756 11.1351 38.7501 14.2811C41.2019 14.7981 43.376 16.2032 44.8544 18.2262C46.3329 20.2492 47.0113 22.7473 46.7593 25.2403C46.5073 27.7333 45.3426 30.0451 43.4892 31.7313C41.6358 33.4175 39.2245 34.359 36.7189 34.3749Z" fill="#737791"/>
</svg>
