<svg width="50" height="50" viewBox="0 0 50 50" fill="none" xmlns="http://www.w3.org/2000/svg">
<path d="M17.1875 21.875L19.3906 19.6719L23.4375 23.7031V4.6875H26.5625V23.7031L30.6094 19.6719L32.8125 21.875L25 29.6875L17.1875 21.875Z" fill="#737791"/>
<path d="M36.7189 15.6251H35.9376V18.7501H36.7189C38.5837 18.6755 40.4018 19.3448 41.7731 20.6107C43.1445 21.8765 43.9568 23.6353 44.0314 25.5001C44.106 27.3649 43.4367 29.183 42.1709 30.5543C40.905 31.9257 39.1462 32.738 37.2814 32.8126H35.9376L35.7814 34.0939C35.4347 36.7244 34.1437 39.1393 32.1487 40.8886C30.1538 42.6379 27.5909 43.6024 24.9376 43.6024C22.2844 43.6024 19.7215 42.6379 17.7266 40.8886C15.7316 39.1393 14.4405 36.7244 14.0939 34.0939L14.0626 32.8126H12.7189C10.8541 32.738 9.0953 31.9257 7.82943 30.5543C6.56356 29.183 5.8943 27.3649 5.96889 25.5001C6.04349 23.6353 6.85581 21.8765 8.22717 20.6107C9.59853 19.3448 11.4166 18.6755 13.2814 18.7501H14.0626V15.6251H13.2814C10.7758 15.641 8.36447 16.5825 6.51106 18.2687C4.65765 19.9549 3.49298 22.2667 3.24097 24.7597C2.98896 27.2527 3.6674 29.7508 5.14585 31.7738C6.6243 33.7968 8.7984 35.2019 11.2501 35.7189C11.9247 38.8649 13.6577 41.6845 16.16 43.7072C18.6623 45.7299 21.7826 46.8333 25.0001 46.8333C28.2177 46.8333 31.338 45.7299 33.8403 43.7072C36.3426 41.6845 38.0756 38.8649 38.7501 35.7189C41.2019 35.2019 43.376 33.7968 44.8544 31.7738C46.3329 29.7508 47.0113 27.2527 46.7593 24.7597C46.5073 22.2667 45.3426 19.9549 43.4892 18.2687C41.6358 16.5825 39.2245 15.641 36.7189 15.6251Z" fill="#737791"/>
</svg>
