<svg width="49" height="44" viewBox="0 0 49 44" fill="none" xmlns="http://www.w3.org/2000/svg">
<path d="M3.69061 37.4939L5.84489 41.2303C6.29249 42.0169 6.93686 42.6354 7.69378 43.0858L15.4212 37.607L15.4353 29.7411L7.72383 26.2668L7.83581e-06 29.7135C-0.00152341 30.5834 0.221369 31.4538 0.669069 32.2404L3.69061 37.4939Z" fill="#0066DD"/>
<path d="M24.528 14.0414L24.9311 3.79501L16.8343 0.66906C16.0757 1.11676 15.4292 1.73299 14.9787 2.51795L0.678057 27.1889C0.227678 27.9739 0.00153125 28.8435 0 29.7134L15.4353 29.741L24.528 14.0414Z" fill="#00AD3C"/>
<path d="M24.5281 14.0414L31.9454 10.0511L32.2695 0.696631C31.5126 0.246252 30.6429 0.0202012 29.745 0.0185743L19.3613 7.86025e-06C18.4632 -0.00161909 17.5928 0.24941 16.8342 0.669068L24.5281 14.0414Z" fill="#00831E"/>
<path d="M33.5646 29.7735L15.4352 29.7412L7.69379 43.0858C8.4507 43.5362 9.32036 43.7622 10.2183 43.7639L38.7315 43.8148C39.6295 43.8164 40.5 43.5654 41.2585 43.1457L41.2886 34.1822L33.5646 29.7735Z" fill="#0084FF"/>
<path d="M41.2586 43.1458C42.0171 42.6981 42.6637 42.0819 43.114 41.2969L44.0149 39.755L48.322 32.3257C48.7724 31.5407 48.9985 30.6712 49.0001 29.8012L40.0785 25.1068L33.5929 29.7737L41.2586 43.1458Z" fill="#FF4131"/>
<path d="M41.2247 14.9131L34.1185 2.55212C33.6709 1.76544 33.0265 1.14691 32.2695 0.696533L24.528 14.0413L33.5646 29.7734L48.9718 29.801C48.9734 28.9311 48.7504 28.0606 48.3028 27.274L41.2247 14.9131Z" fill="#FFBA00"/>
</svg>
