<svg width="406" height="169" viewBox="0 0 406 169" fill="none" xmlns="http://www.w3.org/2000/svg">
<path d="M342.249 104.033C325.817 82.7986 304.854 65.4976 280.888 53.3908C256.923 41.284 230.558 34.6763 203.716 34.0492C176.873 33.4222 150.228 38.7915 125.724 49.766C101.219 60.7404 79.4714 77.0436 62.0654 97.4875" stroke="#D0D2DA" stroke-dasharray="11 11"/>
<g filter="url(#filter0_d_3146_270)">
<path d="M306.323 22.7508L367.19 42.5279C371.392 43.8932 373.692 48.4064 372.327 52.6085L352.55 113.476C351.184 117.678 346.671 119.978 342.469 118.612L281.601 98.8353C277.399 97.47 275.1 92.9568 276.465 88.7547L296.242 27.8871C297.607 23.6851 302.121 21.3855 306.323 22.7508Z" fill="url(#paint0_linear_3146_270)"/>
</g>
<path fill-rule="evenodd" clip-rule="evenodd" d="M254.208 6.6665C258.918 6.6665 262.75 10.4981 262.75 15.2081C262.75 19.9181 258.918 23.7498 254.208 23.7498C249.498 23.7498 245.667 19.9181 245.667 15.2081C245.667 10.4981 249.498 6.6665 254.208 6.6665ZM254.208 7.9165C250.188 7.9165 246.917 11.1873 246.917 15.2081C246.917 19.229 250.188 22.4998 254.208 22.4998C258.229 22.4998 261.5 19.229 261.5 15.2081C261.5 11.1873 258.229 7.9165 254.208 7.9165ZM253.859 12.301C254.292 12.4818 257.333 14.0393 257.333 15.2043C257.333 16.296 254.597 17.8226 253.897 18.1143C253.625 18.2276 253.314 18.3343 253.023 18.3343C252.798 18.3343 252.585 18.2701 252.411 18.0968C252.277 17.9643 251.918 17.6101 251.917 15.2776C251.916 12.801 252.288 12.4326 252.411 12.3101C252.847 11.8785 253.557 12.1743 253.859 12.301ZM253.278 13.4051C253.131 14.2393 253.128 16.2318 253.276 17.0235C254.007 16.7651 255.592 15.7235 256.019 15.2076C255.594 14.7068 254.029 13.6868 253.278 13.4051Z" fill="#D0D2DA"/>
<mask id="mask0_3146_270" style="mask-type:luminance" maskUnits="userSpaceOnUse" x="149" y="51" width="21" height="22">
<path d="M163.975 51.9997L149 57.6348L154.635 72.6096L169.61 66.9746L163.975 51.9997Z" fill="white"/>
</mask>
<g mask="url(#mask0_3146_270)">
<path fill-rule="evenodd" clip-rule="evenodd" d="M158.19 55.6013C158.216 55.5912 158.244 55.5836 158.271 55.5783L158.356 55.5467C158.484 55.4988 158.625 55.5048 158.748 55.5632L163.147 57.6665C163.263 57.7218 163.354 57.8208 163.4 57.9412L165.552 63.6604C166.152 65.2217 165.414 66.9596 163.87 67.6133L158.867 69.4967L158.799 69.5223C157.257 70.063 155.566 69.288 154.959 67.7883L152.397 60.9797C151.85 59.4181 152.66 57.6903 154.196 57.112L158.113 55.6375C158.137 55.6235 158.163 55.6114 158.19 55.6013ZM158.076 56.7202L154.55 58.0475C153.516 58.4366 152.973 59.597 153.337 60.6388L155.848 67.3119C156.227 68.3895 157.401 68.9529 158.468 68.5784L163.499 66.685C164.525 66.2501 165.024 65.0743 164.617 64.0163L162.686 58.8835L161.432 59.356C160.289 59.7826 159.01 59.201 158.581 58.0604L158.076 56.7202ZM161.033 63.512C161.292 63.4148 161.58 63.5455 161.677 63.8039C161.775 64.0622 161.644 64.3507 161.386 64.4479L158.016 65.7158C157.758 65.813 157.469 65.6823 157.372 65.4239C157.275 65.1656 157.406 64.8771 157.664 64.7799L161.033 63.512ZM158.876 61.6511C159.135 61.5538 159.423 61.6846 159.521 61.9429C159.618 62.2012 159.487 62.4898 159.229 62.587L157.135 63.375C156.876 63.4722 156.588 63.3414 156.491 63.0831C156.393 62.8248 156.524 62.5362 156.783 62.439L158.876 61.6511ZM159.21 56.8927L159.517 57.7082C159.752 58.3347 160.454 58.6532 161.081 58.4196L161.82 58.1405L159.21 56.8927Z" fill="#D0D2DA"/>
</g>
<mask id="mask1_3146_270" style="mask-type:luminance" maskUnits="userSpaceOnUse" x="162" y="0" width="16" height="16">
<path d="M172.894 0.000975966L162 5.0332L167.032 15.9271L177.926 10.8949L172.894 0.000975966Z" fill="white"/>
</mask>
<g mask="url(#mask1_3146_270)">
<path fill-rule="evenodd" clip-rule="evenodd" d="M169.819 2.52276C170.549 2.1856 171.291 2.13853 171.965 2.38733C172.67 2.64692 173.258 3.22618 173.622 4.01822L175.09 7.19366C175.097 7.20551 175.102 7.2177 175.107 7.23016L175.33 7.71533C176.071 9.31809 175.536 10.8719 174.001 11.5812L170.076 13.3941C168.542 14.1028 167.014 13.5018 166.273 11.899L164.565 8.20144C163.825 6.59868 164.358 5.04537 165.892 4.33667L169.819 2.52276ZM172.216 7.38167C171.949 7.50496 171.84 8.09129 171.743 8.60931C171.61 9.32064 171.472 10.0567 170.879 10.3305C170.479 10.5157 170.04 10.531 169.653 10.5438C169.038 10.5646 168.773 10.603 168.632 10.8964C168.348 11.4841 168.214 12.3785 168.162 12.8119C168.646 12.9983 169.199 12.9734 169.762 12.7132L173.686 10.9003C174.832 10.3709 175.21 9.24451 174.649 8.02985L174.482 7.66717L174.466 7.66098C173.88 7.43514 172.881 7.07464 172.216 7.38167ZM170.134 3.20362L166.207 5.01754C165.063 5.54613 164.685 6.67272 165.246 7.88693L166.954 11.5845C167.094 11.888 167.268 12.1433 167.468 12.3473C167.548 11.8293 167.696 11.1091 167.956 10.5706C168.308 9.84047 169.039 9.81474 169.628 9.79447C169.974 9.78259 170.302 9.77124 170.565 9.64962C170.806 9.53808 170.912 8.97154 171.006 8.47154C171.135 7.77509 171.283 6.98638 171.902 6.7008C172.58 6.38739 173.387 6.52048 174.044 6.71893L172.941 4.33228C172.656 3.71318 172.229 3.28386 171.706 3.09095C171.223 2.91269 170.679 2.95159 170.134 3.20362ZM167.318 5.98546C167.968 5.68587 168.74 5.97016 169.041 6.61904C169.341 7.26858 169.057 8.04146 168.407 8.34172C167.757 8.64197 166.984 8.35768 166.684 7.70814C166.384 7.05813 166.668 6.28572 167.318 5.98546ZM167.632 6.66654C167.358 6.79318 167.238 7.119 167.365 7.39362C167.492 7.66778 167.818 7.7877 168.092 7.66085C168.366 7.5342 168.487 7.20817 168.36 6.93446C168.233 6.66006 167.907 6.54035 167.632 6.66654Z" fill="#D0D2DA"/>
</g>
<g filter="url(#filter1_d_3146_270)">
<path d="M99.4692 22.7508L38.6016 42.5279C34.3996 43.8932 32.1 48.4064 33.4653 52.6085L53.2424 113.476C54.6077 117.678 59.1209 119.978 63.323 118.612L124.191 98.8353C128.393 97.47 130.692 92.9567 129.327 88.7547L109.55 27.8871C108.185 23.6851 103.671 21.3855 99.4692 22.7508Z" fill="url(#paint1_linear_3146_270)"/>
<path d="M298.893 76.4203L299.664 80.3566C299.821 81.1832 300.212 81.9342 300.761 82.5805L309.609 80.5704L312.155 73.8559L306.205 68.2233L298.015 68.4988C297.734 69.2414 297.658 70.062 297.815 70.8886L298.893 76.4203Z" fill="#0066DD"/>
<path d="M325.544 63.5898L329.213 54.9762L322.797 49.5081C321.958 49.6284 321.167 49.9314 320.501 50.4463L299.448 66.5799C298.783 67.095 298.295 67.7596 298.014 68.5022L312.153 73.8593L325.544 63.5898Z" fill="#00AD3C"/>
<path d="M325.544 63.5885L333.628 62.7428L336.938 54.8637C336.389 54.2174 335.664 53.7238 334.842 53.4122L325.33 49.8083C324.507 49.4966 323.628 49.4103 322.798 49.5067L325.544 63.5885Z" fill="#00831E"/>
<path d="M328.761 80.1497L312.153 73.8577L300.76 82.5823C301.309 83.2286 302.033 83.7222 302.856 84.0339L328.975 93.9296C329.797 94.2411 330.677 94.328 331.507 94.2314L334.421 86.5846L328.761 80.1497Z" fill="#0084FF"/>
<path d="M331.508 94.2301C332.348 94.1102 333.139 93.8069 333.804 93.2918L335.127 92.2864L341.467 87.4277C342.133 86.9133 342.62 86.2484 342.901 85.5057L336.235 78.4127L328.788 80.1584L331.508 94.2301Z" fill="#FF4131"/>
<path d="M340.569 70.1014L338.036 57.0865C337.879 56.2598 337.487 55.5088 336.938 54.8625L325.545 63.5873L328.762 80.1489L342.876 85.4963C343.158 84.7537 343.233 83.9327 343.076 83.106L340.569 70.1014Z" fill="#FFBA00"/>
</g>
<path d="M247.802 57.0042L241.431 54.7914L240.508 52.8827L236.968 51.6533C236.189 51.3829 235.331 51.7992 235.06 52.5786L234.076 55.4125L248.234 60.3298L248.726 58.9129C248.997 58.1335 248.581 57.2746 247.802 57.0042Z" fill="#A1A5B6"/>
<path d="M247.43 58.8874L236.895 53.1415C236.17 52.7465 235.255 53.0159 234.86 53.7401L231.268 60.3245C230.873 61.0487 231.143 61.9645 231.867 62.3596L242.402 68.1055C243.126 68.5005 244.042 68.2311 244.437 67.5069L248.028 60.9226C248.423 60.1983 248.154 59.2825 247.43 58.8874Z" fill="url(#paint2_linear_3146_270)"/>
<g filter="url(#filter2_d_3146_270)">
<path d="M203 46C209.627 46 215 40.6274 215 34C215 27.3726 209.627 22 203 22C196.373 22 191 27.3726 191 34C191 40.6274 196.373 46 203 46Z" fill="white"/>
</g>
<mask id="mask2_3146_270" style="mask-type:luminance" maskUnits="userSpaceOnUse" x="196" y="28" width="13" height="13">
<path d="M209 28H196V41H209V28Z" fill="white"/>
</mask>
<g mask="url(#mask2_3146_270)">
<path d="M208.647 28.1423C208.903 28.32 209.038 28.6273 208.99 28.9345L207.365 39.497C207.327 39.7433 207.177 39.9591 206.958 40.081C206.74 40.2028 206.478 40.2181 206.247 40.1216L203.211 38.8597L201.471 40.7411C201.245 40.9874 200.89 41.0687 200.578 40.9468C200.265 40.8249 200.062 40.5228 200.062 40.1876V38.065C200.062 37.9634 200.1 37.8669 200.169 37.7933L204.424 33.1493C204.572 32.9894 204.567 32.7431 204.414 32.5907C204.262 32.4384 204.016 32.4282 203.856 32.573L198.691 37.1611L196.449 36.0388C196.18 35.9042 196.007 35.6351 196 35.3355C195.992 35.0359 196.15 34.7566 196.409 34.6068L207.784 28.1068C208.055 27.9519 208.39 27.9671 208.647 28.1423Z" fill="#D0D2DA"/>
</g>
<g clip-path="url(#clip0_3146_270)">
<path d="M79.9145 73.4296L64.6208 69.1284C64.1245 68.9888 63.5961 69.1842 63.3096 69.6132L56.907 79.2009C56.4535 79.8799 56.7961 80.8083 57.5817 81.0291L72.8753 85.3303C73.3717 85.4699 73.9001 85.2745 74.1866 84.8455L80.5892 75.2579C81.0427 74.5788 80.7001 73.6504 79.9145 73.4296Z" fill="#1587EA"/>
<path d="M83.968 74.2073L94.6779 78.4751C95.1572 78.666 95.7031 78.5274 96.0329 78.1311L106.193 65.9172C106.714 65.2898 106.47 64.3308 105.712 64.0286L95.0018 59.7608C94.5225 59.5699 93.9765 59.7085 93.6468 60.1049L83.4872 72.3187C82.9654 72.9461 83.2095 73.9051 83.968 74.2073Z" fill="#1587EA"/>
<path d="M73.8485 53.5731L63.1386 49.3053C62.6593 49.1143 62.1133 49.2529 61.7835 49.6493L51.6239 61.8632C51.1021 62.4906 51.3462 63.4495 52.1048 63.7518L62.8146 68.0196C63.2939 68.2105 63.8399 68.0719 64.1696 67.6755L74.3292 55.4617C74.8511 54.8343 74.607 53.8753 73.8485 53.5731Z" fill="#1587EA"/>
<path d="M100.235 46.7513L84.9412 42.4502C84.4448 42.3106 83.9164 42.506 83.63 42.935L77.2273 52.5226C76.7738 53.2016 77.1163 54.1299 77.9019 54.3509L93.1957 58.652C93.6921 58.7915 94.2205 58.5962 94.507 58.1672L100.91 48.5796C101.363 47.9004 101.02 46.9722 100.235 46.7513Z" fill="#1587EA"/>
<path d="M82.0332 76.143L74.842 86.812C74.5813 87.1987 74.1037 87.3741 73.6551 87.248L70.817 86.4497C69.9896 86.2171 69.2374 86.9963 69.4936 87.8205L69.7512 88.649C69.8643 89.0129 70.1583 89.2918 70.5263 89.3842L87.4962 93.6502C87.8883 93.7488 88.3017 93.6203 88.5688 93.3167L100.129 80.1815C100.38 79.8967 100.464 79.5004 100.351 79.1364L100.121 78.397C99.8647 77.5727 98.8032 77.3573 98.2537 78.0181L96.4789 80.1518C96.1804 80.5107 95.6862 80.6367 95.252 80.4647L83.3257 75.7427C82.8536 75.5558 82.3169 75.722 82.0332 76.143Z" fill="#1587EA"/>
</g>
<defs>
<filter id="filter0_d_3146_270" x="243.071" y="5.35693" width="162.649" height="162.649" filterUnits="userSpaceOnUse" color-interpolation-filters="sRGB">
<feFlood flood-opacity="0" result="BackgroundImageFix"/>
<feColorMatrix in="SourceAlpha" type="matrix" values="0 0 0 0 0 0 0 0 0 0 0 0 0 0 0 0 0 0 127 0" result="hardAlpha"/>
<feOffset dy="16"/>
<feGaussianBlur stdDeviation="16.5"/>
<feComposite in2="hardAlpha" operator="out"/>
<feColorMatrix type="matrix" values="0 0 0 0 0 0 0 0 0 0 0 0 0 0 0 0 0 0 0.08 0"/>
<feBlend mode="normal" in2="BackgroundImageFix" result="effect1_dropShadow_3146_270"/>
<feBlend mode="normal" in="SourceGraphic" in2="effect1_dropShadow_3146_270" result="shape"/>
</filter>
<filter id="filter1_d_3146_270" x="0.0712891" y="5.35693" width="388.667" height="162.649" filterUnits="userSpaceOnUse" color-interpolation-filters="sRGB">
<feFlood flood-opacity="0" result="BackgroundImageFix"/>
<feColorMatrix in="SourceAlpha" type="matrix" values="0 0 0 0 0 0 0 0 0 0 0 0 0 0 0 0 0 0 127 0" result="hardAlpha"/>
<feOffset dy="16"/>
<feGaussianBlur stdDeviation="16.5"/>
<feComposite in2="hardAlpha" operator="out"/>
<feColorMatrix type="matrix" values="0 0 0 0 0 0 0 0 0 0 0 0 0 0 0 0 0 0 0.08 0"/>
<feBlend mode="normal" in2="BackgroundImageFix" result="effect1_dropShadow_3146_270"/>
<feBlend mode="normal" in="SourceGraphic" in2="effect1_dropShadow_3146_270" result="shape"/>
</filter>
<filter id="filter2_d_3146_270" x="181" y="18" width="44" height="44" filterUnits="userSpaceOnUse" color-interpolation-filters="sRGB">
<feFlood flood-opacity="0" result="BackgroundImageFix"/>
<feColorMatrix in="SourceAlpha" type="matrix" values="0 0 0 0 0 0 0 0 0 0 0 0 0 0 0 0 0 0 127 0" result="hardAlpha"/>
<feOffset dy="6"/>
<feGaussianBlur stdDeviation="5"/>
<feComposite in2="hardAlpha" operator="out"/>
<feColorMatrix type="matrix" values="0 0 0 0 0.372396 0 0 0 0 0.475177 0 0 0 0 0.595833 0 0 0 0.17 0"/>
<feBlend mode="normal" in2="BackgroundImageFix" result="effect1_dropShadow_3146_270"/>
<feBlend mode="normal" in="SourceGraphic" in2="effect1_dropShadow_3146_270" result="shape"/>
</filter>
<linearGradient id="paint0_linear_3146_270" x1="356.269" y1="81.0378" x2="289.952" y2="59.4902" gradientUnits="userSpaceOnUse">
<stop stop-color="white"/>
<stop offset="1" stop-color="white"/>
</linearGradient>
<linearGradient id="paint1_linear_3146_270" x1="49.5229" y1="81.0378" x2="115.839" y2="59.4903" gradientUnits="userSpaceOnUse">
<stop stop-color="white"/>
<stop offset="1" stop-color="white"/>
</linearGradient>
<linearGradient id="paint2_linear_3146_270" x1="242.162" y1="56.0145" x2="237.135" y2="65.2325" gradientUnits="userSpaceOnUse">
<stop stop-color="#D7DCF4"/>
<stop offset="1" stop-color="#D0D2DA"/>
</linearGradient>
<clipPath id="clip0_3146_270">
<rect width="53" height="50" fill="white" transform="translate(48 53.7334) rotate(-17.269)"/>
</clipPath>
</defs>
</svg>
