<svg width="52" height="49" viewBox="0 0 52 49" fill="none" xmlns="http://www.w3.org/2000/svg">
<path d="M23.7918 27.7166L10.6508 19.2423C10.2243 18.9672 9.66955 18.9964 9.27425 19.3145L0.439382 26.4242C-0.186349 26.9277 -0.135562 27.8961 0.539466 28.3314L13.6805 36.8057C14.107 37.0807 14.6618 37.0516 15.057 36.7335L23.8919 29.6239C24.5176 29.1203 24.4669 28.1519 23.7918 27.7166Z" fill="#1587EA"/>
<path d="M27.3809 29.6238L36.2158 36.7334C36.6112 37.0515 37.1658 37.0806 37.5923 36.8056L50.7334 28.3313C51.4084 27.896 51.4592 26.9276 50.8335 26.4241L41.9986 19.3145C41.6032 18.9964 41.0485 18.9672 40.622 19.2423L27.481 27.7166C26.8061 28.1519 26.7552 29.1203 27.3809 29.6238Z" fill="#1587EA"/>
<path d="M23.8919 7.36975L15.057 0.260175C14.6616 -0.0579645 14.107 -0.0870842 13.6805 0.187948L0.539466 8.66226C-0.135562 9.09756 -0.186349 10.066 0.439382 10.5695L9.27425 17.6791C9.66966 17.9972 10.2243 18.0263 10.6508 17.7513L23.7918 9.27698C24.4669 8.84168 24.5176 7.87327 23.8919 7.36975Z" fill="#1587EA"/>
<path d="M50.7333 8.66226L37.5923 0.187948C37.1658 -0.0870842 36.611 -0.0579645 36.2157 0.260175L27.3809 7.36975C26.7552 7.87327 26.8059 8.84168 27.481 9.27698L40.6221 17.7513C41.0486 18.0263 41.6034 17.9972 41.9987 17.6791L50.8335 10.5695C51.4591 10.0659 51.4083 9.09745 50.7333 8.66226Z" fill="#1587EA"/>
<path d="M24.9925 30.8721L15.0987 38.7643C14.7401 39.0504 14.239 39.0756 13.8535 38.8271L11.4149 37.2544C10.704 36.7959 9.7677 37.3063 9.7677 38.1521V39.0023C9.7677 39.3759 9.96283 39.7223 10.2822 39.916L25.0119 48.8449C25.3523 49.0513 25.7791 49.0513 26.1195 48.8449L40.8491 39.916C41.1685 39.7223 41.3636 39.376 41.3636 39.0023V38.2435C41.3636 37.3977 40.4272 36.8873 39.7164 37.3457L37.4208 38.8261C37.0347 39.0751 36.5325 39.0494 36.1739 38.7621L26.3267 30.8735C25.9369 30.5613 25.3829 30.5607 24.9925 30.8721Z" fill="#1587EA"/>
</svg>
