<svg width="62" height="40" viewBox="0 0 62 40" fill="none" xmlns="http://www.w3.org/2000/svg">
<g clip-path="url(#clip0_1343_2635)">
<path d="M35.2803 0.577887C32.3423 0.583822 29.4587 1.37166 26.9258 2.8605C24.3929 4.34934 22.3019 6.48552 20.8675 9.04968C19.6329 8.44847 18.278 8.1351 16.9048 8.13317C14.7525 8.13883 12.6722 8.90884 11.0349 10.3059C9.39755 11.7029 8.30972 13.6361 7.96538 15.7607C5.69187 16.7126 3.75042 18.3153 2.38495 20.3672C1.01948 22.4192 0.290906 24.8289 0.290771 27.2937C0.293979 30.6089 1.6136 33.7871 3.95951 36.1296C6.30542 38.4721 9.48557 39.7871 12.8008 39.7855C13.3254 39.7808 13.8492 39.743 14.3691 39.6725H49.1291C49.3116 39.6857 49.4945 39.6945 49.6774 39.699C49.8518 39.6941 50.026 39.6853 50.1999 39.6725H51.0324V39.6106C53.8626 39.2759 56.4722 37.9095 58.3665 35.7705C60.2609 33.6314 61.3083 30.8683 61.3103 28.0051V27.9826C61.3038 25.2633 60.3542 22.6313 58.6249 20.5394C56.8957 18.4475 54.4949 17.0266 51.8356 16.521C51.6777 12.237 49.8639 8.18139 46.7761 5.20773C43.6883 2.23408 39.5672 0.574345 35.2803 0.577887Z" fill="url(#paint0_linear_1343_2635)"/>
</g>
<defs>
<linearGradient id="paint0_linear_1343_2635" x1="61.4956" y1="28.0368" x2="0.268234" y2="27.1922" gradientUnits="userSpaceOnUse">
<stop stop-color="#3E82F4"/>
<stop offset="1" stop-color="#93DCF7"/>
</linearGradient>
<clipPath id="clip0_1343_2635">
<rect width="61.5385" height="40" fill="white"/>
</clipPath>
</defs>
</svg>
