<svg width="100" height="40" viewBox="0 0 100 40" fill="none" xmlns="http://www.w3.org/2000/svg">
<path d="M12.0402 25.2568C11.0495 24.7331 9.7959 24.4713 8.27951 24.4713C7.06639 24.4713 5.94426 24.7633 4.91312 25.3474C3.90219 25.9315 3.08333 26.7472 2.45656 27.7946C1.82978 28.8218 1.51639 30.0302 1.51639 31.4199C1.51639 32.6888 1.78934 33.8369 2.33525 34.8641C2.88115 35.8711 3.66967 36.6767 4.70082 37.281C5.75219 37.8651 7.00574 38.1571 8.46148 38.1571C9.18935 38.1571 9.86667 38.0866 10.4934 37.9456C11.1404 37.8046 11.7167 37.6032 12.2221 37.3414C12.3232 37.281 12.4344 37.2508 12.5557 37.2508C12.7781 37.2508 12.9601 37.3213 13.1016 37.4622C13.2432 37.6032 13.3139 37.7845 13.3139 38.006C13.3139 38.3283 13.1724 38.5499 12.8893 38.6707C12.2828 38.993 11.6055 39.2346 10.8574 39.3958C10.1093 39.577 9.31066 39.6677 8.46148 39.6677C6.68224 39.6677 5.15574 39.3051 3.88197 38.5801C2.62842 37.855 1.66803 36.8681 1.00082 35.6193C0.333607 34.3706 0 32.9708 0 31.4199C0 29.7281 0.384153 28.2477 1.15246 26.9789C1.92077 25.71 2.93169 24.7231 4.18525 24.0181C5.4388 23.3132 6.80355 22.9607 8.27951 22.9607C10.0992 22.9607 11.5954 23.283 12.768 23.9275C13.0309 24.0886 13.1623 24.3102 13.1623 24.5921C13.1623 24.7734 13.0915 24.9446 12.95 25.1057C12.8085 25.2669 12.6265 25.3474 12.4041 25.3474C12.2828 25.3474 12.1615 25.3172 12.0402 25.2568Z" fill="white"/>
<path d="M63.1931 39.4562C63.0111 39.4562 62.8494 39.3958 62.7078 39.2749C62.5663 39.1541 62.4753 38.993 62.4349 38.7915C62.2934 37.6435 62.1114 36.3444 61.889 34.8943C61.6666 33.4441 61.424 31.9436 61.1611 30.3927C60.8983 28.8419 60.6253 27.3414 60.3423 25.8912C59.6751 27.2407 58.9876 28.6506 58.28 30.1208C57.5925 31.571 56.9354 33.001 56.3087 34.4109C55.6819 35.8207 55.1158 37.14 54.6103 38.3686C54.4688 38.711 54.2464 38.8822 53.9431 38.8822C53.5792 38.8822 53.3365 38.7412 53.2152 38.4592C52.6289 37.2105 51.9819 35.861 51.2742 34.4109C50.5666 32.9406 49.8589 31.4703 49.1513 30C48.4639 28.5297 47.8169 27.1702 47.2103 25.9215C47.0486 26.9889 46.8767 28.1168 46.6947 29.3051C46.533 30.4935 46.3712 31.6717 46.2095 32.8399C46.068 34.0081 45.9264 35.1057 45.7849 36.1329C45.6636 37.1601 45.5625 38.0463 45.4816 38.7915C45.4614 38.9728 45.3704 39.1339 45.2087 39.2749C45.0671 39.3958 44.8953 39.4562 44.6931 39.4562C44.4909 39.4562 44.3191 39.3857 44.1775 39.2447C44.036 39.0836 43.9652 38.8922 43.9652 38.6707C43.9652 38.6304 43.9956 38.3384 44.0562 37.7946C44.1371 37.1299 44.2483 36.2236 44.3898 35.0755C44.5313 33.9275 44.6931 32.6788 44.8751 31.3293C45.057 29.9597 45.2491 28.6002 45.4513 27.2508C45.6535 25.9013 45.8456 24.6828 46.0275 23.5952C46.068 23.4139 46.1589 23.2628 46.3005 23.142C46.4622 23.0211 46.6341 22.9607 46.816 22.9607C47.0587 22.9607 47.2406 23.0413 47.3619 23.2024C47.5641 23.4038 47.7259 23.6455 47.8472 23.9275C48.4133 25.0554 49.03 26.3243 49.6972 27.7341C50.3846 29.1239 51.0923 30.5539 51.8201 32.0242C52.548 33.4945 53.2354 34.9043 53.8824 36.2538C54.4688 34.9245 55.0956 33.5146 55.7628 32.0242C56.4502 30.5136 57.1477 29.0131 57.8554 27.5227C58.5833 26.0121 59.2909 24.6123 59.9783 23.3233C60.1401 23.0614 60.3726 22.9305 60.6759 22.9305C60.8578 22.9305 61.0297 22.9909 61.1915 23.1118C61.3532 23.2125 61.4442 23.3535 61.4644 23.5347C61.707 24.7231 61.9395 25.9919 62.1619 27.3414C62.4046 28.6707 62.627 29.9497 62.8292 31.1783C63.0313 32.4069 63.1931 33.4844 63.3144 34.4109C63.4559 35.3172 63.557 35.9416 63.6177 36.284C63.7794 37.2709 63.8704 37.9053 63.8906 38.1873C63.9311 38.4693 63.9513 38.6405 63.9513 38.7009C63.9513 38.9023 63.8805 39.0836 63.739 39.2447C63.5975 39.3857 63.4155 39.4562 63.1931 39.4562Z" fill="white"/>
<path d="M70.1477 39.3958C69.9455 39.3958 69.7635 39.3253 69.6018 39.1843C69.4602 39.0232 69.3895 38.8419 69.3895 38.6405V23.9879C69.3895 23.7664 69.4602 23.5851 69.6018 23.4441C69.7635 23.3031 69.9455 23.2326 70.1477 23.2326H74.3632C75.2528 23.2326 76.0009 23.3635 76.6075 23.6254C77.214 23.8872 77.7094 24.1994 78.0936 24.5619C78.4373 24.9043 78.7102 25.3374 78.9124 25.861C79.1146 26.3646 79.2157 26.858 79.2157 27.3414C79.2157 27.8852 79.1146 28.4089 78.9124 28.9124C78.7102 29.3958 78.4373 29.8087 78.0936 30.1511C78.0329 30.2115 77.9621 30.282 77.8813 30.3625C77.8206 30.423 77.7397 30.4834 77.6386 30.5438C78.3261 30.8258 78.8922 31.1883 79.337 31.6314C80.2266 32.5176 80.6714 33.575 80.6714 34.8036C80.6714 35.3474 80.5703 35.8912 80.3681 36.435C80.166 36.9587 79.8526 37.432 79.428 37.855C78.9832 38.2981 78.3968 38.6707 77.669 38.9728C76.9411 39.2548 76.0009 39.3958 74.8485 39.3958H70.1477ZM74.6362 30.0302C75.1619 29.9899 75.6269 29.8792 76.0313 29.6979C76.4559 29.4965 76.7794 29.285 77.0018 29.0634C77.4668 28.6405 77.6993 28.0665 77.6993 27.3414C77.6993 26.6767 77.4668 26.1128 77.0018 25.6495C76.7389 25.3676 76.3851 25.146 75.9403 24.9849C75.5157 24.8238 74.99 24.7432 74.3632 24.7432H70.9059V30.0302H74.6362ZM70.9059 31.5408V37.8852H74.8485C75.7381 37.8852 76.4559 37.7845 77.0018 37.5831C77.5679 37.3817 78.0127 37.1098 78.3362 36.7674C78.8821 36.2236 79.155 35.569 79.155 34.8036C79.155 34.0181 78.8518 33.3233 78.2452 32.719C77.4567 31.9335 76.3548 31.5408 74.9395 31.5408H70.9059Z" fill="white"/>
<path d="M92.2057 22.9607C93.6413 22.9607 94.9453 23.3132 96.118 24.0181C97.3109 24.7231 98.2511 25.71 98.9385 26.9789C99.6462 28.2276 100 29.6777 100 31.3293C100 32.9003 99.6866 34.3202 99.0598 35.5891C98.4533 36.8379 97.5637 37.8348 96.391 38.5801C95.2385 39.3051 93.8434 39.6677 92.2057 39.6677C90.6691 39.6677 89.3044 39.3051 88.1115 38.5801C86.9186 37.8348 85.9784 36.8379 85.291 35.5891C84.6238 34.3404 84.2902 32.9507 84.2902 31.4199C84.2902 29.7281 84.6238 28.2477 85.291 26.9789C85.9582 25.71 86.8781 24.7231 88.0508 24.0181C89.2437 23.3132 90.6287 22.9607 92.2057 22.9607ZM92.2057 24.4713C90.932 24.4713 89.8098 24.7734 88.8393 25.3776C87.8891 25.9617 87.141 26.7774 86.5951 27.8248C86.0694 28.852 85.8066 30.0504 85.8066 31.4199C85.8066 32.6485 86.0694 33.7764 86.5951 34.8036C87.141 35.8308 87.8992 36.6465 88.8697 37.2508C89.8402 37.855 90.9522 38.1571 92.2057 38.1571C93.5402 38.1571 94.6724 37.855 95.6025 37.2508C96.5527 36.6465 97.2705 35.8308 97.7557 34.8036C98.241 33.7563 98.4836 32.5982 98.4836 31.3293C98.4836 30 98.2005 28.8218 97.6344 27.7946C97.0885 26.7674 96.3404 25.9617 95.3902 25.3776C94.4399 24.7734 93.3784 24.4713 92.2057 24.4713Z" fill="white"/>
<path d="M16.8926 2.29607C15.9019 1.77241 14.6484 1.51057 13.132 1.51057C11.9189 1.51057 10.7967 1.80262 9.76557 2.38671C8.75465 2.9708 7.93579 3.78651 7.30902 4.83384C6.68224 5.86103 6.36885 7.06949 6.36885 8.45922C6.36885 9.7281 6.6418 10.8761 7.18771 11.9033C7.73361 12.9104 8.52213 13.716 9.55328 14.3202C10.6046 14.9043 11.8582 15.1964 13.3139 15.1964C14.0418 15.1964 14.7191 15.1259 15.3459 14.9849C15.9929 14.8439 16.5691 14.6425 17.0746 14.3807C17.1757 14.3202 17.2869 14.29 17.4082 14.29C17.6306 14.29 17.8126 14.3605 17.9541 14.5015C18.0956 14.6425 18.1664 14.8238 18.1664 15.0453C18.1664 15.3676 18.0249 15.5891 17.7418 15.71C17.1352 16.0322 16.4579 16.2739 15.7098 16.435C14.9618 16.6163 14.1631 16.707 13.3139 16.707C11.5347 16.707 10.0082 16.3444 8.73443 15.6193C7.48088 14.8943 6.52049 13.9074 5.85328 12.6586C5.18607 11.4099 4.85246 10.0101 4.85246 8.45922C4.85246 6.76737 5.23661 5.28701 6.00492 4.01813C6.77323 2.74924 7.78415 1.76234 9.03771 1.0574C10.2913 0.352468 11.656 0 13.132 0C14.9516 0 16.4478 0.322256 17.6205 0.966768C17.8833 1.1279 18.0148 1.34945 18.0148 1.63142C18.0148 1.81269 17.944 1.98389 17.8025 2.14502C17.6609 2.30614 17.479 2.38671 17.2566 2.38671C17.1352 2.38671 17.0139 2.3565 16.8926 2.29607Z" fill="white"/>
<path d="M23.9107 16.435C23.7085 16.435 23.5265 16.3646 23.3648 16.2236C23.2233 16.0624 23.1525 15.8812 23.1525 15.6798V1.02719C23.1525 0.805639 23.2233 0.624371 23.3648 0.483385C23.5265 0.342397 23.7085 0.271903 23.9107 0.271903C24.1331 0.271903 24.3151 0.342397 24.4566 0.483385C24.5981 0.624371 24.6689 0.805639 24.6689 1.02719V14.9245H32.1295C32.3519 14.9245 32.5339 14.995 32.6754 15.136C32.817 15.2769 32.8877 15.4582 32.8877 15.6798C32.8877 15.8812 32.817 16.0624 32.6754 16.2236C32.5339 16.3646 32.3519 16.435 32.1295 16.435H23.9107Z" fill="white"/>
<path d="M43.5698 0C45.0053 0 46.3094 0.352468 47.4821 1.0574C48.675 1.76234 49.6151 2.74924 50.3026 4.01813C51.0102 5.26687 51.364 6.71702 51.364 8.36858C51.364 9.93958 51.0507 11.3595 50.4239 12.6284C49.8173 13.8771 48.9277 14.8741 47.755 15.6193C46.6026 16.3444 45.2075 16.707 43.5698 16.707C42.0332 16.707 40.6684 16.3444 39.4755 15.6193C38.2826 14.8741 37.3425 13.8771 36.655 12.6284C35.9878 11.3797 35.6542 9.98993 35.6542 8.45922C35.6542 6.76737 35.9878 5.28701 36.655 4.01813C37.3222 2.74924 38.2422 1.76234 39.4149 1.0574C40.6078 0.352468 41.9927 0 43.5698 0ZM43.5698 1.51057C42.296 1.51057 41.1739 1.81269 40.2034 2.41692C39.2531 3.00101 38.505 3.81672 37.9591 4.86405C37.4334 5.89124 37.1706 7.08963 37.1706 8.45922C37.1706 9.68782 37.4334 10.8157 37.9591 11.8429C38.505 12.8701 39.2632 13.6858 40.2337 14.29C41.2042 14.8943 42.3162 15.1964 43.5698 15.1964C44.9042 15.1964 46.0364 14.8943 46.9665 14.29C47.9168 13.6858 48.6345 12.8701 49.1198 11.8429C49.605 10.7956 49.8476 9.63746 49.8476 8.36858C49.8476 7.03928 49.5646 5.86103 48.9985 4.83384C48.4526 3.80665 47.7045 3.00101 46.7542 2.41692C45.8039 1.81269 44.7425 1.51057 43.5698 1.51057Z" fill="white"/>
<path d="M57.328 9.96979C57.328 11.6415 57.8031 12.9305 58.7534 13.8369C59.7239 14.7432 60.9673 15.1964 62.4837 15.1964C64.1619 15.1964 65.4558 14.7432 66.3657 13.8369C67.2957 12.9104 67.7608 11.5911 67.7608 9.87915V1.02719C67.7608 0.805639 67.8315 0.624371 67.9731 0.483385C68.1348 0.342397 68.3168 0.271903 68.519 0.271903C68.7414 0.271903 68.9233 0.342397 69.0649 0.483385C69.2064 0.624371 69.2772 0.805639 69.2772 1.02719V9.87915C69.2772 12.0745 68.6807 13.7664 67.4878 14.9547C66.3151 16.1229 64.6471 16.707 62.4837 16.707C60.5225 16.707 58.9151 16.1229 57.6616 14.9547C56.4282 13.7865 55.8116 12.1249 55.8116 9.96979V1.02719C55.8116 0.805639 55.8823 0.624371 56.0239 0.483385C56.1856 0.342397 56.3676 0.271903 56.5698 0.271903C56.7922 0.271903 56.9741 0.342397 57.1157 0.483385C57.2572 0.624371 57.328 0.805639 57.328 1.02719V9.96979Z" fill="white"/>
<path d="M75.6221 16.435C75.4199 16.435 75.2379 16.3646 75.0762 16.2236C74.9346 16.0624 74.8639 15.8812 74.8639 15.6798V1.02719C74.8639 0.805639 74.9346 0.624371 75.0762 0.483385C75.2379 0.342397 75.4199 0.271903 75.6221 0.271903H80.9598C82.2942 0.271903 83.5376 0.6143 84.6901 1.29909C85.8628 1.98389 86.8029 2.93051 87.5106 4.13897C88.2385 5.34743 88.6024 6.74723 88.6024 8.33837C88.6024 9.84894 88.2789 11.2185 87.6319 12.4471C87.0051 13.6556 86.1155 14.6224 84.9631 15.3474C83.8308 16.0725 82.4964 16.435 80.9598 16.435H75.6221ZM76.3803 1.78248V14.9245H80.9598C82.2133 14.9245 83.295 14.6324 84.2049 14.0483C85.1349 13.4441 85.8426 12.6485 86.3278 11.6616C86.8333 10.6546 87.086 9.54683 87.086 8.33837C87.086 7.06949 86.803 5.94159 86.2368 4.95468C85.6707 3.96777 84.9226 3.19235 83.9926 2.6284C83.0625 2.06445 82.0516 1.78248 80.9598 1.78248H76.3803Z" fill="white"/>
<path d="M20.5271 31.5408H19.3795C19.3797 29.7844 19.9285 28.0717 20.9499 26.6401C21.9713 25.2086 23.4146 24.1292 25.0796 23.5518C26.7445 22.9744 28.5486 22.9276 30.2415 23.4178C31.9344 23.908 33.4322 24.911 34.5271 26.2876V25.0243H35.6746V29.0257H31.6582V27.8824H34.2314C33.5862 26.7707 32.659 25.8476 31.5427 25.2055C30.4264 24.5634 29.1603 24.2249 27.8713 24.2241C23.8216 24.2241 20.5271 27.5063 20.5271 31.5408ZM35.2156 31.5408C35.2156 35.5753 31.921 38.8575 27.8713 38.8575C26.5823 38.8567 25.3162 38.5182 24.2 37.8761C23.0837 37.234 22.1565 36.3108 21.5113 35.1991H24.0844V34.0559H20.068V38.0572H21.2156V36.794C22.3104 38.1706 23.8082 39.1736 25.5011 39.6638C27.194 40.154 28.9981 40.1072 30.663 39.5298C32.328 38.9523 33.7713 37.873 34.7927 36.4414C35.8141 35.0099 36.363 33.2971 36.3631 31.5408H35.2156Z" fill="white"/>
</svg>
