<svg width="24" height="24" viewBox="0 0 24 24" fill="none" xmlns="http://www.w3.org/2000/svg">
<path d="M23.25 12C23.2548 13.7858 22.6754 15.5242 21.6 16.95C21.5302 17.0431 21.4396 17.1187 21.3355 17.1708C21.2313 17.2229 21.1165 17.25 21 17.25C20.8374 17.2521 20.6789 17.1992 20.55 17.1C20.393 16.9791 20.2894 16.8017 20.2614 16.6055C20.2333 16.4093 20.2831 16.21 20.4 16.05C21.0418 15.1943 21.471 14.1984 21.6523 13.1444C21.8337 12.0903 21.7619 11.0082 21.443 9.98734C21.1241 8.96644 20.5672 8.03594 19.8181 7.27251C19.069 6.50908 18.1493 5.93458 17.1346 5.59636C16.1199 5.25814 15.0394 5.16588 13.9821 5.32717C12.9248 5.48847 11.9209 5.89871 11.0533 6.52409C10.1856 7.14947 9.47896 7.97208 8.99158 8.92413C8.50421 9.87618 8.25005 10.9304 8.25005 12C8.25005 12.1989 8.17103 12.3897 8.03038 12.5303C7.88973 12.671 7.69896 12.75 7.50005 12.75C7.30114 12.75 7.11037 12.671 6.96972 12.5303C6.82907 12.3897 6.75005 12.1989 6.75005 12C6.747 11.2422 6.85116 10.4879 7.05942 9.75935H6.75005C5.55657 9.75935 4.41198 10.2335 3.56807 11.0774C2.72415 11.9213 2.25005 13.0659 2.25005 14.2593C2.25005 15.4528 2.72415 16.5974 3.56807 17.4413C4.41198 18.2852 5.55657 18.7593 6.75005 18.7593H9.00005C9.19896 18.7593 9.38973 18.8384 9.53038 18.979C9.67103 19.1197 9.75005 19.3104 9.75005 19.5093C9.75005 19.7083 9.67103 19.899 9.53038 20.0397C9.38973 20.1803 9.19896 20.2593 9.00005 20.2593H6.75005C5.15751 20.2593 3.63019 19.6267 2.50409 18.5006C1.378 17.3745 0.745361 15.8472 0.745361 14.2547C0.745361 12.6621 1.378 11.1348 2.50409 10.0087C3.63019 8.88261 5.15751 8.24997 6.75005 8.24997C7.04196 8.24849 7.33352 8.27044 7.62192 8.3156C8.45312 6.65422 9.82071 5.32199 11.5033 4.53461C13.1859 3.74722 15.085 3.55076 16.8931 3.97703C18.7013 4.40331 20.3126 5.42736 21.4663 6.88341C22.62 8.33946 23.2485 10.1423 23.25 12ZM14.7844 11.4656C14.6422 11.3248 14.4502 11.2458 14.25 11.2458C14.0499 11.2458 13.8579 11.3248 13.7157 11.4656L10.5375 14.6531C10.4083 14.7958 10.3388 14.9827 10.3436 15.1751C10.3483 15.3676 10.4269 15.5509 10.563 15.687C10.6991 15.8232 10.8824 15.9017 11.0749 15.9065C11.2673 15.9112 11.4543 15.8417 11.5969 15.7125L13.5 13.8094V19.5C13.5 19.6989 13.5791 19.8897 13.7197 20.0303C13.8604 20.171 14.0511 20.25 14.25 20.25C14.449 20.25 14.6397 20.171 14.7804 20.0303C14.921 19.8897 15 19.6989 15 19.5V13.8094L16.9032 15.7125C16.9712 15.7825 17.053 15.8377 17.1433 15.8748C17.2336 15.9119 17.3306 15.93 17.4282 15.9281C17.5272 15.9302 17.6256 15.9122 17.7175 15.8751C17.8094 15.8381 17.8927 15.7827 17.9625 15.7125C18.1028 15.5719 18.1816 15.3814 18.1816 15.1828C18.1816 14.9842 18.1028 14.7937 17.9625 14.6531L14.7844 11.4656Z" fill="#2D3845"/>
</svg>
