<svg width="51" height="51" viewBox="0 0 51 51" fill="none" xmlns="http://www.w3.org/2000/svg">
<g clip-path="url(#clip0_2_91)">
<path d="M25.5 0.917266C25.5 8.01079 25.5 15.1043 25.5 22.2101L25.5122 22.2468C25.3777 22.1245 25.2432 22.0144 25.1209 21.8799C23.1518 19.9108 21.1827 17.9295 19.2014 15.9727C19.0302 15.8014 18.7367 15.6791 18.4921 15.6791C17.2079 15.6547 15.9115 15.6669 14.6273 15.6669C14.1137 15.6669 13.5878 15.6669 13.0619 15.6669C13.0619 22.5403 13.0619 29.3647 13.0619 36.177C15.0187 36.177 16.9511 36.177 18.9324 36.177C18.9324 32.1288 18.9324 28.1173 18.9324 24.1058C18.9813 24.0691 19.0425 24.0324 19.0914 23.9957C19.1892 24.1424 19.2626 24.3137 19.3849 24.436C21.305 26.3683 23.2252 28.2885 25.1576 30.2086C25.2676 30.3187 25.4022 30.4043 25.5245 30.5022L25.5122 30.5511C25.5122 37.3633 25.5122 44.1755 25.5122 50.9878C24.8274 50.9878 24.1425 50.9878 23.4576 50.9878C23.3597 50.9511 23.2619 50.9022 23.164 50.8899C22.2345 50.7432 21.2928 50.6576 20.3633 50.4619C15.1655 49.3489 10.6892 46.8784 7.13022 42.9281C1.40648 36.605 -0.684891 29.1691 1.00288 20.8281C2.5072 13.4165 6.73885 7.83957 13.3065 4.07266C17.0612 1.93237 21.1461 0.905036 25.5 0.917266Z" fill="#FE0021"/>
<path d="M25.5 51C39.5833 51 51 39.5833 51 25.5C51 11.4167 39.5833 0 25.5 0C11.4167 0 0 11.4167 0 25.5C0 39.5833 11.4167 51 25.5 51Z" fill="url(#paint0_linear_2_91)"/>
<path d="M25.4878 22.2101C25.6101 22.1122 25.7446 22.0266 25.8547 21.9165C27.836 19.9353 29.8173 17.954 31.8108 15.9727C31.9453 15.8381 32.1532 15.6914 32.3245 15.6914C34.1834 15.6669 36.0424 15.6791 37.9259 15.6791C37.9259 22.5158 37.9259 29.3403 37.9259 36.1892C35.9935 36.1892 34.0734 36.1892 32.1043 36.1892C32.1043 32.1655 32.1043 28.154 32.1043 23.9835C29.8417 26.2338 27.6647 28.3986 25.4878 30.5633L25.5 30.5144C25.5 27.7626 25.5 24.9986 25.5 22.2468L25.4878 22.2101Z" fill="#FEFBFC"/>
<path d="M25.5 22.2468C25.5 24.9986 25.5 27.7626 25.5 30.5144C25.3777 30.4165 25.2432 30.3309 25.1331 30.2209C23.2007 28.3007 21.2806 26.3683 19.3604 24.4482C19.2381 24.3259 19.1647 24.1547 19.0669 24.0079C19.018 24.0446 18.9568 24.0813 18.9079 24.118C18.9079 28.1295 18.9079 32.141 18.9079 36.1892C16.9266 36.1892 14.9942 36.1892 13.0374 36.1892C13.0374 29.3647 13.0374 22.5403 13.0374 15.6791C13.5755 15.6791 14.0892 15.6791 14.6029 15.6791C15.887 15.6791 17.1834 15.6669 18.4676 15.6914C18.7122 15.6914 19.0057 15.8137 19.177 15.9849C21.1583 17.9417 23.1273 19.923 25.0964 21.8921C25.2309 22.0144 25.3655 22.1245 25.5 22.2468Z" fill="#FEFBFC"/>
</g>
<defs>
<linearGradient id="paint0_linear_2_91" x1="0" y1="25.498" x2="50.9961" y2="25.498" gradientUnits="userSpaceOnUse">
<stop stop-color="#F24159"/>
<stop offset="1" stop-color="#FE0021"/>
</linearGradient>
<clipPath id="clip0_2_91">
<rect width="51" height="51" fill="white"/>
</clipPath>
</defs>
</svg>
