<svg width="64" height="64" viewBox="0 0 18 18" fill="none" xmlns="http://www.w3.org/2000/svg">
<g clip-path="url(#clip0_1397_577)">
<path d="M10.5 5.25001V0.345001C11.1938 0.607002 11.824 1.01348 12.3487 1.5375L14.9617 4.15201C15.4864 4.67617 15.8932 5.30617 16.155 5.99999H11.25C11.0511 5.99999 10.8603 5.92099 10.7197 5.78032C10.579 5.63966 10.5 5.44893 10.5 5.25001ZM16.482 7.50001H11.25C10.6533 7.50001 10.081 7.26293 9.65901 6.84098C9.23706 6.41903 8.99999 5.84673 8.99999 5.25001V0.018C8.87925 0.00975001 8.75849 0 8.63625 0H5.25C4.25581 0.00119089 3.30266 0.396661 2.59967 1.09967C1.89666 1.80267 1.50119 2.7558 1.5 3.74999V14.25C1.50119 15.2442 1.89666 16.1973 2.59967 16.9003C3.30266 17.6033 4.25581 17.9988 5.25 18H12.75C13.7442 17.9988 14.6973 17.6033 15.4003 16.9003C16.1033 16.1973 16.4988 15.2442 16.5 14.25V7.86374C16.5 7.7415 16.4902 7.62074 16.482 7.50001ZM10.5 10.5H9.75V13.875C9.75 14.2459 9.64003 14.6083 9.43401 14.9167C9.22796 15.225 8.93515 15.4654 8.59253 15.6073C8.24991 15.7492 7.87292 15.7863 7.50919 15.714C7.14549 15.6416 6.81141 15.463 6.54917 15.2008C6.28696 14.9386 6.10837 14.6045 6.03604 14.2408C5.96368 13.8771 6.00082 13.5001 6.14273 13.1575C6.28464 12.8149 6.52495 12.522 6.83331 12.316C7.14166 12.11 7.50415 12 7.87502 12C8.00092 12.0002 8.12653 12.0128 8.25001 12.0375V10.5C8.25001 10.1022 8.40805 9.72065 8.68934 9.43933C8.97066 9.15804 9.35216 9 9.75 9H10.5C10.6989 9 10.8897 9.079 11.0303 9.21966C11.171 9.36033 11.25 9.55109 11.25 9.75001C11.25 9.94893 11.171 10.1397 11.0303 10.2803C10.8897 10.421 10.6989 10.5 10.5 10.5Z" fill="#9595FE"/>
<path d="M17.8855 13.0908H10.9708C10.3343 13.0908 9.81836 13.6068 9.81836 14.2433V16.8363C9.81836 17.4728 10.3343 17.9887 10.9708 17.9887H17.8855C18.522 17.9887 19.0379 17.4728 19.0379 16.8363V14.2433C19.0379 13.6068 18.522 13.0908 17.8855 13.0908Z" fill="#EBEBEB"/>
<path d="M11.5518 16.6125V14.5957H11.7275L12.6495 16.1688H12.5573L13.4706 14.5957H13.6463V16.6125H13.4418V14.9155H13.4907L12.6495 16.3561H12.5486L11.7016 14.9155H11.7563V16.6125H11.5518ZM15.041 16.6269C14.9104 16.6269 14.7923 16.5971 14.6866 16.5376C14.581 16.4761 14.4965 16.3887 14.4331 16.2754C14.3716 16.1601 14.3409 16.0199 14.3409 15.8548C14.3409 15.6895 14.3716 15.5503 14.4331 15.437C14.4946 15.3217 14.5781 15.2343 14.6838 15.1748C14.7894 15.1152 14.9085 15.0855 15.041 15.0855C15.1851 15.0855 15.3138 15.1181 15.4271 15.1835C15.5423 15.2468 15.6326 15.3371 15.6979 15.4543C15.7632 15.5695 15.7959 15.703 15.7959 15.8548C15.7959 16.0084 15.7632 16.1429 15.6979 16.2581C15.6326 16.3733 15.5423 16.4636 15.4271 16.5289C15.3138 16.5942 15.1851 16.6269 15.041 16.6269ZM14.2602 17.1714V15.0999H14.4561V15.5551L14.436 15.8576L14.4648 16.163V17.1714H14.2602ZM15.0266 16.4454C15.1342 16.4454 15.2302 16.4214 15.3147 16.3733C15.3992 16.3234 15.4665 16.2543 15.5164 16.1659C15.5663 16.0756 15.5913 15.9719 15.5913 15.8548C15.5913 15.7376 15.5663 15.6348 15.5164 15.5465C15.4665 15.4581 15.3992 15.3889 15.3147 15.339C15.2302 15.2891 15.1342 15.2641 15.0266 15.2641C14.919 15.2641 14.822 15.2891 14.7356 15.339C14.6511 15.3889 14.5839 15.4581 14.5339 15.5465C14.4859 15.6348 14.4619 15.7376 14.4619 15.8548C14.4619 15.9719 14.4859 16.0756 14.5339 16.1659C14.5839 16.2543 14.6511 16.3234 14.7356 16.3733C14.822 16.4214 14.919 16.4454 15.0266 16.4454ZM16.694 16.647C16.5538 16.647 16.4145 16.6288 16.2762 16.5923C16.138 16.5539 16.0208 16.5001 15.9247 16.431L16.1062 16.0737C16.1831 16.1294 16.2724 16.1736 16.3742 16.2062C16.476 16.2389 16.5788 16.2552 16.6825 16.2552C16.7996 16.2552 16.8918 16.2322 16.9591 16.1861C17.0263 16.14 17.0599 16.0766 17.0599 15.9959C17.0599 15.9191 17.0301 15.8586 16.9706 15.8144C16.911 15.7702 16.815 15.7481 16.6825 15.7481H16.4693V15.4399L17.0311 14.8031L17.083 14.9702H16.0256V14.5957H17.4373V14.8982L16.8784 15.5349L16.6422 15.3995H16.7776C17.0253 15.3995 17.2126 15.4552 17.3394 15.5666C17.4661 15.678 17.5295 15.8211 17.5295 15.9959C17.5295 16.1092 17.4997 16.2158 17.4402 16.3157C17.3807 16.4137 17.2894 16.4934 17.1665 16.5549C17.0436 16.6163 16.8861 16.647 16.694 16.647Z" fill="#9595FE"/>
</g>
<defs>
<clipPath id="clip0_1397_577">
<rect width="18" height="18" fill="white"/>
</clipPath>
</defs>
</svg>
