<svg width="60" height="60" viewBox="0 0 60 60" fill="none" xmlns="http://www.w3.org/2000/svg">
<circle cx="30" cy="30" r="30" fill="url(#paint0_linear_1351_3762)"/>
<path d="M40.7999 31.7964H31.7999V40.7964C31.7999 41.2738 31.6103 41.7317 31.2727 42.0692C30.9351 42.4068 30.4773 42.5964 29.9999 42.5964C29.5225 42.5964 29.0647 42.4068 28.7271 42.0692C28.3895 41.7317 28.1999 41.2738 28.1999 40.7964V31.7964H19.1999C18.7225 31.7964 18.2647 31.6068 17.9271 31.2692C17.5895 30.9317 17.3999 30.4738 17.3999 29.9964C17.3999 29.519 17.5895 29.0612 17.9271 28.7236C18.2647 28.3861 18.7225 28.1964 19.1999 28.1964H28.1999V19.1964C28.1999 18.719 28.3895 18.2612 28.7271 17.9236C29.0647 17.5861 29.5225 17.3964 29.9999 17.3964C30.4773 17.3964 30.9351 17.5861 31.2727 17.9236C31.6103 18.2612 31.7999 18.719 31.7999 19.1964V28.1964H40.7999C41.2773 28.1964 41.7351 28.3861 42.0727 28.7236C42.4103 29.0612 42.5999 29.519 42.5999 29.9964C42.5999 30.4738 42.4103 30.9317 42.0727 31.2692C41.7351 31.6068 41.2773 31.7964 40.7999 31.7964Z" fill="white"/>
<defs>
<linearGradient id="paint0_linear_1351_3762" x1="4.23913" y1="22.1359" x2="57.0216" y2="35.5225" gradientUnits="userSpaceOnUse">
<stop stop-color="#9D9DFF"/>
<stop offset="0.461458" stop-color="#7979FC"/>
</linearGradient>
</defs>
</svg>
