<svg width="112" height="113" viewBox="0 0 112 113" fill="none" xmlns="http://www.w3.org/2000/svg">
<path d="M56.2793 29.25V31.75C56.2793 32.0815 56.1476 32.3995 55.9132 32.6339C55.6788 32.8683 55.3608 33 55.0293 33C54.6978 33 54.3798 32.8683 54.1454 32.6339C53.911 32.3995 53.7793 32.0815 53.7793 31.75V29.25C53.7793 28.9185 53.911 28.6005 54.1454 28.3661C54.3798 28.1317 54.6978 28 55.0293 28C55.3608 28 55.6788 28.1317 55.9132 28.3661C56.1476 28.6005 56.2793 28.9185 56.2793 29.25Z" fill="#C80A50"/>
<path d="M64.664 32.6335L62.8965 34.401C62.7805 34.5173 62.6426 34.6096 62.4909 34.6727C62.3392 34.7357 62.1765 34.7682 62.0122 34.7684C61.6804 34.7688 61.362 34.6373 61.1272 34.4029C60.8923 34.1685 60.7601 33.8504 60.7598 33.5186C60.7594 33.1868 60.8909 32.8684 61.1253 32.6335L62.8928 30.866C63.1285 30.6383 63.4443 30.5123 63.772 30.5152C64.0998 30.518 64.4133 30.6495 64.6451 30.8813C64.8768 31.113 65.0083 31.4265 65.0111 31.7543C65.014 32.082 64.888 32.3978 64.6603 32.6335H64.664Z" fill="#FAB400"/>
<path d="M48.9308 34.401C48.6964 34.6354 48.3785 34.767 48.0471 34.767C47.7156 34.767 47.3977 34.6354 47.1633 34.401L45.3958 32.6335C45.1681 32.3978 45.0421 32.082 45.045 31.7543C45.0478 31.4265 45.1793 31.113 45.411 30.8813C45.6428 30.6495 45.9563 30.518 46.2841 30.5152C46.6118 30.5123 46.9276 30.6383 47.1633 30.866L48.9308 32.6335C49.1652 32.8679 49.2968 33.1858 49.2968 33.5173C49.2968 33.8487 49.1652 34.1666 48.9308 34.401Z" fill="#00A0C8"/>
<path d="M53.7793 86.75V84.25C53.7793 83.9185 53.911 83.6005 54.1454 83.3661C54.3798 83.1317 54.6978 83 55.0293 83C55.3608 83 55.6788 83.1317 55.9132 83.3661C56.1476 83.6005 56.2793 83.9185 56.2793 84.25V86.75C56.2793 87.0815 56.1476 87.3995 55.9132 87.6339C55.6788 87.8683 55.3608 88 55.0293 88C54.6978 88 54.3798 87.8683 54.1454 87.6339C53.911 87.3995 53.7793 87.0815 53.7793 86.75Z" fill="#C80A50"/>
<path d="M45.3958 83.3664L47.1633 81.5989C47.2786 81.4795 47.4166 81.3843 47.5691 81.3188C47.7216 81.2533 47.8856 81.2188 48.0516 81.2173C48.2175 81.2159 48.3821 81.2475 48.5358 81.3104C48.6894 81.3732 48.8289 81.466 48.9463 81.5834C49.0637 81.7008 49.1565 81.8403 49.2193 81.994C49.2822 82.1476 49.3138 82.3122 49.3124 82.4781C49.3109 82.6441 49.2764 82.8081 49.2109 82.9606C49.1454 83.1132 49.0502 83.2511 48.9308 83.3664L47.1633 85.1339C46.9276 85.3616 46.6118 85.4876 46.2841 85.4847C45.9563 85.4819 45.6428 85.3504 45.411 85.1187C45.1793 84.8869 45.0478 84.5734 45.045 84.2456C45.0421 83.9179 45.1681 83.6021 45.3958 83.3664Z" fill="#FAB400"/>
<path d="M61.1258 81.5989C61.3602 81.3646 61.678 81.2329 62.0095 81.2329C62.341 81.2329 62.6588 81.3646 62.8932 81.5989L64.6608 83.3664C64.8884 83.6021 65.0144 83.9179 65.0116 84.2456C65.0087 84.5734 64.8773 84.8869 64.6455 85.1187C64.4138 85.3504 64.1002 85.4819 63.7725 85.4847C63.4448 85.4876 63.129 85.3616 62.8932 85.1339L61.1258 83.3664C60.8914 83.132 60.7598 82.8141 60.7598 82.4826C60.7598 82.1512 60.8914 81.8333 61.1258 81.5989Z" fill="#00A0C8"/>
<path d="M87.5303 56.75H22.4728C22.0642 56.75 21.6619 56.6499 21.3009 56.4584C20.94 56.2669 20.6315 55.9899 20.4025 55.6515C20.1734 55.3132 20.0308 54.9238 19.987 54.5176C19.9433 54.1114 19.9998 53.7006 20.1516 53.3212L22.5266 47.375L20.1516 41.4288C19.9998 41.0494 19.9433 40.6386 19.987 40.2324C20.0308 39.8262 20.1734 39.4368 20.4025 39.0985C20.6315 38.7601 20.94 38.4831 21.3009 38.2916C21.6619 38.1001 22.0642 38 22.4728 38H87.5303C88.1934 38 88.8292 38.2634 89.2981 38.7322C89.7669 39.2011 90.0303 39.837 90.0303 40.5V54.25C90.0303 54.913 89.7669 55.5489 89.2981 56.0178C88.8292 56.4866 88.1934 56.75 87.5303 56.75Z" fill="#6363F2"/>
<path d="M82.5868 78H32.5293C31.8663 78 31.2304 77.7366 30.7615 77.2678C30.2927 76.7989 30.0293 76.163 30.0293 75.5V61.75C30.0293 61.087 30.2927 60.4511 30.7615 59.9822C31.2304 59.5134 31.8663 59.25 32.5293 59.25H82.5868C82.9954 59.25 83.3978 59.3501 83.7587 59.5416C84.1196 59.7331 84.4281 60.0101 84.6572 60.3485C84.8862 60.6868 85.0289 61.0762 85.0726 61.4824C85.1163 61.8886 85.0598 62.2994 84.908 62.6788L82.533 68.625L84.908 74.5712C85.0598 74.9506 85.1163 75.3614 85.0726 75.7676C85.0289 76.1738 84.8862 76.5632 84.6572 76.9015C84.4281 77.2399 84.1196 77.5169 83.7587 77.7084C83.3978 77.8999 82.9954 78 82.5868 78Z" fill="#6363F2"/>
<path d="M29.7655 44.25H31.543C31.9703 44.2503 32.3799 44.4202 32.682 44.7223C32.9841 45.0244 33.154 45.434 33.1543 45.8612C33.1543 46.027 33.2201 46.186 33.3374 46.3032C33.4546 46.4204 33.6135 46.4862 33.7793 46.4862C33.9451 46.4862 34.104 46.4204 34.2212 46.3032C34.3384 46.186 34.4043 46.027 34.4043 45.8612C34.4033 45.1027 34.1015 44.3755 33.5652 43.8391C33.0288 43.3028 32.3016 43.001 31.543 43H29.7655C29.1008 43.0002 28.4568 43.232 27.9443 43.6554C27.4317 44.0788 27.0827 44.6674 26.9569 45.3202C26.8312 45.973 26.9368 46.6492 27.2554 47.2326C27.574 47.8161 28.0859 48.2704 28.703 48.5175L32.1418 49.8925C32.4897 50.0315 32.7782 50.2873 32.9579 50.616C33.1375 50.9447 33.197 51.3258 33.1261 51.6936C33.0553 52.0614 32.8585 52.3931 32.5695 52.6315C32.2806 52.8699 31.9176 53.0002 31.543 53H29.7655C29.3383 52.9997 28.9287 52.8298 28.6266 52.5277C28.3245 52.2256 28.1546 51.816 28.1543 51.3888C28.1543 51.223 28.0884 51.064 27.9712 50.9468C27.854 50.8296 27.6951 50.7638 27.5293 50.7638C27.3635 50.7638 27.2046 50.8296 27.0874 50.9468C26.9701 51.064 26.9043 51.223 26.9043 51.3888C26.9053 52.1473 27.2071 52.8745 27.7434 53.4109C28.2798 53.9472 29.007 54.249 29.7655 54.25H31.543C32.2078 54.2498 32.8518 54.018 33.3643 53.5946C33.8768 53.1712 34.2259 52.5826 34.3517 51.9298C34.4774 51.277 34.3718 50.6008 34.0532 50.0174C33.7346 49.4339 33.2227 48.9796 32.6055 48.7325L29.1668 47.3575C28.8189 47.2185 28.5304 46.9627 28.3507 46.634C28.1711 46.3053 28.1116 45.9242 28.1824 45.5564C28.2533 45.1886 28.4501 44.8569 28.7391 44.6185C29.028 44.3801 29.391 44.2498 29.7655 44.25Z" fill="#122A7E"/>
<path d="M68.7793 44.25C68.9451 44.25 69.104 44.1842 69.2212 44.0669C69.3384 43.9497 69.4043 43.7908 69.4043 43.625C69.4043 43.4592 69.3384 43.3003 69.2212 43.1831C69.104 43.0658 68.9451 43 68.7793 43H62.5293C62.3635 43 62.2046 43.0658 62.0874 43.1831C61.9701 43.3003 61.9043 43.4592 61.9043 43.625C61.9043 43.7908 61.9701 43.9497 62.0874 44.0669C62.2046 44.1842 62.3635 44.25 62.5293 44.25H65.0293V53H62.5293C62.3635 53 62.2046 53.0658 62.0874 53.1831C61.9701 53.3003 61.9043 53.4592 61.9043 53.625C61.9043 53.7908 61.9701 53.9497 62.0874 54.0669C62.2046 54.1842 62.3635 54.25 62.5293 54.25H68.7793C68.9451 54.25 69.104 54.1842 69.2212 54.0669C69.3384 53.9497 69.4043 53.7908 69.4043 53.625C69.4043 53.4592 69.3384 53.3003 69.2212 53.1831C69.104 53.0658 68.9451 53 68.7793 53H66.2793V44.25H68.7793Z" fill="#122A7E"/>
<path d="M74.4043 43C73.4097 43 72.4559 43.3951 71.7526 44.0983C71.0494 44.8016 70.6543 45.7554 70.6543 46.75V53.625C70.6543 53.7908 70.7201 53.9497 70.8374 54.0669C70.9546 54.1842 71.1135 54.25 71.2793 54.25C71.4451 54.25 71.604 54.1842 71.7212 54.0669C71.8384 53.9497 71.9043 53.7908 71.9043 53.625V50.1875H76.9043V53.625C76.9043 53.7908 76.9701 53.9497 77.0874 54.0669C77.2046 54.1842 77.3635 54.25 77.5293 54.25C77.6951 54.25 77.854 54.1842 77.9712 54.0669C78.0884 53.9497 78.1543 53.7908 78.1543 53.625V46.75C78.1543 45.7554 77.7592 44.8016 77.056 44.0983C76.3527 43.3951 75.3989 43 74.4043 43ZM71.9043 48.9375V46.75C71.9043 46.087 72.1677 45.4511 72.6365 44.9822C73.1054 44.5134 73.7413 44.25 74.4043 44.25C75.0673 44.25 75.7032 44.5134 76.1721 44.9822C76.6409 45.4511 76.9043 46.087 76.9043 46.75V48.9375H71.9043Z" fill="#122A7E"/>
<path d="M86.2793 53H80.6543V43.625C80.6543 43.4592 80.5884 43.3003 80.4712 43.1831C80.354 43.0658 80.1951 43 80.0293 43C79.8635 43 79.7046 43.0658 79.5874 43.1831C79.4701 43.3003 79.4043 43.4592 79.4043 43.625V53.625C79.4043 53.7908 79.4701 53.9497 79.5874 54.0669C79.7046 54.1842 79.8635 54.25 80.0293 54.25H86.2793C86.4451 54.25 86.604 54.1842 86.7212 54.0669C86.8384 53.9497 86.9043 53.7908 86.9043 53.625C86.9043 53.4592 86.8384 53.3003 86.7212 53.1831C86.604 53.0658 86.4451 53 86.2793 53Z" fill="#122A7E"/>
<path d="M40.0293 43H36.2793C36.1135 43 35.9546 43.0658 35.8374 43.1831C35.7201 43.3003 35.6543 43.4592 35.6543 43.625V53.625C35.6543 53.7908 35.7201 53.9497 35.8374 54.0669C35.9546 54.1842 36.1135 54.25 36.2793 54.25C36.4451 54.25 36.604 54.1842 36.7212 54.0669C36.8384 53.9497 36.9043 53.7908 36.9043 53.625V49.25H40.0293C40.8581 49.25 41.653 48.9208 42.239 48.3347C42.8251 47.7487 43.1543 46.9538 43.1543 46.125C43.1543 45.2962 42.8251 44.5013 42.239 43.9153C41.653 43.3292 40.8581 43 40.0293 43ZM40.0293 48H36.9043V44.25H40.0293C40.5266 44.25 41.0035 44.4475 41.3551 44.7992C41.7068 45.1508 41.9043 45.6277 41.9043 46.125C41.9043 46.6223 41.7068 47.0992 41.3551 47.4508C41.0035 47.8025 40.5266 48 40.0293 48Z" fill="#122A7E"/>
<path d="M51.2793 44.25C51.4451 44.25 51.604 44.1842 51.7212 44.0669C51.8384 43.9497 51.9043 43.7908 51.9043 43.625C51.9043 43.4592 51.8384 43.3003 51.7212 43.1831C51.604 43.0658 51.4451 43 51.2793 43H45.0293C44.8635 43 44.7046 43.0658 44.5874 43.1831C44.4701 43.3003 44.4043 43.4592 44.4043 43.625V53.625C44.4043 53.7908 44.4701 53.9497 44.5874 54.0669C44.7046 54.1842 44.8635 54.25 45.0293 54.25H51.2793C51.4451 54.25 51.604 54.1842 51.7212 54.0669C51.8384 53.9497 51.9043 53.7908 51.9043 53.625C51.9043 53.4592 51.8384 53.3003 51.7212 53.1831C51.604 53.0658 51.4451 53 51.2793 53H45.6543V49.25H51.2793C51.4451 49.25 51.604 49.1842 51.7212 49.0669C51.8384 48.9497 51.9043 48.7908 51.9043 48.625C51.9043 48.4592 51.8384 48.3003 51.7212 48.1831C51.604 48.0658 51.4451 48 51.2793 48H45.6543V44.25H51.2793Z" fill="#122A7E"/>
<path d="M38.1543 64.25C37.1597 64.25 36.2059 64.6451 35.5026 65.3484C34.7994 66.0516 34.4043 67.0054 34.4043 68V71.75C34.4043 72.7446 34.7994 73.6984 35.5026 74.4016C36.2059 75.1049 37.1597 75.5 38.1543 75.5C39.1489 75.5 40.1027 75.1049 40.8059 74.4016C41.5092 73.6984 41.9043 72.7446 41.9043 71.75V68C41.9043 67.0054 41.5092 66.0516 40.8059 65.3484C40.1027 64.6451 39.1489 64.25 38.1543 64.25ZM40.6543 71.75C40.6543 72.413 40.3909 73.0489 39.9221 73.5178C39.4532 73.9866 38.8173 74.25 38.1543 74.25C37.4913 74.25 36.8554 73.9866 36.3865 73.5178C35.9177 73.0489 35.6543 72.413 35.6543 71.75V68C35.6543 67.337 35.9177 66.7011 36.3865 66.2322C36.8554 65.7634 37.4913 65.5 38.1543 65.5C38.8173 65.5 39.4532 65.7634 39.9221 66.2322C40.3909 66.7011 40.6543 67.337 40.6543 68V71.75Z" fill="#122A7E"/>
<path d="M67.5293 65.5C67.6951 65.5 67.854 65.4342 67.9712 65.3169C68.0884 65.1997 68.1543 65.0408 68.1543 64.875C68.1543 64.7092 68.0884 64.5503 67.9712 64.4331C67.854 64.3158 67.6951 64.25 67.5293 64.25H61.2793C61.1135 64.25 60.9546 64.3158 60.8374 64.4331C60.7201 64.5503 60.6543 64.7092 60.6543 64.875V74.875C60.6543 75.0408 60.7201 75.1997 60.8374 75.3169C60.9546 75.4342 61.1135 75.5 61.2793 75.5H67.5293C67.6951 75.5 67.854 75.4342 67.9712 75.3169C68.0884 75.1997 68.1543 75.0408 68.1543 74.875C68.1543 74.7092 68.0884 74.5503 67.9712 74.4331C67.854 74.3158 67.6951 74.25 67.5293 74.25H61.9043V70.5H67.5293C67.6951 70.5 67.854 70.4342 67.9712 70.3169C68.0884 70.1997 68.1543 70.0408 68.1543 69.875C68.1543 69.7092 68.0884 69.5503 67.9712 69.4331C67.854 69.3158 67.6951 69.25 67.5293 69.25H61.9043V65.5H67.5293Z" fill="#122A7E"/>
<path d="M50.0293 65.5C50.1951 65.5 50.354 65.4342 50.4712 65.3169C50.5884 65.1997 50.6543 65.0408 50.6543 64.875C50.6543 64.7092 50.5884 64.5503 50.4712 64.4331C50.354 64.3158 50.1951 64.25 50.0293 64.25H43.7793C43.6135 64.25 43.4546 64.3158 43.3374 64.4331C43.2201 64.5503 43.1543 64.7092 43.1543 64.875V74.875C43.1543 75.0408 43.2201 75.1997 43.3374 75.3169C43.4546 75.4342 43.6135 75.5 43.7793 75.5C43.9451 75.5 44.104 75.4342 44.2212 75.3169C44.3384 75.1997 44.4043 75.0408 44.4043 74.875V70.5H50.0293C50.1951 70.5 50.354 70.4342 50.4712 70.3169C50.5884 70.1997 50.6543 70.0408 50.6543 69.875C50.6543 69.7092 50.5884 69.5503 50.4712 69.4331C50.354 69.3158 50.1951 69.25 50.0293 69.25H44.4043V65.5H50.0293Z" fill="#122A7E"/>
<path d="M58.7793 65.5C58.9451 65.5 59.104 65.4342 59.2212 65.3169C59.3384 65.1997 59.4043 65.0408 59.4043 64.875C59.4043 64.7092 59.3384 64.5503 59.2212 64.4331C59.104 64.3158 58.9451 64.25 58.7793 64.25H52.5293C52.3635 64.25 52.2046 64.3158 52.0874 64.4331C51.9701 64.5503 51.9043 64.7092 51.9043 64.875V74.875C51.9043 75.0408 51.9701 75.1997 52.0874 75.3169C52.2046 75.4342 52.3635 75.5 52.5293 75.5C52.6951 75.5 52.854 75.4342 52.9712 75.3169C53.0884 75.1997 53.1543 75.0408 53.1543 74.875V70.5H58.7793C58.9451 70.5 59.104 70.4342 59.2212 70.3169C59.3384 70.1997 59.4043 70.0408 59.4043 69.875C59.4043 69.7092 59.3384 69.5503 59.2212 69.4331C59.104 69.3158 58.9451 69.25 58.7793 69.25H53.1543V65.5H58.7793Z" fill="#122A7E"/>
<path d="M74.2493 70.4525C75.0138 70.3188 75.7012 69.9053 76.1776 69.2927C76.6541 68.68 76.8855 67.912 76.8269 67.1381C76.7682 66.3642 76.4237 65.6399 75.8604 65.106C75.297 64.5722 74.5552 64.267 73.7793 64.25H70.0293C69.8635 64.25 69.7046 64.3158 69.5874 64.4331C69.4701 64.5503 69.4043 64.7092 69.4043 64.875V74.875C69.4043 75.0408 69.4701 75.1997 69.5874 75.3169C69.7046 75.4342 69.8635 75.5 70.0293 75.5C70.1951 75.5 70.354 75.4342 70.4712 75.3169C70.5884 75.1997 70.6543 75.0408 70.6543 74.875V70.5H72.8081L75.7493 75.2062C75.8372 75.3468 75.9772 75.4467 76.1388 75.484C76.3003 75.5213 76.47 75.4929 76.6106 75.405C76.7511 75.3171 76.851 75.1771 76.8883 75.0155C76.9256 74.854 76.8972 74.6843 76.8093 74.5438L74.2493 70.4525ZM70.6543 65.5H73.7793C74.2766 65.5 74.7535 65.6975 75.1051 66.0492C75.4568 66.4008 75.6543 66.8777 75.6543 67.375C75.6543 67.8723 75.4568 68.3492 75.1051 68.7008C74.7535 69.0525 74.2766 69.25 73.7793 69.25H70.6543V65.5Z" fill="#122A7E"/>
<path d="M60.0293 49.875C59.8635 49.875 59.7046 49.9408 59.5874 50.0581C59.4701 50.1753 59.4043 50.3342 59.4043 50.5C59.4043 51.163 59.1409 51.7989 58.6721 52.2678C58.2032 52.7366 57.5673 53 56.9043 53C56.2413 53 55.6054 52.7366 55.1365 52.2678C54.6677 51.7989 54.4043 51.163 54.4043 50.5V46.75C54.4043 46.087 54.6677 45.4511 55.1365 44.9822C55.6054 44.5134 56.2413 44.25 56.9043 44.25C57.5673 44.25 58.2032 44.5134 58.6721 44.9822C59.1409 45.4511 59.4043 46.087 59.4043 46.75C59.4043 46.9158 59.4701 47.0747 59.5874 47.1919C59.7046 47.3092 59.8635 47.375 60.0293 47.375C60.1951 47.375 60.354 47.3092 60.4712 47.1919C60.5884 47.0747 60.6543 46.9158 60.6543 46.75C60.6543 45.7554 60.2592 44.8016 59.5559 44.0983C58.8527 43.3951 57.8989 43 56.9043 43C55.9097 43 54.9559 43.3951 54.2526 44.0983C53.5494 44.8016 53.1543 45.7554 53.1543 46.75V50.5C53.1543 51.4946 53.5494 52.4484 54.2526 53.1517C54.9559 53.8549 55.9097 54.25 56.9043 54.25C57.8989 54.25 58.8527 53.8549 59.5559 53.1517C60.2592 52.4484 60.6543 51.4946 60.6543 50.5C60.6543 50.3342 60.5884 50.1753 60.4712 50.0581C60.354 49.9408 60.1951 49.875 60.0293 49.875Z" fill="#122A7E"/>
<path d="M86.9004 56.75L69.4004 59.25H31.9004L49.4004 56.75H86.9004Z" fill="#0A5078"/>
<path d="M86.9004 56.75L78.1504 58H40.6504L49.4004 56.75H86.9004Z" fill="#00325A"/>
<path d="M29.7655 43H31.543C31.9703 43.0003 32.3799 43.1702 32.682 43.4723C32.9841 43.7744 33.154 44.184 33.1543 44.6112C33.1543 44.777 33.2201 44.936 33.3374 45.0532C33.4546 45.1704 33.6135 45.2362 33.7793 45.2362C33.9451 45.2362 34.104 45.1704 34.2212 45.0532C34.3384 44.936 34.4043 44.777 34.4043 44.6112C34.4033 43.8527 34.1015 43.1255 33.5652 42.5891C33.0288 42.0528 32.3016 41.751 31.543 41.75H29.7655C29.1008 41.7502 28.4568 41.982 27.9443 42.4054C27.4317 42.8288 27.0827 43.4174 26.9569 44.0702C26.8312 44.723 26.9368 45.3992 27.2554 45.9826C27.574 46.5661 28.0859 47.0204 28.703 47.2675L32.1418 48.6425C32.4897 48.7815 32.7782 49.0373 32.9579 49.366C33.1375 49.6947 33.197 50.0758 33.1261 50.4436C33.0553 50.8114 32.8585 51.1431 32.5695 51.3815C32.2806 51.6199 31.9176 51.7502 31.543 51.75H29.7655C29.3383 51.7497 28.9287 51.5798 28.6266 51.2777C28.3245 50.9756 28.1546 50.566 28.1543 50.1388C28.1543 49.973 28.0884 49.814 27.9712 49.6968C27.854 49.5796 27.6951 49.5138 27.5293 49.5138C27.3635 49.5138 27.2046 49.5796 27.0874 49.6968C26.9701 49.814 26.9043 49.973 26.9043 50.1388C26.9053 50.8973 27.2071 51.6245 27.7434 52.1609C28.2798 52.6972 29.007 52.999 29.7655 53H31.543C32.2078 52.9998 32.8518 52.768 33.3643 52.3446C33.8768 51.9212 34.2259 51.3326 34.3517 50.6798C34.4774 50.027 34.3718 49.3508 34.0532 48.7674C33.7346 48.1839 33.2227 47.7296 32.6055 47.4825L29.1668 46.1075C28.8189 45.9685 28.5304 45.7127 28.3507 45.384C28.1711 45.0553 28.1116 44.6742 28.1824 44.3064C28.2533 43.9386 28.4501 43.6069 28.7391 43.3685C29.028 43.1301 29.391 42.9998 29.7655 43Z" fill="#F0F0F0"/>
<path d="M68.7793 43C68.9451 43 69.104 42.9342 69.2212 42.8169C69.3384 42.6997 69.4043 42.5408 69.4043 42.375C69.4043 42.2092 69.3384 42.0503 69.2212 41.9331C69.104 41.8158 68.9451 41.75 68.7793 41.75H62.5293C62.3635 41.75 62.2046 41.8158 62.0874 41.9331C61.9701 42.0503 61.9043 42.2092 61.9043 42.375C61.9043 42.5408 61.9701 42.6997 62.0874 42.8169C62.2046 42.9342 62.3635 43 62.5293 43H65.0293V51.75H62.5293C62.3635 51.75 62.2046 51.8158 62.0874 51.9331C61.9701 52.0503 61.9043 52.2092 61.9043 52.375C61.9043 52.5408 61.9701 52.6997 62.0874 52.8169C62.2046 52.9342 62.3635 53 62.5293 53H68.7793C68.9451 53 69.104 52.9342 69.2212 52.8169C69.3384 52.6997 69.4043 52.5408 69.4043 52.375C69.4043 52.2092 69.3384 52.0503 69.2212 51.9331C69.104 51.8158 68.9451 51.75 68.7793 51.75H66.2793V43H68.7793Z" fill="#F0F0F0"/>
<path d="M74.4043 41.75C73.4097 41.75 72.4559 42.1451 71.7526 42.8483C71.0494 43.5516 70.6543 44.5054 70.6543 45.5V52.375C70.6543 52.5408 70.7201 52.6997 70.8374 52.8169C70.9546 52.9342 71.1135 53 71.2793 53C71.4451 53 71.604 52.9342 71.7212 52.8169C71.8384 52.6997 71.9043 52.5408 71.9043 52.375V48.9375H76.9043V52.375C76.9043 52.5408 76.9701 52.6997 77.0874 52.8169C77.2046 52.9342 77.3635 53 77.5293 53C77.6951 53 77.854 52.9342 77.9712 52.8169C78.0884 52.6997 78.1543 52.5408 78.1543 52.375V45.5C78.1543 44.5054 77.7592 43.5516 77.056 42.8483C76.3527 42.1451 75.3989 41.75 74.4043 41.75ZM71.9043 47.6875V45.5C71.9043 44.837 72.1677 44.2011 72.6365 43.7322C73.1054 43.2634 73.7413 43 74.4043 43C75.0673 43 75.7032 43.2634 76.1721 43.7322C76.6409 44.2011 76.9043 44.837 76.9043 45.5V47.6875H71.9043Z" fill="#F0F0F0"/>
<path d="M86.2793 51.75H80.6543V42.375C80.6543 42.2092 80.5884 42.0503 80.4712 41.9331C80.354 41.8158 80.1951 41.75 80.0293 41.75C79.8635 41.75 79.7046 41.8158 79.5874 41.9331C79.4701 42.0503 79.4043 42.2092 79.4043 42.375V52.375C79.4043 52.5408 79.4701 52.6997 79.5874 52.8169C79.7046 52.9342 79.8635 53 80.0293 53H86.2793C86.4451 53 86.604 52.9342 86.7212 52.8169C86.8384 52.6997 86.9043 52.5408 86.9043 52.375C86.9043 52.2092 86.8384 52.0503 86.7212 51.9331C86.604 51.8158 86.4451 51.75 86.2793 51.75Z" fill="#F0F0F0"/>
<path d="M40.0293 41.75H36.2793C36.1135 41.75 35.9546 41.8158 35.8374 41.9331C35.7201 42.0503 35.6543 42.2092 35.6543 42.375V52.375C35.6543 52.5408 35.7201 52.6997 35.8374 52.8169C35.9546 52.9342 36.1135 53 36.2793 53C36.4451 53 36.604 52.9342 36.7212 52.8169C36.8384 52.6997 36.9043 52.5408 36.9043 52.375V48H40.0293C40.8581 48 41.653 47.6708 42.239 47.0847C42.8251 46.4987 43.1543 45.7038 43.1543 44.875C43.1543 44.0462 42.8251 43.2513 42.239 42.6653C41.653 42.0792 40.8581 41.75 40.0293 41.75ZM40.0293 46.75H36.9043V43H40.0293C40.5266 43 41.0035 43.1975 41.3551 43.5492C41.7068 43.9008 41.9043 44.3777 41.9043 44.875C41.9043 45.3723 41.7068 45.8492 41.3551 46.2008C41.0035 46.5525 40.5266 46.75 40.0293 46.75Z" fill="#F0F0F0"/>
<path d="M51.2793 43C51.4451 43 51.604 42.9342 51.7212 42.8169C51.8384 42.6997 51.9043 42.5408 51.9043 42.375C51.9043 42.2092 51.8384 42.0503 51.7212 41.9331C51.604 41.8158 51.4451 41.75 51.2793 41.75H45.0293C44.8635 41.75 44.7046 41.8158 44.5874 41.9331C44.4701 42.0503 44.4043 42.2092 44.4043 42.375V52.375C44.4043 52.5408 44.4701 52.6997 44.5874 52.8169C44.7046 52.9342 44.8635 53 45.0293 53H51.2793C51.4451 53 51.604 52.9342 51.7212 52.8169C51.8384 52.6997 51.9043 52.5408 51.9043 52.375C51.9043 52.2092 51.8384 52.0503 51.7212 51.9331C51.604 51.8158 51.4451 51.75 51.2793 51.75H45.6543V48H51.2793C51.4451 48 51.604 47.9342 51.7212 47.8169C51.8384 47.6997 51.9043 47.5408 51.9043 47.375C51.9043 47.2092 51.8384 47.0503 51.7212 46.9331C51.604 46.8158 51.4451 46.75 51.2793 46.75H45.6543V43H51.2793Z" fill="#F0F0F0"/>
<path d="M38.1543 63C37.1597 63 36.2059 63.3951 35.5026 64.0984C34.7994 64.8016 34.4043 65.7554 34.4043 66.75V70.5C34.4043 71.4946 34.7994 72.4484 35.5026 73.1516C36.2059 73.8549 37.1597 74.25 38.1543 74.25C39.1489 74.25 40.1027 73.8549 40.8059 73.1516C41.5092 72.4484 41.9043 71.4946 41.9043 70.5V66.75C41.9043 65.7554 41.5092 64.8016 40.8059 64.0984C40.1027 63.3951 39.1489 63 38.1543 63ZM40.6543 70.5C40.6543 71.163 40.3909 71.7989 39.9221 72.2678C39.4532 72.7366 38.8173 73 38.1543 73C37.4913 73 36.8554 72.7366 36.3865 72.2678C35.9177 71.7989 35.6543 71.163 35.6543 70.5V66.75C35.6543 66.087 35.9177 65.4511 36.3865 64.9822C36.8554 64.5134 37.4913 64.25 38.1543 64.25C38.8173 64.25 39.4532 64.5134 39.9221 64.9822C40.3909 65.4511 40.6543 66.087 40.6543 66.75V70.5Z" fill="#F0F0F0"/>
<path d="M67.5293 64.25C67.6951 64.25 67.854 64.1842 67.9712 64.0669C68.0884 63.9497 68.1543 63.7908 68.1543 63.625C68.1543 63.4592 68.0884 63.3003 67.9712 63.1831C67.854 63.0658 67.6951 63 67.5293 63H61.2793C61.1135 63 60.9546 63.0658 60.8374 63.1831C60.7201 63.3003 60.6543 63.4592 60.6543 63.625V73.625C60.6543 73.7908 60.7201 73.9497 60.8374 74.0669C60.9546 74.1842 61.1135 74.25 61.2793 74.25H67.5293C67.6951 74.25 67.854 74.1842 67.9712 74.0669C68.0884 73.9497 68.1543 73.7908 68.1543 73.625C68.1543 73.4592 68.0884 73.3003 67.9712 73.1831C67.854 73.0658 67.6951 73 67.5293 73H61.9043V69.25H67.5293C67.6951 69.25 67.854 69.1842 67.9712 69.0669C68.0884 68.9497 68.1543 68.7908 68.1543 68.625C68.1543 68.4592 68.0884 68.3003 67.9712 68.1831C67.854 68.0658 67.6951 68 67.5293 68H61.9043V64.25H67.5293Z" fill="#F0F0F0"/>
<path d="M50.0293 64.25C50.1951 64.25 50.354 64.1842 50.4712 64.0669C50.5884 63.9497 50.6543 63.7908 50.6543 63.625C50.6543 63.4592 50.5884 63.3003 50.4712 63.1831C50.354 63.0658 50.1951 63 50.0293 63H43.7793C43.6135 63 43.4546 63.0658 43.3374 63.1831C43.2201 63.3003 43.1543 63.4592 43.1543 63.625V73.625C43.1543 73.7908 43.2201 73.9497 43.3374 74.0669C43.4546 74.1842 43.6135 74.25 43.7793 74.25C43.9451 74.25 44.104 74.1842 44.2212 74.0669C44.3384 73.9497 44.4043 73.7908 44.4043 73.625V69.25H50.0293C50.1951 69.25 50.354 69.1842 50.4712 69.0669C50.5884 68.9497 50.6543 68.7908 50.6543 68.625C50.6543 68.4592 50.5884 68.3003 50.4712 68.1831C50.354 68.0658 50.1951 68 50.0293 68H44.4043V64.25H50.0293Z" fill="#F0F0F0"/>
<path d="M58.7793 64.25C58.9451 64.25 59.104 64.1842 59.2212 64.0669C59.3384 63.9497 59.4043 63.7908 59.4043 63.625C59.4043 63.4592 59.3384 63.3003 59.2212 63.1831C59.104 63.0658 58.9451 63 58.7793 63H52.5293C52.3635 63 52.2046 63.0658 52.0874 63.1831C51.9701 63.3003 51.9043 63.4592 51.9043 63.625V73.625C51.9043 73.7908 51.9701 73.9497 52.0874 74.0669C52.2046 74.1842 52.3635 74.25 52.5293 74.25C52.6951 74.25 52.854 74.1842 52.9712 74.0669C53.0884 73.9497 53.1543 73.7908 53.1543 73.625V69.25H58.7793C58.9451 69.25 59.104 69.1842 59.2212 69.0669C59.3384 68.9497 59.4043 68.7908 59.4043 68.625C59.4043 68.4592 59.3384 68.3003 59.2212 68.1831C59.104 68.0658 58.9451 68 58.7793 68H53.1543V64.25H58.7793Z" fill="#F0F0F0"/>
<path d="M74.2493 69.2025C75.0138 69.0688 75.7012 68.6553 76.1776 68.0427C76.6541 67.43 76.8855 66.662 76.8269 65.8881C76.7682 65.1142 76.4237 64.3899 75.8604 63.856C75.297 63.3222 74.5552 63.017 73.7793 63H70.0293C69.8635 63 69.7046 63.0658 69.5874 63.1831C69.4701 63.3003 69.4043 63.4592 69.4043 63.625V73.625C69.4043 73.7908 69.4701 73.9497 69.5874 74.0669C69.7046 74.1842 69.8635 74.25 70.0293 74.25C70.1951 74.25 70.354 74.1842 70.4712 74.0669C70.5884 73.9497 70.6543 73.7908 70.6543 73.625V69.25H72.8081L75.7493 73.9562C75.8372 74.0968 75.9772 74.1967 76.1388 74.234C76.3003 74.2713 76.47 74.2429 76.6106 74.155C76.7511 74.0671 76.851 73.9271 76.8883 73.7655C76.9256 73.604 76.8972 73.4343 76.8093 73.2938L74.2493 69.2025ZM70.6543 64.25H73.7793C74.2766 64.25 74.7535 64.4475 75.1051 64.7992C75.4568 65.1508 75.6543 65.6277 75.6543 66.125C75.6543 66.6223 75.4568 67.0992 75.1051 67.4508C74.7535 67.8025 74.2766 68 73.7793 68H70.6543V64.25Z" fill="#F0F0F0"/>
<path d="M60.0293 48.625C59.8635 48.625 59.7046 48.6908 59.5874 48.8081C59.4701 48.9253 59.4043 49.0842 59.4043 49.25C59.4043 49.913 59.1409 50.5489 58.6721 51.0178C58.2032 51.4866 57.5673 51.75 56.9043 51.75C56.2413 51.75 55.6054 51.4866 55.1365 51.0178C54.6677 50.5489 54.4043 49.913 54.4043 49.25V45.5C54.4043 44.837 54.6677 44.2011 55.1365 43.7322C55.6054 43.2634 56.2413 43 56.9043 43C57.5673 43 58.2032 43.2634 58.6721 43.7322C59.1409 44.2011 59.4043 44.837 59.4043 45.5C59.4043 45.6658 59.4701 45.8247 59.5874 45.9419C59.7046 46.0592 59.8635 46.125 60.0293 46.125C60.1951 46.125 60.354 46.0592 60.4712 45.9419C60.5884 45.8247 60.6543 45.6658 60.6543 45.5C60.6543 44.5054 60.2592 43.5516 59.5559 42.8483C58.8527 42.1451 57.8989 41.75 56.9043 41.75C55.9097 41.75 54.9559 42.1451 54.2526 42.8483C53.5494 43.5516 53.1543 44.5054 53.1543 45.5V49.25C53.1543 50.2446 53.5494 51.1984 54.2526 51.9017C54.9559 52.6049 55.9097 53 56.9043 53C57.8989 53 58.8527 52.6049 59.5559 51.9017C60.2592 51.1984 60.6543 50.2446 60.6543 49.25C60.6543 49.0842 60.5884 48.9253 60.4712 48.8081C60.354 48.6908 60.1951 48.625 60.0293 48.625Z" fill="#F0F0F0"/>
<circle cx="101" cy="11" r="11" fill="#FF4131"/>
<rect x="1.25" y="4.25" width="107.5" height="107.5" rx="28.75" stroke="white" stroke-width="2.5"/>
</svg>
