<svg width="52" height="52" viewBox="0 0 52 52" fill="none" xmlns="http://www.w3.org/2000/svg">
<path d="M51.5588 26.5111C51.5588 23.9249 50.3596 21.6214 48.4924 20.1175C47.7531 21.6109 46.4823 22.7874 44.9321 23.426C47.1445 22.282 48.6598 19.9786 48.6598 17.3176C48.6598 13.5192 45.5853 10.4804 41.7869 10.4804C41.4984 10.4804 41.2271 10.5016 40.9467 10.5357C41.8974 12.6149 42.4239 14.8818 42.4239 17.3176C42.4239 17.4744 42.4158 17.6296 42.4101 17.7856C42.1371 8.95781 34.9001 1.88419 26.0041 1.88419C17.1348 1.88419 9.91169 8.918 9.59969 17.7125C9.59644 17.5801 9.58425 17.4501 9.58425 17.3176C9.58425 14.8866 10.1262 12.5873 11.0736 10.5121C5.08056 11.2637 0.441187 16.3678 0.441187 22.5648C0.441187 29.2801 5.88494 34.7238 12.6002 34.7238H43.5191V34.71C47.9732 34.6198 51.5588 30.9871 51.5588 26.5111Z" fill="#1EBCC5"/>
<path d="M25.8692 29.7651C19.5122 29.7651 14.3585 24.6114 14.3585 18.2544C14.3585 11.8982 19.5122 6.74375 25.8692 6.74375C32.227 6.74375 37.3799 11.8974 37.3799 18.2544C37.3799 24.6114 32.227 29.7651 25.8692 29.7651ZM25.8749 5.05862C18.5754 5.05862 12.6587 10.9752 12.6587 18.2739C12.6587 25.5726 18.5754 31.4901 25.8749 31.4901C33.1744 31.4901 39.0902 25.5726 39.0902 18.2739C39.0902 10.9752 33.1744 5.05862 25.8749 5.05862Z" fill="white"/>
<path d="M27.8996 18.1586H27.885H24.2897H24.2751V15.2693H24.2897H27.885H27.8996C28.6975 15.2693 29.3443 15.9161 29.3443 16.7131C29.3443 17.511 28.6975 18.1586 27.8996 18.1586ZM22.4339 11.8235C21.4094 11.8235 20.5782 12.6539 20.5782 13.6793V23.7478C20.5782 24.7723 21.4094 25.6043 22.4339 25.6043C23.4601 25.6043 24.2897 24.7723 24.2897 23.7478V21.606H27.885V21.5987C30.5841 21.5987 32.7738 19.4106 32.7738 16.7115C32.7738 14.0116 30.5849 11.8235 27.885 11.8235" fill="white"/>
</svg>
