<svg width="110" height="110" viewBox="0 0 110 110" fill="none" xmlns="http://www.w3.org/2000/svg">
<path d="M87.5125 65.175L88.5625 72.5H86.25V61.25C86.249 60.9188 86.117 60.6014 85.8828 60.3672C85.6486 60.133 85.3312 60.001 85 60H81.25V57.5H88.5625L87.5125 64.825C87.5 64.9413 87.5 65.0587 87.5125 65.175Z" fill="#6363F2"/>
<path d="M26.25 62.5H83.75V77.5H26.25V62.5Z" fill="#6363F2"/>
<path d="M28.752 57.5V60H25.002C24.6707 60.001 24.3534 60.133 24.1192 60.3672C23.885 60.6014 23.7529 60.9188 23.752 61.25V72.5H21.4395L22.4895 65.175C22.502 65.0587 22.502 64.9413 22.4895 64.825L21.4395 57.5H28.752Z" fill="#6363F2"/>
<path d="M37.5 51.25H72.5V55H37.5V51.25Z" fill="#6363F2"/>
<path d="M74.6875 33.5252L72.65 48.7502H37.35L35.3125 33.5252L46.9 39.8502C47.1383 39.9775 47.411 40.0256 47.6785 39.9874C47.946 39.9492 48.1944 39.8267 48.3875 39.6377L55 33.0127L61.6125 39.6377C61.8056 39.8267 62.054 39.9492 62.3215 39.9874C62.589 40.0256 62.8617 39.9775 63.1 39.8502L74.6875 33.5252Z" fill="#6363F2"/>
<path d="M90.945 55.4309C90.8274 55.2957 90.6823 55.1872 90.5193 55.1129C90.3563 55.0386 90.1792 55.0001 90.0001 55H80.0001C79.6686 55 79.3506 55.1317 79.1162 55.3661C78.8818 55.6005 78.7501 55.9185 78.7501 56.25V60H31.2501V56.25C31.2501 55.9185 31.1184 55.6005 30.884 55.3661C30.6496 55.1317 30.3316 55 30.0001 55H20.0001C19.821 55 19.6439 55.0385 19.481 55.1128C19.3181 55.1872 19.173 55.2957 19.0556 55.431C18.9383 55.5664 18.8514 55.7253 18.8008 55.8972C18.7503 56.069 18.7372 56.2497 18.7626 56.427L19.9876 65L18.7626 73.573C18.7372 73.7503 18.7503 73.931 18.8008 74.1028C18.8514 74.2747 18.9383 74.4336 19.0556 74.569C19.173 74.7043 19.3181 74.8128 19.481 74.8872C19.6439 74.9615 19.821 75 20.0001 75H23.7501V78.75C23.7501 79.0815 23.8818 79.3995 24.1162 79.6339C24.3506 79.8683 24.6686 80 25.0001 80H85.0001C85.3316 80 85.6496 79.8683 85.884 79.6339C86.1184 79.3995 86.2501 79.0815 86.2501 78.75V75H90.0001C90.1792 75 90.3562 74.9615 90.5192 74.8872C90.6821 74.8128 90.8272 74.7043 90.9445 74.569C91.0619 74.4336 91.1488 74.2747 91.1994 74.1028C91.2499 73.931 91.263 73.7503 91.2376 73.573L90.0126 65L91.2376 56.427C91.2629 56.2497 91.2498 56.069 91.1993 55.8972C91.1488 55.7254 91.0621 55.5664 90.945 55.4309ZM21.4411 72.5L22.4876 65.177C22.5047 65.0596 22.5047 64.9404 22.4876 64.823L21.4411 57.5H28.7501V60H25.0001C24.6686 60 24.3506 60.1317 24.1162 60.3661C23.8818 60.6005 23.7501 60.9185 23.7501 61.25V72.5H21.4411ZM83.7501 77.5H26.2501V62.5H83.7501V77.5ZM88.5585 72.5H86.2501V61.25C86.2501 60.9185 86.1184 60.6005 85.884 60.3661C85.6496 60.1317 85.3316 60 85.0001 60H81.2501V57.5H88.5585L87.5126 64.823C87.4967 64.9405 87.4967 65.0595 87.5126 65.177L88.5585 72.5Z" fill="black"/>
<path d="M34.9997 56.2499C34.9997 56.5815 35.1314 56.8994 35.3658 57.1338C35.6002 57.3682 35.9182 57.4999 36.2497 57.4999H73.7497C74.0812 57.4999 74.3992 57.3682 74.6336 57.1338C74.868 56.8994 74.9997 56.5815 74.9997 56.2499V50.0829L77.4887 31.4153C77.5192 31.1865 77.4857 30.9536 77.3919 30.7426C77.2982 30.5316 77.1478 30.3507 76.9575 30.22C76.7672 30.0892 76.5444 30.0138 76.3138 30.0019C76.0833 29.99 75.8539 30.0423 75.6512 30.1528L62.7218 37.2046L55.8834 30.3662C55.649 30.1318 55.3311 30.0001 54.9996 30.0001C54.6682 30.0001 54.3502 30.1318 54.1158 30.3662L47.2768 37.2046L34.3484 30.1526C34.1457 30.042 33.9164 29.9898 33.6858 30.0016C33.4552 30.0135 33.2324 30.089 33.0421 30.2197C32.8518 30.3505 32.7015 30.5314 32.6077 30.7424C32.514 30.9534 32.4805 31.1862 32.5109 31.4151L34.9997 50.0829V56.2499ZM72.4997 54.9999H37.4997V51.2499H72.4997V54.9999ZM46.9009 39.8473C47.138 39.9766 47.4105 40.0256 47.6777 39.9871C47.945 39.9486 48.1926 39.8246 48.3834 39.6337L54.9997 33.0176L61.6159 39.6338C61.807 39.8243 62.0544 39.948 62.3214 39.9865C62.5885 40.025 62.8608 39.9762 63.0978 39.8474L74.6853 33.5272L72.6547 48.7499H37.3441L35.3147 33.5272L46.9009 39.8473Z" fill="black"/>
<path d="M29.6914 74V66.0455H32.8297C33.433 66.0455 33.947 66.1607 34.3716 66.3911C34.7963 66.619 35.12 66.9362 35.3427 67.3427C35.5679 67.7467 35.6806 68.2128 35.6806 68.741C35.6806 69.2692 35.5666 69.7353 35.3388 70.1392C35.1109 70.5432 34.7808 70.8578 34.3483 71.0831C33.9185 71.3083 33.398 71.421 32.787 71.421H30.7867V70.0732H32.5151C32.8387 70.0732 33.1054 70.0175 33.3152 69.9062C33.5275 69.7923 33.6855 69.6356 33.789 69.4362C33.8952 69.2343 33.9483 69.0025 33.9483 68.741C33.9483 68.4769 33.8952 68.2464 33.789 68.0496C33.6855 67.8502 33.5275 67.6962 33.3152 67.5874C33.1029 67.4761 32.8336 67.4204 32.5073 67.4204H31.3732V74H29.6914ZM36.773 74V66.0455H39.9113C40.512 66.0455 41.0247 66.1529 41.4494 66.3678C41.8766 66.5802 42.2016 66.8818 42.4243 67.2728C42.6495 67.6612 42.7622 68.1182 42.7622 68.6439C42.7622 69.1721 42.6482 69.6266 42.4204 70.0072C42.1925 70.3852 41.8624 70.6752 41.4299 70.8772C41.0001 71.0792 40.4796 71.1802 39.8686 71.1802H37.7673V69.8285H39.5967C39.9178 69.8285 40.1845 69.7845 40.3968 69.6965C40.6091 69.6084 40.7671 69.4764 40.8706 69.3003C40.9768 69.1242 41.0299 68.9054 41.0299 68.6439C41.0299 68.3798 40.9768 68.1571 40.8706 67.9758C40.7671 67.7946 40.6078 67.6573 40.3929 67.5641C40.1806 67.4683 39.9126 67.4204 39.5889 67.4204H38.4548V74H36.773ZM41.0687 70.3801L43.0457 74H41.1891L39.2549 70.3801H41.0687ZM43.9507 74V66.0455H49.3107V67.4321H45.6325V69.3275H49.0349V70.7141H45.6325V72.6134H49.3262V74H43.9507ZM50.6478 66.0455H52.7219L54.9125 71.3899H55.0057L57.1963 66.0455H59.2704V74H57.6391V68.8226H57.5731L55.5145 73.9612H54.4037L52.3451 68.8031H52.2791V74H50.6478V66.0455ZM62.3378 66.0455V74H60.656V66.0455H62.3378ZM68.6348 66.0455H70.3166V71.2112C70.3166 71.7913 70.1781 72.2988 69.901 72.7338C69.6266 73.1688 69.2421 73.508 68.7475 73.7514C68.2529 73.9922 67.6768 74.1126 67.0191 74.1126C66.3588 74.1126 65.7814 73.9922 65.2868 73.7514C64.7922 73.508 64.4077 73.1688 64.1332 72.7338C63.8587 72.2988 63.7215 71.7913 63.7215 71.2112V66.0455H65.4033V71.0675C65.4033 71.3705 65.4693 71.6398 65.6014 71.8754C65.736 72.1111 65.9251 72.2962 66.1685 72.4308C66.4119 72.5655 66.6954 72.6328 67.0191 72.6328C67.3453 72.6328 67.6289 72.5655 67.8697 72.4308C68.1131 72.2962 68.3008 72.1111 68.4329 71.8754C68.5675 71.6398 68.6348 71.3705 68.6348 71.0675V66.0455ZM71.7003 66.0455H73.7744L75.965 71.3899H76.0582L78.2489 66.0455H80.3229V74H78.6916V68.8226H78.6256L76.5671 73.9612H75.4562L73.3977 68.8031H73.3316V74H71.7003V66.0455Z" fill="#FACB3A"/>
<rect x="1.25" y="1.25" width="107.5" height="107.5" rx="28.75" stroke="white" stroke-width="2.5"/>
</svg>
