<svg width="37" height="34" viewBox="0 0 37 34" fill="none" xmlns="http://www.w3.org/2000/svg">
<path d="M36.3664 16.5935C36.3253 14.2944 35.3968 12.1406 33.7371 10.5192C33.696 10.4788 33.6632 10.4466 33.6385 10.4304C32.1677 9.03486 30.2615 8.17171 28.232 7.97811C27.7144 5.64679 26.3915 3.58168 24.4853 2.12965C22.653 0.734083 20.4674 0 18.1668 0C14.9541 0 11.9961 1.42783 10.0406 3.92049C9.09571 5.12244 8.43017 6.51801 8.10151 7.98617C6.08024 8.17978 4.18222 9.04293 2.73611 10.4224C2.70324 10.4546 2.66216 10.4869 2.62929 10.5192C0.985984 12.1406 0.049299 14.2864 0.00821633 16.5612C-2.0355e-07 16.6258 0 16.6822 0 16.7468C0 16.8113 -2.0355e-07 16.8678 0.00821633 16.9162C0.049299 19.1346 0.936685 21.2481 2.49783 22.8372C2.53891 22.8856 2.58821 22.934 2.62929 22.9824C4.10827 24.4345 6.04737 25.3299 8.11794 25.5154C8.62736 27.8629 9.95844 29.9361 11.8893 31.3881C13.7052 32.7675 15.8743 33.5016 18.1668 33.5016C21.3794 33.5016 24.3456 32.0657 26.3093 29.565C27.246 28.3791 27.9116 26.9836 28.232 25.5235C30.3108 25.3379 32.2581 24.4425 33.7371 22.9905C33.7782 22.9502 33.8275 22.9018 33.8521 22.8695C35.4297 21.2642 36.3171 19.1587 36.3582 16.9484C36.3582 16.8839 36.3664 16.8274 36.3664 16.7629C36.3664 16.6822 36.3664 16.6177 36.3664 16.5935ZM31.9212 21.0625C30.8695 22.0951 29.4481 22.7566 27.8623 22.8372C27.8048 22.1838 27.6979 21.4255 27.4515 20.6915C27.4761 20.6915 27.55 20.6915 27.55 20.6915C28.725 20.6915 29.6288 20.3204 30.3601 19.6266C31.0832 18.707 31.5351 17.7793 31.5351 16.6258C31.5351 15.7061 31.0667 14.6655 30.3683 13.9476C29.6699 13.2377 28.6511 12.7537 27.55 12.7456V12.794C26.3751 12.794 25.422 13.2377 24.6907 13.9556H24.6743C24.5921 14.0363 24.5181 14.117 24.4442 14.1976L25.4384 14.9398L21.0919 16.3757L21.4123 11.8744L22.5462 12.7698C24.0005 10.5756 23.5157 7.59897 21.3712 5.95333C19.087 4.21089 15.7922 4.6223 14.0174 6.86488C12.2673 9.13973 12.6617 12.3342 14.9377 14.0766C15.7593 14.6252 16.6467 15.0447 17.567 15.4077C19.4896 16.1579 21.4862 16.4644 23.0802 17.86C26.0957 20.4091 26.6051 24.8539 24.1155 28C21.5766 31.2348 16.8357 31.864 13.5162 29.3391C11.3224 27.6935 10.2953 25.0959 10.6075 22.5791C10.0324 22.7566 9.4408 22.8453 8.73418 22.8453V22.8614H8.83278H8.73418V22.8453C7.09087 22.8453 5.5133 22.1354 4.38763 21.0303L4.43693 20.998C3.31126 19.8928 2.61286 18.4731 2.61286 16.6258C2.61286 15.0124 3.30305 13.4716 4.4205 12.3665L4.41228 12.4229C5.44756 11.4146 6.82794 10.7531 8.37265 10.6563C8.43017 11.2855 8.52876 12.0035 8.75883 12.7053H8.82456H8.75883C8.76704 12.7375 8.77526 12.7617 8.78348 12.794C8.77526 12.794 8.71774 12.794 8.71774 12.794C7.78106 12.794 6.6061 13.2377 5.89947 13.9476C5.19285 14.6655 4.79846 15.6981 4.79846 16.6258C4.79846 17.7793 5.25037 18.6989 5.97342 19.6266H5.98164C6.71291 20.3204 7.78106 20.6834 8.72596 20.6915C9.90093 20.6915 10.8869 20.2558 11.6182 19.5379H11.6675C11.7414 19.4653 11.8236 19.3846 11.8975 19.304L10.8787 18.5215L15.2088 17.134L14.9212 21.6191L13.7298 20.7076C12.2919 22.934 12.7767 25.9107 14.9623 27.5402C17.2301 29.2504 20.5167 28.839 22.2915 26.5964C24.0334 24.3699 23.6143 21.1432 21.3301 19.4008C21.1001 19.2313 20.8371 19.0781 20.5742 18.9329C18.3064 17.7793 15.6114 17.4244 13.5244 15.9159C10.2049 13.391 9.60513 8.72832 12.1769 5.46932C14.7158 2.23451 19.4732 1.63757 22.7927 4.16249C24.9618 5.81619 25.9807 8.40565 25.6767 10.9144C26.26 10.737 26.8188 10.6402 27.5254 10.6402V10.6321V10.6402C29.1687 10.6402 30.7791 11.2936 31.9048 12.3987L31.8884 12.3665C33.014 13.4716 33.7042 15.0124 33.7042 16.6258C33.7042 18.4731 33.0058 19.8928 31.8884 20.998L31.9212 21.0625Z" fill="#00ADEF"/>
</svg>
