<svg width="406" height="169" viewBox="0 0 406 169" fill="none" xmlns="http://www.w3.org/2000/svg">
<path fill-rule="evenodd" clip-rule="evenodd" d="M254.208 6.66667C258.918 6.66667 262.75 10.4983 262.75 15.2083C262.75 19.9183 258.918 23.75 254.208 23.75C249.498 23.75 245.667 19.9183 245.667 15.2083C245.667 10.4983 249.498 6.66667 254.208 6.66667ZM254.208 7.91667C250.188 7.91667 246.917 11.1875 246.917 15.2083C246.917 19.2292 250.188 22.5 254.208 22.5C258.229 22.5 261.5 19.2292 261.5 15.2083C261.5 11.1875 258.229 7.91667 254.208 7.91667ZM253.859 12.3012C254.292 12.482 257.333 14.0395 257.333 15.2045C257.333 16.2962 254.597 17.8228 253.897 18.1145C253.625 18.2278 253.314 18.3345 253.023 18.3345C252.798 18.3345 252.585 18.2703 252.411 18.097C252.277 17.9645 251.918 17.6103 251.917 15.2778C251.916 12.8012 252.288 12.4328 252.411 12.3103C252.847 11.8787 253.557 12.1745 253.859 12.3012ZM253.278 13.4053C253.131 14.2395 253.128 16.232 253.276 17.0237C254.007 16.7653 255.592 15.7237 256.019 15.2078C255.594 14.707 254.029 13.687 253.278 13.4053Z" fill="#D0D2DA"/>
<g clip-path="url(#clip0_2258_242)">
<path fill-rule="evenodd" clip-rule="evenodd" d="M158.19 55.6015C158.216 55.5914 158.244 55.5838 158.271 55.5785L158.356 55.5469C158.484 55.499 158.625 55.505 158.748 55.5634L163.147 57.6667C163.263 57.722 163.354 57.821 163.4 57.9414L165.552 63.6606C166.152 65.2219 165.414 66.9598 163.87 67.6135L158.867 69.4969L158.799 69.5225C157.257 70.0632 155.566 69.2882 154.959 67.7885L152.397 60.9799C151.85 59.4183 152.66 57.6905 154.196 57.1122L158.113 55.6377C158.137 55.6237 158.163 55.6116 158.19 55.6015ZM158.076 56.7204L154.55 58.0477C153.516 58.4368 152.973 59.5972 153.337 60.639L155.848 67.3121C156.227 68.3897 157.401 68.9531 158.468 68.5786L163.499 66.6852C164.525 66.2503 165.024 65.0745 164.617 64.0165L162.686 58.8837L161.432 59.3562C160.289 59.7828 159.01 59.2012 158.581 58.0606L158.076 56.7204ZM161.033 63.5122C161.292 63.415 161.58 63.5457 161.677 63.8041C161.775 64.0624 161.644 64.3509 161.386 64.4481L158.016 65.716C157.758 65.8132 157.469 65.6825 157.372 65.4241C157.275 65.1658 157.406 64.8773 157.664 64.7801L161.033 63.5122ZM158.876 61.6513C159.135 61.554 159.423 61.6848 159.521 61.9431C159.618 62.2014 159.487 62.49 159.229 62.5872L157.135 63.3752C156.876 63.4724 156.588 63.3416 156.491 63.0833C156.393 62.825 156.524 62.5364 156.783 62.4392L158.876 61.6513ZM159.21 56.8929L159.517 57.7084C159.752 58.3349 160.454 58.6534 161.081 58.4198L161.82 58.1407L159.21 56.8929Z" fill="#D0D2DA"/>
</g>
<g clip-path="url(#clip1_2258_242)">
<path fill-rule="evenodd" clip-rule="evenodd" d="M169.819 2.5228C170.549 2.18564 171.291 2.13857 171.965 2.38737C172.67 2.64696 173.258 3.22622 173.622 4.01826L175.09 7.1937C175.097 7.20555 175.102 7.21774 175.107 7.2302L175.33 7.71537C176.071 9.31814 175.536 10.8719 174.001 11.5812L170.076 13.3941C168.542 14.1028 167.014 13.5018 166.273 11.899L164.565 8.20148C163.825 6.59872 164.358 5.04541 165.892 4.33671L169.819 2.5228ZM172.216 7.38171C171.949 7.505 171.84 8.09133 171.743 8.60935C171.61 9.32068 171.472 10.0567 170.879 10.3305C170.479 10.5157 170.04 10.531 169.653 10.5438C169.038 10.5646 168.773 10.603 168.632 10.8964C168.348 11.4841 168.214 12.3785 168.162 12.8119C168.646 12.9983 169.199 12.9734 169.762 12.7132L173.686 10.9003C174.832 10.3709 175.21 9.24456 174.649 8.02989L174.482 7.66721L174.466 7.66102C173.88 7.43518 172.881 7.07468 172.216 7.38171ZM170.134 3.20366L166.207 5.01758C165.063 5.54617 164.685 6.67276 165.246 7.88697L166.954 11.5845C167.094 11.888 167.268 12.1433 167.468 12.3473C167.548 11.8293 167.696 11.1091 167.956 10.5706C168.308 9.84051 169.039 9.81478 169.628 9.79451C169.974 9.78263 170.302 9.77128 170.565 9.64966C170.806 9.53811 170.912 8.97158 171.006 8.47158C171.135 7.77513 171.283 6.98642 171.902 6.70084C172.58 6.38743 173.387 6.52052 174.044 6.71897L172.941 4.33232C172.656 3.71322 172.229 3.2839 171.706 3.09099C171.223 2.91273 170.679 2.95163 170.134 3.20366ZM167.318 5.9855C167.968 5.68591 168.74 5.9702 169.041 6.61908L169.041 6.61954C169.341 7.26908 169.057 8.0415 168.407 8.34176C167.757 8.64201 166.984 8.35772 166.684 7.70818C166.384 7.05817 166.668 6.28576 167.318 5.9855ZM167.632 6.66658C167.358 6.79322 167.238 7.11904 167.365 7.39366C167.492 7.66782 167.818 7.78774 168.092 7.66089C168.366 7.53424 168.487 7.20821 168.36 6.9345C168.233 6.6601 167.907 6.54039 167.632 6.66658Z" fill="#D0D2DA"/>
</g>
<path d="M342.249 104.033C325.817 82.7986 304.854 65.4976 280.888 53.3908C256.923 41.284 230.558 34.6763 203.716 34.0492C176.873 33.4222 150.228 38.7915 125.724 49.766C101.219 60.7404 79.4712 77.0436 62.0652 97.4875" stroke="#D0D2DA" stroke-dasharray="11 11"/>
<g filter="url(#filter0_d_2258_242)">
<rect x="30.9932" y="45" width="80" height="80" rx="8" transform="rotate(-18 30.9932 45)" fill="url(#paint0_linear_2258_242)" shape-rendering="crispEdges"/>
<path d="M66.4056 90.5115L69.4668 93.1035C70.1057 93.651 70.8805 93.993 71.7127 94.1549L77.3664 87.0588L75.1605 80.225L66.9959 79.5428L60.7724 84.8735C61.0164 85.6292 61.4696 86.3175 62.1086 86.8649L66.4056 90.5115Z" fill="#0066DD"/>
<path d="M79.2038 63.8447L76.6888 54.8264L68.2635 54.5633C67.6831 55.1816 67.2545 55.9124 67.0563 56.7303L60.693 82.4796C60.4949 83.2976 60.5295 84.121 60.7735 84.8768L75.1616 80.2283L79.2038 63.8447Z" fill="#00AD3C"/>
<path d="M79.2032 63.8433L84.9878 58.1335L82.6508 49.9134C81.8185 49.7515 80.9445 49.8185 80.1075 50.0889L70.4283 53.216C69.5911 53.4865 68.851 53.9679 68.2627 54.5619L79.2032 63.8433Z" fill="#00831E"/>
<path d="M92.0604 74.7675L75.161 80.2274L71.7134 94.1572C72.5456 94.3191 73.4196 94.2521 74.2567 93.9817L100.835 85.3947C101.672 85.1242 102.413 84.6428 103.001 84.0488L100.5 76.2572L92.0604 74.7675Z" fill="#0084FF"/>
<path d="M103 84.047C103.581 83.4287 104.009 82.698 104.207 81.8801L104.612 80.2687L106.528 72.5144C106.727 71.6965 106.692 70.8731 106.448 70.1172L96.8118 68.742L92.0861 74.7573L103 84.047Z" fill="#FF4131"/>
<path d="M95.0041 59.5446L84.8965 50.9633C84.2575 50.4158 83.4827 50.0738 82.6504 49.9119L79.2027 63.8419L92.0598 74.7658L106.422 70.1257C106.178 69.37 105.724 68.6817 105.085 68.1342L95.0041 59.5446Z" fill="#FFBA00"/>
</g>
<g filter="url(#filter1_d_2258_242)">
<rect width="80" height="80" rx="8" transform="matrix(-0.951057 -0.309017 -0.309017 0.951057 374.799 45)" fill="url(#paint1_linear_2258_242)" shape-rendering="crispEdges"/>
<path d="M339.387 90.5115L336.325 93.1035C335.687 93.651 334.912 93.993 334.08 94.1549L328.426 87.0588L330.632 80.225L338.796 79.5428L345.02 84.8735C344.776 85.6292 344.323 86.3175 343.684 86.8649L339.387 90.5115Z" fill="#0066DD"/>
<path d="M326.588 63.8447L329.103 54.8264L337.529 54.5633C338.109 55.1816 338.538 55.9124 338.736 56.7303L345.099 82.4796C345.297 83.2976 345.263 84.121 345.019 84.8768L330.631 80.2283L326.588 63.8447Z" fill="#00AD3C"/>
<path d="M326.589 63.8433L320.804 58.1335L323.141 49.9134C323.974 49.7515 324.848 49.8185 325.685 50.0889L335.364 53.216C336.201 53.4865 336.941 53.9679 337.53 54.5619L326.589 63.8433Z" fill="#00831E"/>
<path d="M313.732 74.7675L330.631 80.2274L334.079 94.1572C333.247 94.3191 332.373 94.2521 331.536 93.9817L304.957 85.3947C304.12 85.1242 303.38 84.6428 302.791 84.0488L305.292 76.2572L313.732 74.7675Z" fill="#0084FF"/>
<path d="M302.792 84.047C302.212 83.4287 301.783 82.698 301.585 81.8801L301.181 80.2687L299.264 72.5144C299.066 71.6965 299.1 70.8731 299.344 70.1172L308.98 68.742L313.706 74.7573L302.792 84.047Z" fill="#FF4131"/>
<path d="M310.788 59.5446L320.896 50.9633C321.535 50.4158 322.31 50.0738 323.142 49.9119L326.59 63.8419L313.732 74.7658L299.371 70.1257C299.615 69.37 300.068 68.6817 300.707 68.1342L310.788 59.5446Z" fill="#FFBA00"/>
</g>
<path d="M247.802 57.0043L241.431 54.7915L240.508 52.8828L236.968 51.6534C236.189 51.383 235.331 51.7993 235.06 52.5787L234.076 55.4126L248.234 60.3299L248.726 58.913C248.997 58.1336 248.581 57.2747 247.802 57.0043Z" fill="#A1A5B6"/>
<path d="M247.43 58.8875L236.895 53.1416C236.17 52.7466 235.255 53.016 234.86 53.7402L231.268 60.3246C230.873 61.0488 231.143 61.9646 231.867 62.3597L242.402 68.1056C243.126 68.5006 244.042 68.2312 244.437 67.507L248.028 60.9227C248.423 60.1984 248.154 59.2826 247.43 58.8875Z" fill="url(#paint2_linear_2258_242)"/>
<g filter="url(#filter2_d_2258_242)">
<circle cx="203" cy="34" r="12" fill="white"/>
</g>
<g clip-path="url(#clip2_2258_242)">
<path d="M208.647 28.1421C208.903 28.3198 209.038 28.6271 208.99 28.9343L207.365 39.4968C207.327 39.7431 207.177 39.9589 206.958 40.0808C206.74 40.2026 206.478 40.2179 206.247 40.1214L203.211 38.8595L201.471 40.7409C201.245 40.9872 200.89 41.0685 200.578 40.9466C200.265 40.8247 200.062 40.5226 200.062 40.1874V38.0648C200.062 37.9632 200.1 37.8667 200.169 37.7931L204.424 33.1491C204.572 32.9892 204.567 32.7429 204.414 32.5905C204.262 32.4382 204.016 32.428 203.856 32.5728L198.691 37.1609L196.449 36.0386C196.18 35.904 196.007 35.6349 196 35.3353C195.992 35.0357 196.15 34.7564 196.409 34.6066L207.784 28.1066C208.055 27.9517 208.39 27.9669 208.647 28.1421V28.1421Z" fill="#D0D2DA"/>
</g>
<defs>
<filter id="filter0_d_2258_242" x="-2.00684" y="3.27864" width="166.806" height="166.806" filterUnits="userSpaceOnUse" color-interpolation-filters="sRGB">
<feFlood flood-opacity="0" result="BackgroundImageFix"/>
<feColorMatrix in="SourceAlpha" type="matrix" values="0 0 0 0 0 0 0 0 0 0 0 0 0 0 0 0 0 0 127 0" result="hardAlpha"/>
<feOffset dy="16"/>
<feGaussianBlur stdDeviation="16.5"/>
<feComposite in2="hardAlpha" operator="out"/>
<feColorMatrix type="matrix" values="0 0 0 0 0 0 0 0 0 0 0 0 0 0 0 0 0 0 0.08 0"/>
<feBlend mode="normal" in2="BackgroundImageFix" result="effect1_dropShadow_2258_242"/>
<feBlend mode="normal" in="SourceGraphic" in2="effect1_dropShadow_2258_242" result="shape"/>
</filter>
<filter id="filter1_d_2258_242" x="240.993" y="3.27864" width="166.806" height="166.806" filterUnits="userSpaceOnUse" color-interpolation-filters="sRGB">
<feFlood flood-opacity="0" result="BackgroundImageFix"/>
<feColorMatrix in="SourceAlpha" type="matrix" values="0 0 0 0 0 0 0 0 0 0 0 0 0 0 0 0 0 0 127 0" result="hardAlpha"/>
<feOffset dy="16"/>
<feGaussianBlur stdDeviation="16.5"/>
<feComposite in2="hardAlpha" operator="out"/>
<feColorMatrix type="matrix" values="0 0 0 0 0 0 0 0 0 0 0 0 0 0 0 0 0 0 0.08 0"/>
<feBlend mode="normal" in2="BackgroundImageFix" result="effect1_dropShadow_2258_242"/>
<feBlend mode="normal" in="SourceGraphic" in2="effect1_dropShadow_2258_242" result="shape"/>
</filter>
<filter id="filter2_d_2258_242" x="181" y="18" width="44" height="44" filterUnits="userSpaceOnUse" color-interpolation-filters="sRGB">
<feFlood flood-opacity="0" result="BackgroundImageFix"/>
<feColorMatrix in="SourceAlpha" type="matrix" values="0 0 0 0 0 0 0 0 0 0 0 0 0 0 0 0 0 0 127 0" result="hardAlpha"/>
<feOffset dy="6"/>
<feGaussianBlur stdDeviation="5"/>
<feComposite in2="hardAlpha" operator="out"/>
<feColorMatrix type="matrix" values="0 0 0 0 0.372396 0 0 0 0 0.475177 0 0 0 0 0.595833 0 0 0 0.17 0"/>
<feBlend mode="normal" in2="BackgroundImageFix" result="effect1_dropShadow_2258_242"/>
<feBlend mode="normal" in="SourceGraphic" in2="effect1_dropShadow_2258_242" result="shape"/>
</filter>
<linearGradient id="paint0_linear_2258_242" x1="37.4797" y1="85" x2="107.209" y2="85" gradientUnits="userSpaceOnUse">
<stop stop-color="white"/>
<stop offset="1" stop-color="white"/>
</linearGradient>
<linearGradient id="paint1_linear_2258_242" x1="6.48649" y1="40" x2="76.2162" y2="40" gradientUnits="userSpaceOnUse">
<stop stop-color="white"/>
<stop offset="1" stop-color="white"/>
</linearGradient>
<linearGradient id="paint2_linear_2258_242" x1="242.162" y1="56.0146" x2="237.135" y2="65.2326" gradientUnits="userSpaceOnUse">
<stop stop-color="#D7DCF4"/>
<stop offset="1" stop-color="#D0D2DA"/>
</linearGradient>
<clipPath id="clip0_2258_242">
<rect width="16" height="16" fill="white" transform="translate(149 57.6348) rotate(-20.6214)"/>
</clipPath>
<clipPath id="clip1_2258_242">
<rect width="12" height="12" fill="white" transform="translate(162 5.0332) rotate(-24.7937)"/>
</clipPath>
<clipPath id="clip2_2258_242">
<rect width="13" height="13" fill="white" transform="translate(196 28)"/>
</clipPath>
</defs>
</svg>
