<svg width="144" height="171" viewBox="0 0 144 171" fill="none" xmlns="http://www.w3.org/2000/svg">
<path d="M128.189 133.851H28.7485C24.0996 133.851 20.3345 130.055 20.3345 125.375V52.3022C20.3345 47.6192 24.1023 43.8266 28.7485 43.8266H128.189C132.838 43.8266 136.606 47.622 136.606 52.3022V125.372C136.606 130.055 132.838 133.851 128.189 133.851Z" fill="#5454E1"/>
<path opacity="0.8" d="M114.337 79.6401L87.6946 76.7786C86.0918 76.6071 84.9323 75.1586 85.1025 73.5441L87.9432 46.7071C88.1135 45.0925 89.5514 43.9245 91.1542 44.0961L117.796 46.9576C119.399 47.1291 120.559 48.5775 120.388 50.192L117.548 77.0291C117.377 78.6436 115.939 79.8143 114.337 79.6401Z" fill="#8282F8"/>
<path d="M114.482 75.7429L115.455 66.5431L112.09 62.0372L93.0784 73.4423L114.482 75.7429Z" fill="url(#paint0_linear_1410_2069)"/>
<path d="M88.373 72.934L89.3461 63.737L100.349 57.4422L114.483 75.7411L88.373 72.934Z" fill="url(#paint1_linear_1410_2069)"/>
<path opacity="0.8" d="M133.759 64.2186L108.701 73.7697C107.193 74.3441 105.509 73.5791 104.939 72.0598L95.4572 46.8183C94.8869 45.2991 95.6464 43.6029 97.1546 43.0284L122.213 33.4774C123.721 32.9029 125.405 33.668 125.975 35.1872L135.457 60.4287C136.024 61.948 135.265 63.6442 133.759 64.2186Z" fill="#A8A8FF"/>
<path d="M132.14 60.6706L128.891 52.018L123.869 49.5268L112.006 68.3457L132.14 60.6706Z" fill="url(#paint2_linear_1410_2069)"/>
<path d="M107.582 70.0289L104.33 61.3764L111.331 50.7608L132.14 60.6685L107.582 70.0289Z" fill="url(#paint3_linear_1410_2069)"/>
<path opacity="0.8" d="M133.044 54.5632L106.891 48.7041C105.318 48.3528 104.326 46.7819 104.677 45.1973L110.494 18.8531C110.843 17.2685 112.402 16.2693 113.975 16.6233L140.128 22.4824C141.701 22.8336 142.693 24.4045 142.342 25.9891L136.525 52.3333C136.177 53.9152 134.617 54.9144 133.044 54.5632Z" fill="#8282F8"/>
<path d="M133.622 50.7025L135.617 41.6715L132.776 36.8143L112.61 45.995L133.622 50.7025Z" fill="url(#paint4_linear_1410_2069)"/>
<path d="M107.991 44.961L109.986 35.93L121.619 30.9204L133.622 50.703L107.991 44.961Z" fill="url(#paint5_linear_1410_2069)"/>
<path opacity="0.8" d="M106.007 53.6672L88.306 60.4139C87.2411 60.8196 86.0518 60.2805 85.6491 59.2078L78.9514 41.3773C78.5487 40.3045 79.0839 39.1066 80.1488 38.7009L97.8498 31.9542C98.9147 31.5485 100.104 32.0876 100.507 33.1603L107.204 50.9909C107.607 52.0636 107.072 53.2616 106.007 53.6672Z" fill="#A8A8FF"/>
<path d="M104.864 51.161L102.57 45.0487L99.0207 43.2872L90.6418 56.5791L104.864 51.161Z" fill="url(#paint6_linear_1410_2069)"/>
<path d="M87.5167 57.7748L85.2192 51.6624L90.1655 44.1643L104.864 51.1642L87.5167 57.7748Z" fill="url(#paint7_linear_1410_2069)"/>
<path opacity="0.6" d="M78.6514 36.9718L66.9237 32.5285C66.2182 32.2617 65.8614 31.4694 66.1263 30.7588L70.5374 18.9453C70.8023 18.2347 71.5888 17.8753 72.2942 18.1421L84.022 22.5854C84.7274 22.8522 85.0842 23.6445 84.8193 24.3551L80.4082 36.1686C80.1461 36.8793 79.3568 37.2386 78.6514 36.9718Z" fill="#8282F8"/>
<path d="M74.9512 22.6434C74.6079 22.1724 73.8836 22.2732 73.6781 22.8204L72.351 26.3735L71.0239 29.9265C70.8185 30.4737 71.2996 31.0319 71.8645 30.9039L78.6055 29.4037C79.1217 29.2894 79.3487 28.6768 79.0379 28.2493L74.9512 22.6434Z" fill="url(#paint8_linear_1410_2069)"/>
<path opacity="0.5" d="M111.153 43.65L92.9548 36.7563C91.8601 36.3424 91.306 35.1118 91.7196 34.0092L98.5632 15.6777C98.974 14.575 100.196 14.0168 101.29 14.4334L119.489 21.3271C120.583 21.741 121.137 22.9716 120.724 24.0743L113.88 42.4058C113.469 43.5057 112.248 44.0638 111.153 43.65Z" fill="#B1B1FB"/>
<path d="M105.412 21.4178C104.88 20.6881 103.752 20.8433 103.436 21.6928L101.379 27.2034L99.3225 32.714C99.0063 33.5635 99.7496 34.4266 100.628 34.2305C115.291 30.7347 114.126 33.7622 105.412 21.4178Z" fill="url(#paint9_linear_1410_2069)"/>
<path opacity="0.5" d="M99.682 37.8884L87.1975 52.9011C86.4461 53.805 85.1109 53.922 84.2136 53.1651L69.31 40.5893C68.4126 39.8324 68.2964 38.4874 69.0478 37.5835L81.5323 22.5709C82.2837 21.667 83.6189 21.5499 84.5163 22.3068L99.4199 34.8827C100.314 35.6423 100.433 36.9873 99.682 37.8884Z" fill="#B1B1FB"/>
<path d="M76.9559 35.982C76.0937 36.2461 75.8693 37.3678 76.5586 37.9505L81.0399 41.7322L85.5212 45.514C86.2105 46.0966 87.2673 45.6746 87.3754 44.7761C88.9566 29.6791 91.4054 31.7892 76.9559 35.982Z" fill="url(#paint10_linear_1410_2069)"/>
<path opacity="0.4" d="M72.0188 41.7176L59.0261 45.0202C58.245 45.219 57.4504 44.7425 57.253 43.9557L53.9745 30.8679C53.7772 30.0811 54.2502 29.2806 55.0313 29.0819L68.024 25.7793C68.8051 25.5806 69.5997 26.057 69.797 26.8439L73.0756 39.9316C73.2729 40.7184 72.7999 41.5189 72.0188 41.7176Z" fill="#8282F8"/>
<path d="M67.6207 34.4028L66.772 31.0104C66.5774 30.1609 65.6071 29.6381 64.7962 29.9513L60.3067 31.5794C58.1985 32.2165 60.2905 36.1316 60.3743 37.4494C58.6715 38.8706 60.2095 41.8846 62.3771 41.2556C64.7908 40.7166 64.3908 36.9484 61.9609 36.8913L61.0149 33.1177L65.1908 31.6039L65.9963 34.8166C64.78 35.9247 65.9638 38.1192 67.5693 37.6509C69.2046 37.2942 69.2127 34.7975 67.6207 34.4028Z" fill="url(#paint11_linear_1410_2069)"/>
<path opacity="0.5" d="M99.1335 27.2745L86.1409 30.577C85.3597 30.7758 84.5651 30.2993 84.3678 29.5125L81.0892 16.4248C80.8919 15.6379 81.3649 14.8375 82.146 14.6387L95.1387 11.3362C95.9198 11.1374 96.7145 11.6139 96.9118 12.4007L100.19 25.4884C100.39 26.2753 99.9173 27.0757 99.1335 27.2745Z" fill="#B1B1FB"/>
<path d="M94.7386 19.9598L93.8899 16.5674C93.6953 15.7179 92.725 15.1952 91.9141 15.5083L87.4247 17.1364C85.3164 17.7735 87.4084 21.6887 87.4922 23.0064C85.7894 24.4276 87.3274 27.4416 89.4951 26.8127C91.9087 26.2736 91.5087 22.5054 89.0788 22.4483L88.1328 18.6747L92.3087 17.1609L93.1142 20.3736C91.8979 21.4817 93.0818 23.6762 94.6873 23.2079C96.3225 22.8512 96.3306 20.3518 94.7386 19.9598Z" fill="url(#paint12_linear_1410_2069)"/>
<path d="M143.906 68.5845V131.023C143.906 135.706 140.139 139.498 135.49 139.498H21.4479C16.799 139.498 13.0339 135.703 13.0339 131.023V46.6455C13.0339 41.9626 16.8017 38.17 21.4479 38.17H74.2051C77.1674 38.17 79.9135 39.7409 81.4325 42.3029L89.5303 55.9733C91.0493 58.538 93.7927 60.1062 96.7577 60.1062H135.492C140.139 60.109 143.906 63.9043 143.906 68.5845Z" fill="url(#paint13_linear_1410_2069)"/>
<path opacity="0.8" d="M30.7112 18.7284L25.2053 11.963C24.8738 11.5566 24.9322 10.957 25.3345 10.6242L32.0324 5.09579C32.4347 4.76297 33.0298 4.82352 33.3612 5.22991L38.8671 11.9954C39.1985 12.4018 39.1402 13.0013 38.7379 13.3341L32.0411 18.8634C31.6368 19.1965 31.0417 19.1359 30.7112 18.7284Z" fill="#9696FF"/>
<path d="M31.6204 17.8647L33.9159 15.9704L34.1527 14.1628L27.1994 12.4309L31.6204 17.8647Z" fill="#EEB9FF"/>
<path d="M26.2271 11.2354L28.5228 9.34092L32.479 10.4129L31.6215 17.8649L26.2271 11.2354Z" fill="#EEB9FF"/>
<path opacity="0.6" d="M17.0233 36.4107L13.8488 32.5101C13.6579 32.2751 13.6911 31.9293 13.9237 31.7376L17.7848 28.5496C18.0173 28.3579 18.3606 28.3925 18.5514 28.6274L21.726 32.528C21.9168 32.763 21.8836 33.1088 21.651 33.3005L17.79 36.4885C17.5574 36.6801 17.2142 36.6456 17.0233 36.4107Z" fill="#9696FF"/>
<path d="M17.5471 35.9104L18.8702 34.8184L19.0079 33.7767L14.9979 32.7768L17.5471 35.9104Z" fill="#EEB9FF"/>
<path d="M14.4383 32.0893L15.7615 30.9972L18.0418 31.6146L17.5482 35.9112L14.4383 32.0893Z" fill="#EEB9FF"/>
<path opacity="0.8" d="M21.7519 24.6173L14.5134 23.2096C14.0788 23.1247 13.7919 22.7006 13.875 22.2629L15.2505 14.9718C15.3336 14.5341 15.7534 14.2462 16.188 14.3312L23.4265 15.7388C23.8611 15.8238 24.148 16.2478 24.065 16.6855L22.6894 23.9766C22.6075 24.4152 22.1876 24.7031 21.7519 24.6173Z" fill="#9696FF"/>
<path d="M18.1765 16.6787C17.9304 16.4401 17.5208 16.5702 17.4572 16.9084L17.0436 19.1L16.6299 21.2916C16.5663 21.6298 16.9001 21.9049 17.2152 21.775L20.971 20.2329C21.2583 20.1156 21.3292 19.7376 21.105 19.5199L18.1765 16.6787Z" fill="#EEB9FF"/>
<path opacity="0.4" d="M8.85172 39.5863L4.64775 38.0649C4.39409 37.9736 4.26261 37.6926 4.3536 37.4381L5.8509 33.2057C5.94077 32.9503 6.21919 32.8186 6.47198 32.911L10.676 34.4324C10.9296 34.5237 11.0611 34.8047 10.9701 35.0592L9.4728 39.2917C9.38269 39.5451 9.10539 39.6776 8.85172 39.5863Z" fill="#9696FF"/>
<path d="M8.97894 36.7429C9.87653 34.6403 9.15023 35.1145 7.47187 34.5924C6.76319 34.3654 6.63493 35.8546 6.41206 36.2273C5.6799 36.3009 5.5508 37.4228 6.26822 37.655C7.03582 37.9578 7.61628 36.8411 6.95531 36.3709L7.38614 35.1503L8.81988 35.5134L8.45234 36.5524C7.91259 36.6305 7.83734 37.4593 8.36775 37.631C8.8863 37.839 9.34601 37.1502 8.97894 36.7429Z" fill="#EEB9FF"/>
<path d="M33.3855 27.0196L31.9485 26.8463L31.8844 26.8395L31.0714 24.0191C30.7577 22.9012 30.8083 22.7856 29.9009 21.525C30.0358 20.9677 30.363 20.8691 30.8555 21.0526C32.3972 22.8536 32.8829 25.6774 33.3855 27.0196Z" fill="#FFD6D6"/>
<path d="M32.6509 26.6674C32.2393 26.7728 31.6186 26.9325 31.2138 27.0378L30.2288 25.3252C29.598 24.2922 29.3517 23.4325 28.1475 22.5728C28.2284 21.917 28.5388 21.8185 29.119 21.9204C30.836 23.0757 31.9459 25.7024 32.6509 26.6674Z" fill="#FFD6D6"/>
<path d="M32.3034 27.7098L31.1463 28.3419L28.8929 25.6336C28.9672 25.6506 27.3176 24.7977 26.6058 24.3526C26.4405 24.0094 26.8926 23.6084 27.1354 23.6016C28.1306 23.9992 29.5305 24.7468 30.2254 25.3278C30.7415 25.8409 31.8345 27.2783 32.3034 27.7098Z" fill="#FFD6D6"/>
<path d="M32.4249 24.5215C33.4166 26.9477 34.7862 22.007 35.3968 22.2312C36.0175 22.024 36.1288 22.0953 36.1389 22.4589C36.149 22.8259 35.2214 23.1181 35.3631 24.3176C35.5047 25.5205 34.8166 26.5637 35.2045 27.7564C35.5924 28.9491 32.8904 31.8307 31.3724 30.9913C29.851 30.1486 30.6775 26.1593 30.6775 26.1593L32.4249 24.5215Z" fill="#FFD6D6"/>
<path d="M33.153 27.2164L31.3483 27.4883C30.4071 26.0543 23.4749 25.7655 27.1822 27.1688C30.3464 27.1179 29.1657 28.9664 30.9131 30.5499C32.249 31.6236 33.153 27.2164 33.153 27.2164Z" fill="#FFD6D6"/>
<path d="M30.2456 27.9206C30.303 27.9715 30.3637 28.0191 30.4311 28.0599C30.3637 28.0191 30.303 27.9715 30.2456 27.9206Z" fill="url(#paint14_linear_1410_2069)"/>
<path d="M30.2456 27.9206C30.303 27.9715 30.3637 28.0191 30.4311 28.0599C30.3637 28.0191 30.2996 27.9715 30.2456 27.9206Z" fill="url(#paint15_linear_1410_2069)"/>
<path d="M30.6736 30.2879C32.475 35.4767 34.7014 51.9877 40.5541 53.3503C43.7217 53.9415 46.9938 52.392 50.0164 51.6784C62.798 49.9658 63.1758 44.6174 67.3857 36.2378C67.3857 36.2378 48.134 40.9611 42.5309 45.7353C42.5646 45.8169 42.595 45.8712 42.6152 45.929C42.6051 45.9222 42.5478 45.8814 42.4466 45.8101C43.2393 45.4193 39.9975 40.2611 39.7243 39.6936C38.2636 37.1179 36.8772 34.481 35.9124 31.6743C35.6628 30.9335 35.484 29.8156 34.7284 29.4112C34.1346 29.7646 32.2422 30.5495 30.6736 30.2879Z" fill="#B0B0FC"/>
<path d="M33.2649 40.1936C36.7259 51.1828 37.2758 56.4226 50.0136 51.6755C52.2804 51.1387 55.5121 50.6731 58.0725 49.5654C59.5061 43.7785 44.8523 56.0216 40.2106 51.4751C36.0175 48.2299 33.3459 40.4383 33.2649 40.1936Z" fill="#7979FB"/>
<path d="M107.117 35.4737C107.191 35.4499 107.262 35.4159 107.329 35.3786C107.259 35.4159 107.191 35.4499 107.117 35.4737Z" fill="url(#paint16_linear_1410_2069)"/>
<path d="M107.117 35.4737C107.191 35.4465 107.262 35.4159 107.329 35.3786C107.262 35.4159 107.191 35.4499 107.117 35.4737Z" fill="url(#paint17_linear_1410_2069)"/>
<path d="M106.402 37.596C103.531 42.2717 97.8236 57.9094 91.8191 57.9705C88.6009 57.8584 85.7336 55.6361 82.937 54.2837C70.8234 49.8357 71.5992 44.5313 69.2817 35.4348C69.2817 35.4348 87.0694 44.2255 91.5188 50.1075C91.4682 50.1789 91.4278 50.2264 91.394 50.2774C91.4041 50.274 91.4716 50.2468 91.5863 50.1958C90.8948 49.642 95.1654 45.3095 95.5534 44.8134C97.5301 42.6149 99.4462 40.3416 100.995 37.8134C101.396 37.144 101.811 36.0906 102.634 35.8596C103.133 36.3353 104.813 37.511 106.402 37.596Z" fill="#B0B0FC"/>
<path opacity="0.5" d="M101.749 46.7112C95.9236 56.749 94.4798 61.6795 82.9362 54.2854C80.8346 53.2694 77.7817 52.1107 75.5182 50.4728C75.3597 44.5093 87.0449 59.6475 92.5536 56.2155C97.3404 53.9626 101.618 46.9321 101.749 46.7112Z" fill="#7979FB"/>
<path d="M107.742 27.6062C107.739 27.6096 107.739 27.6096 107.739 27.6096C107.135 28.6052 106.585 29.5533 106.585 29.5533C106.393 30.7562 106.13 32.4076 105.941 33.6105L105.863 33.6275L104.2 33.9741C104.598 31.361 105.047 28.8669 107.337 26.2096C107.863 26.2164 107.86 27.3887 107.742 27.6062Z" fill="#FFD6D6"/>
<path d="M108.443 30.3063C107.971 31.2816 107.249 32.7495 106.78 33.7145C106.281 33.667 105.515 33.5888 105.009 33.5412C105.866 32.1956 106.372 30.1398 108.089 28.8112C108.615 28.8961 108.592 30.1058 108.443 30.3063Z" fill="#FFD6D6"/>
<path d="M109.004 32.4458C108.447 33.1764 107.655 34.2162 107.098 34.9468L105.614 34.4915C106.646 33.4177 107.277 31.9735 108.68 31.2124C109.324 31.2871 109.119 32.1536 109.004 32.4458Z" fill="#FFD6D6"/>
<path d="M104.878 31.4825C104.233 33.8883 101.575 29.4097 100.938 29.6782C100.165 29.5592 100.047 29.6408 100.101 29.9874C100.155 30.334 101.309 30.4971 101.363 31.6524C101.42 32.8077 102.422 33.7116 102.186 34.8907C103.154 38.1664 110.491 39.8213 107.253 32.8145L104.878 31.4825Z" fill="#FFD6D6"/>
<path d="M109.391 33.882C109.071 34.0485 108.956 34.3713 108.882 34.7689C107.863 39.6451 105.239 35.8835 104.517 34.1267C105.023 34.1335 106.21 34.1539 106.703 34.1607C107.03 33.9398 107.34 33.7121 107.543 33.5354C107.813 33.2908 108.629 33.0359 109.128 32.9034V32.9068C109.506 32.9238 109.53 33.7019 109.391 33.882Z" fill="#FFD6D6"/>
<path d="M92.6249 43.4313C92.6453 43.4586 92.6657 43.4826 92.686 43.5099C92.5876 43.5509 92.5265 43.5749 92.5164 43.5817C92.5435 43.5373 92.5808 43.4928 92.6249 43.4313Z" fill="url(#paint18_linear_1410_2069)"/>
<path d="M92.6833 43.5099C92.5849 43.5509 92.5239 43.5749 92.5137 43.5817C92.5442 43.5373 92.5781 43.4962 92.6223 43.4313C92.646 43.4586 92.6664 43.4826 92.6833 43.5099Z" fill="url(#paint19_linear_1410_2069)"/>
<path d="M106.246 30.6491C106.31 30.6287 106.375 30.5981 106.432 30.5641C106.371 30.5981 106.31 30.6253 106.246 30.6491Z" fill="url(#paint20_linear_1410_2069)"/>
<path d="M92.6249 43.4313C92.6453 43.4586 92.6657 43.4826 92.686 43.5099C92.5876 43.5509 92.5265 43.5749 92.5164 43.5817C92.5435 43.5373 92.5808 43.4928 92.6249 43.4313Z" fill="url(#paint21_linear_1410_2069)"/>
<path d="M106.246 30.6491C106.31 30.6253 106.371 30.5981 106.432 30.5641C106.371 30.5981 106.31 30.6287 106.246 30.6491Z" fill="url(#paint22_linear_1410_2069)"/>
<path d="M81.277 165.092C81.277 165.092 85.551 168.248 89.8419 166.957C89.8082 171.215 75.5726 171.939 72.0576 169.93C73.1168 163.783 76.0449 163.08 81.277 165.092Z" fill="url(#paint23_linear_1410_2069)"/>
<path d="M80.9334 161.645C80.9334 161.645 80.903 163.874 80.9469 164.988C80.9637 165.478 76.629 165.872 74.7163 164.516L75.4112 161.835L79.692 160.296L80.9334 161.645Z" fill="url(#paint24_linear_1410_2069)"/>
<path d="M53.048 164.505C44.4528 171.722 63.9001 173.523 58.4623 165.551L53.048 164.505Z" fill="url(#paint25_linear_1410_2069)"/>
<path d="M53.0476 164.505C53.0476 164.505 55.3246 166.849 58.4584 165.551C58.6102 164.359 58.9071 162.853 59.3186 161.107C58.1616 161.504 56.1443 161.756 53.4557 160.397C53.142 162.881 52.97 164.488 53.0476 164.505Z" fill="url(#paint26_linear_1410_2069)"/>
<path d="M73.802 71.8959C69.8552 89.0185 67.9257 120.423 65.0212 136.006C62.6228 147.883 59.3169 161.104 59.3169 161.104C59.3169 161.104 54.7291 164.502 53.454 160.394C54.0781 154.94 54.9282 126.441 53.0256 103.494C51.1264 80.5438 58.8952 70.3294 58.8952 70.3294C58.8952 70.3294 77.4115 56.9955 73.802 71.8959Z" fill="#5959EB"/>
<path d="M71.9533 17.6116C71.9533 17.6116 70.2632 27.109 74.2607 27.843C74.2607 27.843 69.3153 33.1507 64.6567 25.9163C64.6567 25.9163 65.5878 20.962 64.6567 17.0747L71.9533 17.6116Z" fill="url(#paint27_linear_1410_2069)"/>
<path d="M78.8108 30.7188C78.8445 30.8139 79.9813 33.9571 80.9933 36.5804C80.3052 34.1644 79.499 31.728 78.8108 30.7188Z" fill="url(#paint28_linear_1410_2069)"/>
<path opacity="0.3" d="M76.1122 48.4674C76.0717 48.4776 75.93 48.515 75.6973 48.5728C75.8693 48.5422 76.0076 48.5082 76.1122 48.4674Z" fill="url(#paint29_linear_1410_2069)"/>
<path opacity="0.5" d="M71.0422 87.9969C70.1483 94.5959 69.3083 101.939 68.519 108.973C63.1284 100.175 66.2217 83.2669 66.2217 83.2669L71.0422 87.9969Z" fill="#4217BA"/>
<path d="M73.009 120.244C70.5734 133.448 74.8542 161.771 75.4108 161.836C78.801 163.514 80.933 161.642 80.933 161.642C81.7426 149.27 86.9881 83.5348 80.3325 69.9801L72.061 67.5573C70.0843 70.1024 67.6352 73.6635 66.3466 79.2703C64.5351 88.7848 71.5483 112.523 73.009 120.244Z" fill="#5959EB"/>
<path d="M83.3183 43.5207C83.3993 46.0319 82.0297 47.9381 81.4191 50.2318C80.0158 55.9575 79.5942 65.805 80.2688 69.9234C78.4405 71.6054 66.5157 73.6612 58.902 70.3311C57.3233 64.4763 54.8878 52.726 54.2671 45.2061C54.149 39.963 52.7592 33.0786 55.9369 29.9966C57.9508 28.5932 62.1877 25.868 64.6603 25.9189C64.6603 25.9189 65.9253 27.0743 70.2264 27.2408C72.7564 27.2408 72.2268 26.1908 72.1222 25.9359C73.6031 28.3587 77.1282 28.6543 78.8014 30.8325C79.5705 32.5825 80.1946 34.414 80.8659 36.2217C81.7059 38.7159 83.4364 40.6698 83.3183 43.5207Z" fill="#B0B0FC"/>
<path d="M98.825 43.9059C98.852 43.9365 98.8722 43.9671 98.8958 43.9977C98.7777 44.0486 98.7103 44.0758 98.6968 44.0792C98.7305 44.0282 98.771 43.9773 98.825 43.9059Z" fill="url(#paint30_linear_1410_2069)"/>
<path d="M98.8929 43.9993C98.7748 44.0503 98.7073 44.0775 98.6938 44.0809C98.7276 44.0299 98.7681 43.9789 98.822 43.9042C98.849 43.9381 98.8726 43.9687 98.8929 43.9993Z" fill="url(#paint31_linear_1410_2069)"/>
<path d="M114.98 28.7414C115.058 28.7142 115.132 28.6802 115.2 28.6428C115.129 28.6802 115.058 28.7142 114.98 28.7414Z" fill="url(#paint32_linear_1410_2069)"/>
<path d="M98.825 43.9059C98.852 43.9365 98.8722 43.9671 98.8958 43.9977C98.7777 44.0486 98.7103 44.0758 98.6968 44.0792C98.7305 44.0282 98.771 43.9773 98.825 43.9059Z" fill="url(#paint33_linear_1410_2069)"/>
<path d="M114.98 28.7414C115.058 28.7142 115.129 28.6802 115.2 28.6428C115.132 28.6802 115.058 28.7142 114.98 28.7414Z" fill="url(#paint34_linear_1410_2069)"/>
<path opacity="0.5" d="M79.719 70.1954C78.4675 71.5784 65.9591 73.5764 58.9021 70.3279C57.8563 66.4881 55.8694 57.4426 55.043 51.5436C57.6674 62.9372 61.9381 73.4473 79.719 70.1954Z" fill="#7979FB"/>
<path opacity="0.5" d="M81.4191 50.2323C81.0311 51.5541 80.7849 52.9167 80.6533 54.2929C78.4944 55.6114 78.1233 60.5861 78.3459 57.7283C78.5922 54.6089 81.3347 50.3614 81.4191 50.2323Z" fill="#7979FB"/>
<path d="M44.3993 22.0895C48.3596 20.258 52.89 19.4934 55.9328 16.0512C58.8271 13.6896 60.3147 10.0911 63.1112 7.66826C66.9062 4.44693 69.5847 7.61049 70.2256 9.99251C74.1556 6.54351 78.7771 15.4158 80.1736 18.09C83.1186 23.69 78.713 30.6559 82.6395 35.9704C85.1021 39.3073 83.3075 46.0965 77.6706 46.5315C72.0337 46.9664 69.9051 45.9266 66.6937 47.313C63.4823 48.6994 61.5393 46.0456 61.5393 46.0456C61.5393 46.0456 61.3335 48.3121 57.5756 46.7999C53.821 45.2844 55.8518 47.9926 51.0077 46.8101C49.7764 46.5111 48.987 46.0048 48.4304 45.4169C46.8011 43.7009 47.1587 41.2815 44.2104 41.234C40.4086 41.1558 40.6785 35.9636 40.7088 35.4879C40.8134 34.4209 40.6549 33.3811 40.132 32.4501C38.0776 28.7836 41.198 23.8667 44.3993 22.0895Z" fill="url(#paint35_linear_1410_2069)"/>
<defs>
<linearGradient id="paint0_linear_1410_2069" x1="104.267" y1="62.0372" x2="104.267" y2="75.7429" gradientUnits="userSpaceOnUse">
<stop stop-color="#D5A926"/>
<stop offset="1" stop-color="#FACB3A"/>
</linearGradient>
<linearGradient id="paint1_linear_1410_2069" x1="101.428" y1="57.4422" x2="101.428" y2="75.7411" gradientUnits="userSpaceOnUse">
<stop stop-color="#D5A926"/>
<stop offset="1" stop-color="#FACB3A"/>
</linearGradient>
<linearGradient id="paint2_linear_1410_2069" x1="122.073" y1="49.5268" x2="122.073" y2="68.3457" gradientUnits="userSpaceOnUse">
<stop stop-color="#D5A926"/>
<stop offset="1" stop-color="#FACB3A"/>
</linearGradient>
<linearGradient id="paint3_linear_1410_2069" x1="118.235" y1="50.7608" x2="118.235" y2="70.0289" gradientUnits="userSpaceOnUse">
<stop stop-color="#D5A926"/>
<stop offset="1" stop-color="#FACB3A"/>
</linearGradient>
<linearGradient id="paint4_linear_1410_2069" x1="124.114" y1="36.8143" x2="124.114" y2="50.7025" gradientUnits="userSpaceOnUse">
<stop stop-color="#D5A926"/>
<stop offset="1" stop-color="#FACB3A"/>
</linearGradient>
<linearGradient id="paint5_linear_1410_2069" x1="120.807" y1="30.9204" x2="120.807" y2="50.703" gradientUnits="userSpaceOnUse">
<stop stop-color="#D5A926"/>
<stop offset="1" stop-color="#FACB3A"/>
</linearGradient>
<linearGradient id="paint6_linear_1410_2069" x1="97.7531" y1="43.2872" x2="97.7531" y2="56.5791" gradientUnits="userSpaceOnUse">
<stop stop-color="#D5A926"/>
<stop offset="1" stop-color="#FACB3A"/>
</linearGradient>
<linearGradient id="paint7_linear_1410_2069" x1="95.0414" y1="44.1643" x2="95.0414" y2="57.7748" gradientUnits="userSpaceOnUse">
<stop stop-color="#D5A926"/>
<stop offset="1" stop-color="#FACB3A"/>
</linearGradient>
<linearGradient id="paint8_linear_1410_2069" x1="75.0775" y1="22.343" x2="75.0775" y2="30.9224" gradientUnits="userSpaceOnUse">
<stop stop-color="#D5A926"/>
<stop offset="1" stop-color="#FACB3A"/>
</linearGradient>
<linearGradient id="paint9_linear_1410_2069" x1="105.544" y1="20.9522" x2="105.544" y2="34.2586" gradientUnits="userSpaceOnUse">
<stop stop-color="#D5A926"/>
<stop offset="1" stop-color="#FACB3A"/>
</linearGradient>
<linearGradient id="paint10_linear_1410_2069" x1="82.3726" y1="32.9172" x2="82.3726" y2="45.782" gradientUnits="userSpaceOnUse">
<stop stop-color="#D5A926"/>
<stop offset="1" stop-color="#FACB3A"/>
</linearGradient>
<linearGradient id="paint11_linear_1410_2069" x1="64.087" y1="29.8596" x2="64.087" y2="41.3408" gradientUnits="userSpaceOnUse">
<stop stop-color="#D5A926"/>
<stop offset="1" stop-color="#FACB3A"/>
</linearGradient>
<linearGradient id="paint12_linear_1410_2069" x1="91.2049" y1="15.4166" x2="91.2049" y2="26.8978" gradientUnits="userSpaceOnUse">
<stop stop-color="#D5A926"/>
<stop offset="1" stop-color="#FACB3A"/>
</linearGradient>
<linearGradient id="paint13_linear_1410_2069" x1="22.2804" y1="75.5532" x2="132.941" y2="111.802" gradientUnits="userSpaceOnUse">
<stop stop-color="#9D9DFF"/>
<stop offset="0.461458" stop-color="#7979FC"/>
</linearGradient>
<linearGradient id="paint14_linear_1410_2069" x1="30.3273" y1="28.015" x2="30.3542" y2="27.9512" gradientUnits="userSpaceOnUse">
<stop stop-color="#F0877E"/>
<stop offset="1" stop-color="#FABEB2"/>
</linearGradient>
<linearGradient id="paint15_linear_1410_2069" x1="30.3379" y1="28.0921" x2="30.3371" y2="27.9319" gradientUnits="userSpaceOnUse">
<stop stop-color="#F0877E"/>
<stop offset="1" stop-color="#FABEB2"/>
</linearGradient>
<linearGradient id="paint16_linear_1410_2069" x1="107.226" y1="35.453" x2="107.213" y2="35.3848" gradientUnits="userSpaceOnUse">
<stop stop-color="#F0877E"/>
<stop offset="1" stop-color="#FABEB2"/>
</linearGradient>
<linearGradient id="paint17_linear_1410_2069" x1="107.199" y1="35.5261" x2="107.235" y2="35.3698" gradientUnits="userSpaceOnUse">
<stop stop-color="#F0877E"/>
<stop offset="1" stop-color="#FABEB2"/>
</linearGradient>
<linearGradient id="paint18_linear_1410_2069" x1="92.4079" y1="43.6259" x2="92.7323" y2="43.4248" gradientUnits="userSpaceOnUse">
<stop stop-color="#F0877E"/>
<stop offset="1" stop-color="#FABEB2"/>
</linearGradient>
<linearGradient id="paint19_linear_1410_2069" x1="92.6157" y1="43.635" x2="92.5849" y2="43.4524" gradientUnits="userSpaceOnUse">
<stop stop-color="#E75B00"/>
<stop offset="1" stop-color="#FFA345"/>
</linearGradient>
<linearGradient id="paint20_linear_1410_2069" x1="106.341" y1="30.6293" x2="106.33" y2="30.5699" gradientUnits="userSpaceOnUse">
<stop stop-color="#F0877E"/>
<stop offset="1" stop-color="#FABEB2"/>
</linearGradient>
<linearGradient id="paint21_linear_1410_2069" x1="92.5053" y1="43.7108" x2="92.7009" y2="43.3743" gradientUnits="userSpaceOnUse">
<stop stop-color="#F0877E"/>
<stop offset="1" stop-color="#FABEB2"/>
</linearGradient>
<linearGradient id="paint22_linear_1410_2069" x1="106.318" y1="30.6931" x2="106.349" y2="30.5567" gradientUnits="userSpaceOnUse">
<stop stop-color="#F0877E"/>
<stop offset="1" stop-color="#FABEB2"/>
</linearGradient>
<linearGradient id="paint23_linear_1410_2069" x1="80.8304" y1="163.84" x2="81.0157" y2="170.83" gradientUnits="userSpaceOnUse">
<stop stop-color="#5C2100"/>
<stop offset="1" stop-color="#772900"/>
</linearGradient>
<linearGradient id="paint24_linear_1410_2069" x1="79.1308" y1="159.163" x2="77.5724" y2="165.77" gradientUnits="userSpaceOnUse">
<stop stop-color="#F0877E"/>
<stop offset="1" stop-color="#FABEB2"/>
</linearGradient>
<linearGradient id="paint25_linear_1410_2069" x1="55.0374" y1="164.522" x2="55.2271" y2="171.681" gradientUnits="userSpaceOnUse">
<stop stop-color="#5C2100"/>
<stop offset="1" stop-color="#772900"/>
</linearGradient>
<linearGradient id="paint26_linear_1410_2069" x1="56.323" y1="161.215" x2="55.5205" y2="165.023" gradientUnits="userSpaceOnUse">
<stop stop-color="#F0877E"/>
<stop offset="1" stop-color="#FABEB2"/>
</linearGradient>
<linearGradient id="paint27_linear_1410_2069" x1="69.4578" y1="18.8499" x2="69.4578" y2="31.2529" gradientUnits="userSpaceOnUse">
<stop stop-color="#F0877E"/>
<stop offset="1" stop-color="#FABEB2"/>
</linearGradient>
<linearGradient id="paint28_linear_1410_2069" x1="79.2645" y1="37.6825" x2="80.1191" y2="32.3565" gradientUnits="userSpaceOnUse">
<stop stop-color="#E75B00"/>
<stop offset="1" stop-color="#FFA345"/>
</linearGradient>
<linearGradient id="paint29_linear_1410_2069" x1="75.8856" y1="48.6475" x2="75.9122" y2="48.4813" gradientUnits="userSpaceOnUse">
<stop stop-color="#E75B00"/>
<stop offset="1" stop-color="#FFA345"/>
</linearGradient>
<linearGradient id="paint30_linear_1410_2069" x1="98.5678" y1="44.1339" x2="98.9503" y2="43.8967" gradientUnits="userSpaceOnUse">
<stop stop-color="#F0877E"/>
<stop offset="1" stop-color="#FABEB2"/>
</linearGradient>
<linearGradient id="paint31_linear_1410_2069" x1="98.8124" y1="44.1462" x2="98.7761" y2="43.9309" gradientUnits="userSpaceOnUse">
<stop stop-color="#E75B00"/>
<stop offset="1" stop-color="#FFA345"/>
</linearGradient>
<linearGradient id="paint32_linear_1410_2069" x1="115.096" y1="28.7177" x2="115.083" y2="28.6471" gradientUnits="userSpaceOnUse">
<stop stop-color="#F0877E"/>
<stop offset="1" stop-color="#FABEB2"/>
</linearGradient>
<linearGradient id="paint33_linear_1410_2069" x1="98.6826" y1="44.2339" x2="98.9133" y2="43.8371" gradientUnits="userSpaceOnUse">
<stop stop-color="#F0877E"/>
<stop offset="1" stop-color="#FABEB2"/>
</linearGradient>
<linearGradient id="paint34_linear_1410_2069" x1="115.068" y1="28.7934" x2="115.105" y2="28.6316" gradientUnits="userSpaceOnUse">
<stop stop-color="#F0877E"/>
<stop offset="1" stop-color="#FABEB2"/>
</linearGradient>
<linearGradient id="paint35_linear_1410_2069" x1="42.953" y1="18.3028" x2="83.9909" y2="33.9858" gradientUnits="userSpaceOnUse">
<stop stop-color="#4014B8"/>
<stop offset="0.862038" stop-color="#6E49DA"/>
</linearGradient>
</defs>
</svg>
