<svg width="32" height="32" viewBox="0 0 32 32" fill="none" xmlns="http://www.w3.org/2000/svg">
<path d="M9 30C9.82843 30 10.5 29.3284 10.5 28.5C10.5 27.6716 9.82843 27 9 27C8.17157 27 7.5 27.6716 7.5 28.5C7.5 29.3284 8.17157 30 9 30Z" fill="#9D9DFF"/>
<path d="M10 25H8V21H10C10.5304 21 11.0391 20.7893 11.4142 20.4142C11.7893 20.0391 12 19.5304 12 19C12 18.4696 11.7893 17.9609 11.4142 17.5858C11.0391 17.2107 10.5304 17 10 17H8C7.46973 17.0005 6.96133 17.2114 6.58637 17.5864C6.21141 17.9613 6.00053 18.4697 6 19V19.5H4V19C4.00132 17.9395 4.42318 16.9229 5.17303 16.173C5.92289 15.4232 6.93954 15.0013 8 15H10C11.0609 15 12.0783 15.4214 12.8284 16.1716C13.5786 16.9217 14 17.9391 14 19C14 20.0609 13.5786 21.0783 12.8284 21.8284C12.0783 22.5786 11.0609 23 10 23V25Z" fill="#9D9DFF"/>
<path d="M27.7 9.29986L20.7 2.29986C20.612 2.20216 20.5038 2.12473 20.383 2.07293C20.2621 2.02113 20.1314 1.9962 20 1.99986H10C9.47005 2.00145 8.96227 2.21267 8.58753 2.5874C8.2128 2.96213 8.00158 3.46992 8 3.99986V11.9999H10V3.99986H18V9.99986C18.0016 10.5298 18.2128 11.0376 18.5875 11.4123C18.9623 11.7871 19.4701 11.9983 20 11.9999H26V27.9999H14V29.9999H26C26.5299 29.9983 27.0377 29.7871 27.4125 29.4123C27.7872 29.0376 27.9984 28.5298 28 27.9999V9.99986C28.0035 9.86844 27.9785 9.73781 27.9268 9.61697C27.875 9.49613 27.7976 9.38795 27.7 9.29986ZM20 9.99986V4.39986L25.6 9.99986H20Z" fill="#9D9DFF"/>
</svg>
