<svg width="66" height="51" viewBox="0 0 66 51" fill="none" xmlns="http://www.w3.org/2000/svg">
<g clip-path="url(#clip0_1397_623)">
<path d="M39.6484 5.625H57.379C59.6654 5.625 61.8583 6.51395 63.475 8.09629C65.0918 9.67863 66.0001 11.8247 66.0001 14.0625V36.5625C66.0001 38.8003 65.0918 40.9464 63.475 42.5287C61.8583 44.1111 59.6654 45 57.379 45H17.1474C14.861 45 12.6682 44.1111 11.0514 42.5287C9.43466 40.9464 8.52637 38.8003 8.52637 36.5625V8.4375C8.52637 6.19974 9.43466 4.05362 11.0514 2.47129C12.6682 0.888948 14.861 0 17.1474 0H31.5158C35.2689 0 38.4615 2.34844 39.6484 5.625ZM48.7579 16.875V22.5H54.5053V16.875H48.7579ZM43.0106 11.25V16.875H48.7579V11.25H43.0106ZM43.0106 22.5V28.125H48.7579V22.5H43.0106ZM48.7579 28.125V33.75H54.5053V28.125H48.7579ZM43.0106 33.75V39.375H48.7579V33.75H43.0106Z" fill="url(#paint0_linear_1397_623)"/>
<g filter="url(#filter0_i_1397_623)">
<path d="M25.2687 22.1191H4.42069C2.15342 22.1191 0.31543 23.91 0.31543 26.1191V33.1606C0.31543 35.3698 2.15342 37.1606 4.42069 37.1606H25.2687C27.5359 37.1606 29.3739 35.3698 29.3739 33.1606V26.1191C29.3739 23.91 27.5359 22.1191 25.2687 22.1191Z" fill="white"/>
</g>
<path d="M7.79883 33.8887V33.4188L11.3909 28.9888L11.5449 29.2288H7.86041V28.6388H12.1196V29.0987L8.53777 33.5387L8.35304 33.2987H12.1915V33.8887H7.79883ZM13.6257 33.8887V28.6388H14.3544V33.8887H13.6257ZM13.9952 27.4788C13.8446 27.4788 13.7181 27.4287 13.6155 27.3287C13.5128 27.2287 13.4615 27.1088 13.4615 26.9688C13.4615 26.8287 13.5128 26.7121 13.6155 26.6187C13.7181 26.5187 13.8446 26.4688 13.9952 26.4688C14.1457 26.4688 14.2723 26.5154 14.3749 26.6087C14.4776 26.7021 14.5289 26.8187 14.5289 26.9587C14.5289 27.1054 14.4776 27.2287 14.3749 27.3287C14.2791 27.4287 14.1525 27.4788 13.9952 27.4788ZM19.1632 33.9388C18.698 33.9388 18.2772 33.8354 17.9009 33.6287C17.5245 33.4154 17.2235 33.1122 16.9977 32.7188C16.7788 32.3187 16.6693 31.8321 16.6693 31.2587C16.6693 30.6854 16.7788 30.2022 16.9977 29.8088C17.2166 29.4088 17.5142 29.1055 17.8906 28.8988C18.2669 28.6922 18.6911 28.5887 19.1632 28.5887C19.6764 28.5887 20.1348 28.7021 20.5385 28.9287C20.949 29.1487 21.2706 29.4621 21.5032 29.8687C21.7359 30.2687 21.8522 30.7321 21.8522 31.2587C21.8522 31.7921 21.7359 32.2587 21.5032 32.6587C21.2706 33.0587 20.949 33.3722 20.5385 33.5988C20.1348 33.8255 19.6764 33.9388 19.1632 33.9388ZM16.3819 35.8288V28.6388H17.0798V30.2188L17.008 31.2687L17.1106 32.3288V35.8288H16.3819ZM19.1119 33.3088C19.495 33.3088 19.8372 33.2255 20.1382 33.0588C20.4392 32.8855 20.6788 32.6454 20.8566 32.3387C21.0345 32.0254 21.1235 31.6654 21.1235 31.2587C21.1235 30.8521 21.0345 30.4954 20.8566 30.1887C20.6788 29.8821 20.4392 29.6421 20.1382 29.4688C19.8372 29.2955 19.495 29.2087 19.1119 29.2087C18.7288 29.2087 18.3832 29.2955 18.0753 29.4688C17.7743 29.6421 17.5348 29.8821 17.3569 30.1887C17.1858 30.4954 17.1003 30.8521 17.1003 31.2587C17.1003 31.6654 17.1858 32.0254 17.3569 32.3387C17.5348 32.6454 17.7743 32.8855 18.0753 33.0588C18.3832 33.2255 18.7288 33.3088 19.1119 33.3088Z" fill="#9D9DFF"/>
</g>
<defs>
<filter id="filter0_i_1397_623" x="-2.68457" y="22.1191" width="32.0586" height="19.0415" filterUnits="userSpaceOnUse" color-interpolation-filters="sRGB">
<feFlood flood-opacity="0" result="BackgroundImageFix"/>
<feBlend mode="normal" in="SourceGraphic" in2="BackgroundImageFix" result="shape"/>
<feColorMatrix in="SourceAlpha" type="matrix" values="0 0 0 0 0 0 0 0 0 0 0 0 0 0 0 0 0 0 127 0" result="hardAlpha"/>
<feOffset dx="-3" dy="4"/>
<feGaussianBlur stdDeviation="4.5"/>
<feComposite in2="hardAlpha" operator="arithmetic" k2="-1" k3="1"/>
<feColorMatrix type="matrix" values="0 0 0 0 0.357361 0 0 0 0 0.551258 0 0 0 0 0.691667 0 0 0 0.11 0"/>
<feBlend mode="normal" in2="shape" result="effect1_innerShadow_1397_623"/>
</filter>
<linearGradient id="paint0_linear_1397_623" x1="14.8787" y1="4.85251e-07" x2="36.4947" y2="45.3662" gradientUnits="userSpaceOnUse">
<stop stop-color="#9D9DFF"/>
<stop offset="1" stop-color="#9D9DFF"/>
</linearGradient>
<clipPath id="clip0_1397_623">
<rect width="66" height="51" fill="white"/>
</clipPath>
</defs>
</svg>
